<svg xmlns="http://www.w3.org/2000/svg" xml:space="preserve" style="enable-background:new 0 0 480 480" viewBox="0 0 480 480"><style>.st3{fill:#4b86a5}.st4{fill:#b2606a}.st5{fill:#dc9a90}.st6{fill:#eab09e}.st7{fill:#ce8683}.st8{fill:#fccaae}.st9{fill:#c07276}.st10{fill:#fff}.st11{fill:#001f3f}.st12{fill:#174d6c}.st13{fill:#003555}.st15{fill:#a54e5e}</style><g id="profile-geo"><g id="drawing"><path d="M216.3 351.8 174.2 322l1.8-37.8-120.6 32.5L33 480h211.3V351.5l-28 .3" style="fill:#67a8c5"/><path d="m477 480-47.4-163.3-106.7-30.9-1.6 34.3-41.9 30.7-35.2.8V480H477" style="fill:#326787"/><path d="m187.9 280.4-11.8 3.7-1.8 37.8 42.1 29.8 28-.2V270l-56.5 10.4" style="fill:#86d4ee"/><path d="m321.4 320.1 1.6-34.3-16.8-5.3L247 270h-2.7v81.5l35.2-.8 41.9-30.6" class="st3"/><path d="m319 199.3-.5-13.6.2-33.7 11.3-8 6.8 2.5 3.4 9.8-7.5 35.1-8.5 8.7-5.2-.8" class="st4"/><path d="m171.4 198.8.5-13.6-.2-33.7-11.3-8-6.8 2.5-3.4 9.8 7.5 35.1 8.5 8.7 5.2-.8" class="st5"/><path d="m224.9 268.7-30.1-39.3v78.4l28.4 18.7h21.1v-57.9h-19.4" class="st6"/><path d="M265 268.7h-20.6v57.9h29.2l28.5-28.7v-77.4L265 268.7m-40.2-.6-30.1-39.3.2 8.3 28.4 38.7h21.1v-7.4l-19.6-.3" class="st7"/><path d="m265 268.7-20.6-.3v7.4h26.5l31.1-46.1-37 39" class="st4"/><path d="M268.8 275.8h-24.4v50.8h11.9l12.5-50.8" class="st5"/><path d="m224.8 275.8 12.5 50.8h7.1v-50.8h-19.6" class="st8"/><path d="m224.8 268.1-.9-1.2v6.1l.9 2.8h19.6v-7.4l-19.6-.3" class="st5"/><path d="m269.6 262.7-4.5 5.9-20.6-.3v7.4h24.4l.9-2.8.1-10.2h-.3" class="st9"/><path d="m212.5 56.7-41.4 25.6v128.1l51.6 58.2h22.8l-.3-211.9h-32.7" class="st8"/><path d="M278.5 56.7h-34.2v211.9h23l51.5-58.2V82.3l-40.3-25.6" class="st5"/><path d="m186 74 13.7 26-28.5 54V82.3L186 74" class="st6"/><path d="m236.8 186.8-.3-.1v13.5l7.9 7.6v-21h-7.6" class="st7"/><path d="m252.2 186.7-.4.1h-7.5v21l7.9-7.6v-13.5" class="st6"/><path d="M308.3 82.7 292 103l26.7 50.7.2-71.4-10.6.4" class="st4"/><path d="m271.7 263.6-13.4-3h-13.9v7.9l23 .1 4.3-5" class="st7"/><path d="m232.6 260.7-14.6 2.6 4.7 5.3h21.6v-7.9h-11.7m-28.9-13.6-32.6-36.8-.1-45.4 38 34.7-5.3 47.5" class="st6"/><path d="m318.9 165-37.6 34.8 2.4 50.2 35.5-39.5-.3-45.5" class="st7"/><path d="M293.5 144.7v-4l-9.3-6.7H271l-9.3 5.1v5.5h31.8" class="st10"/><path d="m275.5 144.7-2.5-2.5c-.4-.4-.6-.9-.6-1.4V138c0-.5.2-1 .6-1.4l1.9-1.9c.4-.4.9-.6 1.4-.6h2.8c.5 0 1 .2 1.4.6l2 2c.4.4.6.9.6 1.4v2.8c0 .5-.2 1-.6 1.4l-2 2c-.4.4-.9.6-1.4.6h-3.6" class="st11"/><path d="M293.5 144.7v.8l-9.3 4H271l-9.3-4v-.8h31.8" class="st7"/><path d="M284.1 131H271l-9.3 8.2 9.3-5.1h13.1l9.3 6.7v-1.5l-9.3-8.3" class="st4"/><path d="M225.4 144.7v-5.5l-9.3-5.1H203l-9.3 6.7v4h31.7" class="st10"/><path d="m207.5 144.7-2.5-2.5c-.4-.4-.6-.9-.6-1.4V138c0-.5.2-1 .6-1.4l1.9-1.9c.4-.4.9-.6 1.4-.6h2.8c.5 0 1 .2 1.4.6l2 2c.4.4.6.9.6 1.4v2.8c0 .5-.2 1-.6 1.4l-2 2c-.4.4-.9.6-1.4.6h-3.6" class="st11"/><path d="M225.4 144.7v.8l-9.3 4H203l-9.3-4v-.8h31.7" class="st6"/><path d="M216.1 131H203l-9.3 8.2v1.5l9.3-6.7h13.1l9.3 5.1-9.3-8.1" class="st7"/><path d="M429.6 316.7 397 480H267h210l-47.4-163.3" class="st12"/><path d="M55.4 316.7 3 480h84L55.4 316.7" class="st3"/><path d="m244.3 61.8-4.4 5.2-2.9-4.8-6.7 3.9-1.1-6-5.3.7-.9-4.2-5.3 6.2 3.5-1.3-2 9.4 7.1-4.9-3.7 12.2 11.1-7.6.1 7.2 6.2-2 1 4.5 3.2-1.6V61.8" class="st6"/><path d="m262 54.3-2.6 2.3h2.7l-.1-2.3m-12.1.9-3.1 1.5h3l.1-1.5m42.7 7.5-2.2 1.6-11.9-7.5h-31.6l-2 1-.5.9v20l4-1.9-2.5 13 20-10 .5 8 15-11-1 9.5 18.8-16.4 1.8-1.6-8.4-5.6" class="st7"/><path d="m330 144-1.7-69 3.7-7-8.2.7 7-4.5-8.1 1.7L284 25.3l-65.7.7-30.8 17.9s-25.6 51.5-24.2 51.5-2 48.8-2 48.8l9.8 6.9 1.8-33.9 11.1-10.5-5.6-12.2 9.3-16.5L219 59.7l-.8 1.9 3.5-1.4-2.4 6.7 7.1-4.9-3.7 12.2 11.1-7.6.1 7.2 11.8-14.1 2.7 3.5 24 9.9 14.1-.8 5-2.5L314 86.3l-6.7 15.3 10.3 12 1 38.3L330 144z" class="st11"/><path d="M249.2 61.7 262 50.3l.3 14.2 14.7-7-3.8 13.5 16.2-10-2.6 10.7 14.2-7.5-20.7 18 1-9.5-15 11-.5-8-20 10 2.5-13-7.2 3.5-1-4.5-6.2 2-.1-7.2-11.1 7.6 3.7-12.2-7.1 4.9 2.4-6.5-3.5 1.3 5.3-6.2.9 4.2 4.8-3.5 1.1 6 6.7-3.9 2.9 4.8 10-11.9-.7 10.6" class="st13"/><path d="M244.3 160.9v9.9l3.7.1 2.1.8-.8-10.2-1.5-.6h-3.5" class="st5"/><linearGradient id="SVGID_1_" x1="252.996" x2="255.246" y1="344.691" y2="324.191" gradientTransform="matrix(1 0 0 -1 0 482)" gradientUnits="userSpaceOnUse"><stop offset="0" style="stop-color:#dc9a90"/><stop offset="1" style="stop-color:#b2606a"/></linearGradient><path d="M262.5 166.7v-.1l-7.6-4.9-5.1-26.7h-2.6l2.2 26.5 13.1 5.2" style="fill:url(#SVGID_1_)"/><path d="M244.3 170.9v15.9h7.5l2.8-1.1-3.6-6.3 4.4-2.6 4 6.9 3.1-1.3v-5.7l-14.6-5.8h-3.6" class="st4"/><path d="m250.9 179.4 3.6 6.3 4.8-2-4-6.9-4.4 2.6" class="st15"/><path d="m249.4 161.5.8 10.2-2.1-.8-3.7-.1v.1h3.6l14.6 5.8v-10l-13.2-5.2" class="st9"/><path d="M244.5 160.9v9.9l-3.7.1-2.1.8.8-10.2 1.5-.6h3.5" class="st8"/><linearGradient id="SVGID_00000168117437100244600360000017795922179635467928_" x1="237.134" x2="233.634" y1="346.919" y2="322.919" gradientTransform="matrix(1 0 0 -1 0 482)" gradientUnits="userSpaceOnUse"><stop offset="0" style="stop-color:#fccaae"/><stop offset="1" style="stop-color:#dc9a90"/></linearGradient><path d="M226.3 166.7v-.1l7.6-4.9L239 135h2.6l-2.2 26.5-13.1 5.2" style="fill:url(#SVGID_00000168117437100244600360000017795922179635467928_)"/><linearGradient id="SVGID_00000106834048658759006290000006418289405983946145_" x1="241.99" x2="241.99" y1="342.33" y2="332.33" gradientTransform="matrix(1 0 0 -1 0 482)" gradientUnits="userSpaceOnUse"><stop offset="0" style="stop-color:#fccaae"/><stop offset="1" style="stop-color:#eab09e"/></linearGradient><path d="M244.5 160.9h-3.6l-1.5.6 2.2-26.5h2.9v25.9" style="fill:url(#SVGID_00000106834048658759006290000006418289405983946145_)"/><linearGradient id="SVGID_00000132810009132851730970000003513264534460599443_" x1="246.85" x2="246.85" y1="343.67" y2="328.67" gradientTransform="matrix(1 0 0 -1 0 482)" gradientUnits="userSpaceOnUse"><stop offset="0" style="stop-color:#dc9a90"/><stop offset="1" style="stop-color:#ce8683"/></linearGradient><path d="M244.3 160.9h3.6l1.5.6-2.2-26.5h-2.9v25.9" style="fill:url(#SVGID_00000132810009132851730970000003513264534460599443_)"/><path d="M244.5 170.9v15.9H237l-2.8-1.1 3.6-6.3-4.4-2.6-4 6.9-3.1-1.3v-5.7l14.6-5.8h3.6" class="st9"/><path d="m237.9 179.4-3.6 6.3-4.8-2 4-6.9 4.4 2.6" class="st15"/><path d="m239.5 161.5-.8 10.2 2.1-.8 3.7-.1v.1h-3.6l-14.6 5.8v-10l13.2-5.2" class="st6"/><path d="m225.5 114.8-1.9 9.8-26.9-3.8s-17.4 7.2-17.4 7.4 8.3-14.2 8.3-14.2l15.3-3.9 22.6 4.7z" class="st12"/><path d="m267.9 114.9-9.5 11.1 44.6.6 10.4 6.2-11.8-18.1-33.7.2" class="st13"/><path d="m232 215.5-11.7-.6L236 206l-17.3 9.8 13.3 9.7h12.4v-10H232" class="st7"/><path d="m271.1 209.5-19.1 6h-7.7v10h12.3l14.5-16m-26.8 1-5.4-4.5H236l-15.7 8.9 11.7.6h12.4l-.1-5" class="st9"/><path d="m271.1 209.5-18.5-3.4h-2.9l-5.4 4.4v5h7.7l19.1-6" class="st4"/><path d="M187.7 114s-7.8 13.6-8.3 14.2c.2-.2 3.5-1.6 7.1-3.1l6.5-12.5-5.3 1.4zm80.2.9-9.5 11.1 44.6.6 2.1 1.3-6.9-13.1-30.3.1" class="st13"/><path d="M301.5 114.8h-3.3l6.9 13.1 8.3 5-11.9-18.1" class="st11"/></g><path d="m171.1 165 41.6 38.2 7.6 46.8 18.3-10-7.6-11.2h25.6l-7.2 11.2 14.2 10 14.1-46.8 41.2-38.2 1.2 46.6-52.5 57.2h-45l-51.9-57z" class="st11"/><path d="m216.5 214.8 3-15.7 16.9-11 7.8 2.4 8-2.4 16.9 9.1 5.4 11.7-26.2-4.9-4 3.8-6.4-4.9z" class="st11"/><path d="m220.3 256.8 23-13.2 25.1 14.7-3.9 6.2h-40.7z" class="st13"/><path d="m172 135.8 2.6 32.4-3.5-3.2v-19zM318.2 135.8l-2.7 32.4 3.4-3.2v-13.9z" class="st11"/></g></svg>