<svg xmlns="http://www.w3.org/2000/svg" viewBox="0 0 24 24"><path d="M12 .3c6.63 0 12 5.37 12 12a12 12 0 0 1-8.17 11.38c-.6.12-.83-.26-.83-.57 0-.41.02-1.7.02-3.3 0-1.12-.37-1.84-.81-2.22 2.67-.3 5.48-1.32 5.48-5.92 0-1.32-.47-2.39-1.23-3.22.12-.3.54-1.53-.12-3.18 0 0-1.01-.33-3.3 1.23-.96-.27-1.98-.4-3-.4s-2.04.13-3 .4c-2.29-1.54-3.3-1.23-3.3-1.23-.66 1.65-.24 2.88-.12 3.18a4.69 4.69 0 0 0-1.23 3.22c0 4.59 2.79 5.63 5.46 5.93-.35.3-.66.83-.77 1.6-.69.32-2.42.83-3.49-.99-.23-.36-.9-1.24-1.84-1.23-1.01.02-.4.57.01.79.51.28 1.09 1.35 1.23 1.7.24.67 1.02 1.97 4.03 1.41 0 1.01.02 1.95.02 2.23 0 .32-.23.67-.83.57A11.988 11.988 0 0 1 0 12.3C0 5.67 5.37.3 12 .3Z" /></svg>