<?xml version="1.0" encoding="UTF-8"?><svg xmlns="http://www.w3.org/2000/svg" viewBox="0 0 1081.3 313.45"><g style="isolation:isolate;"><g id="b"><g id="c"><path d="M680.82,269.39h12.42c8.94,0,15.07,5.39,15.07,13.66s-6.13,13.67-15.07,13.67h-12.42v-27.33ZM692.92,291.53c5.43,0,8.98-3.24,8.98-8.47s-3.55-8.47-8.98-8.47h-5.78v16.95h5.78Z" style="fill:#fff; stroke-width:0px;"/><path d="M756.51,291.65v5.08h-21.16v-27.33h20.65v5.08h-14.37v5.93h12.69v4.92h-12.69v6.32h14.88Z" style="fill:#fff; stroke-width:0px;"/><path d="M781.68,294.03l2.15-4.76c2.3,1.68,5.74,2.85,9.02,2.85,3.75,0,5.28-1.25,5.27-2.93-.02-5.45-15.93-2.21-15.89-11.75.02-4.65,3.75-8.51,11.52-8.51,3.44,0,6.95.82,9.49,2.42l-1.95,4.8c-2.54-1.44-5.15-2.15-7.58-2.15-3.75,0-5.4,1.42-5.19,3.12.46,3.81,16.12.96,15.89,11.6-.1,4.57-3.79,8.47-11.59,8.47-4.34,0-8.71-1.29-11.13-3.16Z" style="fill:#fff; stroke-width:0px;"/><path d="M831.02,269.39h6.32v27.33h-6.32v-27.33Z" style="fill:#fff; stroke-width:0px;"/><path d="M943.55,269.39v27.33h-5.19l-13.63-16.6v16.6h-6.25v-27.33h5.23l13.59,16.59v-16.59h6.25Z" style="fill:#fff; stroke-width:0px;"/><path d="M879.79,286.78h4.78v3.85c-1.6.86-3.2,1.17-4.92,1.17-5.23,0-8.86-3.63-8.86-8.75s3.63-8.75,8.94-8.75c2.77,0,5.08.98,7.07,3.09l4.06-3.75c-2.66-3.09-6.64-4.72-11.44-4.72-8.71,0-15.03,5.9-15.03,14.13s6.32,14.14,14.92,14.14c3.9,0,8.04-1.21,11.05-3.48v-11.83s-10.56,0-10.56,0v4.9Z" style="fill:#fff; stroke-width:0px;"/><path d="M839.08,69.23c.7.39,5.24,1.8,5.82.59,3.06-6.48,2.31-13.73-1.31-19.77-4.23-7.05-30.59-16.79-48.32,2.1-35.15,37.45,82.4,50.85,65.68,150.49-1.15,6.88-4.23,14.37-7.92,20.33-5.85,9.43-14.8,16.64-24.87,21.16-11,4.95-23.06,6.7-34.61,4.95-11.52-1.74-22.65-6.88-31.43-15.25-15.06-14.39-18.68-36.68-10.42-55.54,2.2-5.02,5.19-10.26,8.67-14.51,8.99-10.99,22.59-17.48,36-21.25,21.03-5.92,43.23-5.83,64.89-6.76,6.39-.27,12.78-.62,19.15-1.19,4.19-.38,9.1-.9,13.23-1.74.16,2.3-3.09,7.83-2.92,10.12-7.44-1.45-12.05-3.21-19.46-2.29-9.37,1.16-18.77,1.88-28.12,3.23-10.54,1.52-21.8,1.2-31.23,6.23-90.84,48.49-16.96,108.05,16.84,47.17,38.67-69.66-78.97-99.62-52.12-154.86,14.64-30.11,73.86-51.82,92.54-3.94,8.46,21.69-14.51,59.51-32.2,44.63-9.58-8.05-8.09-19.61,2.13-13.9Z" style="fill:#fff; stroke-width:0px;"/><path d="M892.9,135.25c-22.41,75.59,13.89,69.78,21.03,16.51.28-2.08,5.09,7.15,5.23,7.21,2.19.88-7.71,25.8-8.32,27.13-2.94,6.41-7.54,14.33-13.68,18.05-4.04,2.44-9.47,2.99-14.03,1.71-10.96-3.06-14.12-14.4-13.48-24.79.57-9.18,9.48-36.22,10.26-45.38.99-.15,13.13-.9,12.99-.45Z" style="fill:#fff; stroke-width:0px;"/><path d="M884.04,116.04c10.7.04,14.25-27.39,24.93-20.16l3.31,3.31c4.41,4.76-.58,7.54-3.74,11.29-5.9,6.7-16.25,16.08-25.4,10.15l.9-4.59Z" style="fill:#fff; stroke-width:0px;"/><path d="M922.68,136.64c9.76.18,5.92,11.55,5.39,17.77q-.28,3.32,1.66-1.48c3.81-9.41,13.03-17.66,24.01-14.24,13.48,4.2,18.94,20.67,20.41,33.25.38,3.23-.05,7.39,1.23,4.85,4.78-9.53,7.4-20.19,13.4-29.08,4.49-6.65,13.94-16.7,22.43-9.53,11.57,9.77,2.05,36.01,4.81,48.59.38,1.73.84,4.2,2.27,5.37,5.92,4.83,25.87-21.22,28.79-24.72,2.94-3.52,8.67.39,3.22,6.79-8.59,10.08-25.67,36.48-36.24,31.16-7.83-3.95-12.48-14.79-11.03-26.06,7.04-54.79-11.58-19.78-26.58,21.15-1.02,2.78-4.44,4.62-7.45,4.64-7.16.06-9.18-25.88-10.25-31.07-1.25-6.07-3.2-24.68-11.85-23.31-17.42,2.76-19.71,38.63-20.36,46.57-.28,3.36-.55,6.57-3.98,8.07-2.83,1.24-7.77,1.15-10.25-.86-2.78-2.25-1.46-5.47-.43-8.31,2.17-5.97,2.2-46,1.95-51.62-.23-4.97-2.06-5.58.19-7.27.67-.5,7.98-.65,8.66-.64Z" style="fill:#fff; stroke-width:0px;"/><path d="M1043.2,172.18c9.27-12.94,39.94-54.12,19.7-51.51-11.8,1.52-12.1,22.44-11.41,32.07,1.27,17.77,14.79,32.6,20.3,49.1,40.83,122.28-177.13,147.01-63-.42,5.77-7.45,39.01-23.22,29.05-11.52-62.4,73.32-11.8,112.77,16.42,38.76,4.08-10.71,4.42-22.92,1.91-33.96-1.86-8.21-5.37-15.95-8.77-23.61-2.42-5.6-4.03-11.51-4.8-17.44-1.95-14.83-.07-38.78,17.96-43.17,23.15-5.64,24.29,10.44,16.15,28.86-5.87,13.28-18.16,24.06-27.3,36.26-.36-.12-4.53-3.55-6.2-3.43Z" style="fill:#fff; stroke-width:0px;"/><path d="M830.36,145.31c-.07.01,0,0,0,0,1.66,3.26,3.05,6.61,4.09,10.05,3.06-1.1,10.97-3.57,22.19-4.4-1.1-2.86-2.33-5.62-3.68-8.27,0,0-1.86.19,0,0-.14,0-12.95,1.03-22.6,2.62Z" style="fill:#000; mix-blend-mode:multiply; opacity:.5; stroke-width:0px;"/><g style="mix-blend-mode:multiply; opacity:.5;"><path d="M1055.43,168.15c-.92.86-4.08,5.18-6.03,7.46h0c1.25,2.86,2.46,5.74,3.56,8.65,1.23-1.66,3.77-4.76,6.91-6.85-1.36-2.58-2.65-5.18-3.81-7.82l-.63-1.45Z" style="fill:#000; stroke-width:0px;"/></g><path d="M378.9,107.76c8.46,5.43-10.83,17.45-18.59,17.82-26.46,1.24-24.53-21.35-24.49-22.04,1.02-18.67,76.24-79.49,119.58-64.75,15.36,5.23,13.01,27.46,10.58,40.74-1.76,9.64-3.85,19.35-6.27,28.83-2.5,9.44-5.05,18.94-7.92,28.43-4.81,15.87-19.55,76.95-46.2,99.42-8.5,7.17-47.92,27.17-68.3-10.93-3.07-5.74-3.57-12.29-3.42-18.31.16-6.03,1.47-11.79,3.6-16.98,5.61-14.07,18.28-23.84,30.37-32.18,14.57-10.05,29.16-17.65,42.96-23.92,6.9-3.13,13.65-5.79,20.11-8.22,6.46-2.42,12.7-4.46,18.68-6.05,2.99-.79,5.88-1.72,8.78-2,7.23-.69,14.56-.04,21.34,2.66,7.27,2.89,27.2,12.85,20.41,17.03-7.49,4.61-13.82,9.23-17.39,12.48.64-1.06-10.39-3.01-9.57-3.88,3.21-3.46,9.28-11.18,5.84-15.82-2.75-3.72-8.53-5.05-12.85-5.6-4.69-.59-10.35-.77-14.92.7-5.66,1.82-11.56,4.18-17.69,6.9-6.13,2.72-12.39,6-18.82,9.58-12.8,7.21-26.31,15.87-39.05,26.42-3.15,2.66-6.5,5.23-9.08,8.45-36.91,46.05,10.22,59.45,33.12,30.72,5.18-6.5,31.54-55.36,37.09-75.21,2.61-9.32,6.2-18.27,8.87-27.34,3.57-12.18,7.21-24.85,7.89-37.6,1.83-34.3-78.45,25.41-80.57,27.53-3.82,3.77-15.45,13.66-7.28,12.8,1.75-.19,10.33-1.55,13.2.3Z" style="fill:#fff; stroke-width:0px;"/><path d="M494.26,134.9c-2.13,1.66-9.41,12.44-11.54,14.92-36.92,42.91.48,60.41,15.97,11.4.94-2.96,16.13,2.96,15.24,8.72-6.5,42.15,30.2,22.68,39.13,4.79,1.2-2.4,3.93,2.91,2.54,5.78-2.79,5.72-9.66,19.5-26.42,23.79-3.95,1.01-31.88,5.17-32.87-22.46-.13-3.59-.09-6.97.32-10.21.41-3.24,1.03-6.42,1.81-9.43.8-3,1.76-5.84,2.79-8.67,1.61-4.4,3.19-8.85,5.48-12.93,1.57-2.8,12.55-8.02,11.13,8.61,0,0-3.44,17.03-3.89,20.74-1.49,12.35-7.17,26.34-18.4,32.9-10.61,6.2-26.24,8.72-36.02-.36-5.56-5.16-8.87-13.12-7.31-20.66,1.6-7.72,5.34-14.68,9.65-21.19,1.98-2.99,4.09-5.83,6.27-8.61,2.18-2.77,4.44-5.46,6.8-8.07,2.37-2.6,14.73-13.2,16.62-13.98l2.73,4.95Z" style="fill:#fff; stroke-width:0px;"/><path d="M540.64,190.83c-4.94-16.96-12.47-36.97-6.71-54.99,6.27-19.92,40.41-27.11,42.51-1.03.83,15.3-8.17,32.02-15.79,44.52-3.11,4.39-5.96,10.51-10.22,12.42-3.04,1.14-6.21-1.07-5.91-4.9.15-2.12,1.18-4.29,2.23-6.28,6.12-11.85,16.6-28.89,17.33-42.29-.07-8.32-9.18-12.17-14.1-4.79-6.84,11.14-5.13,25.28-2.81,37.66,1.69,9.22,8.1,16.96,11.8,25.23,57.67,128.7-107.16,129.99-85.4,59.9,7.66-24.67,31.34-39.65,52.87-51.76,8.04-4.93,15.39-10.32,23.31-15.46,14.06-9.13,36.49-26.27,45.25-36.48,2.96-3.45.85.63-1.75,8.51-4.46,13.21-17.72,20.37-28.48,28.03-13.93,8.79-28.06,18.12-42.15,26.4-10.17,5.69-20.34,12.15-27.62,22-6.53,8.85-8.29,16.15-7.05,23.5,3.25,17.45,28.97,12.01,40.99,7.18,22.06-8.84,26.79-36.31,19.37-57.53-2.13-6.23-5.78-13.65-7.55-19.52l-.11-.33Z" style="fill:#fff; stroke-width:0px;"/><path d="M602.49,150.68s-.37.56-.65,1.31c-19,56.91,14.79,50.47,21.6,12.32.57-3.27.89-6.39.79-9.16-.11-2.77-.48-5.21-1.28-7.05-.72-1.9-1.82-3.16-2.99-4.05-1.19-.86-2.44-1.29-3.32-1.52-.89-.22-1.4-.31-1.4-.31l-.22-2.76s.15-.04.43-.11c.28-.07.7-.2,1.28-.27,1.13-.19,2.91-.36,5.23.21,2.31.55,5.05,2.15,7.21,4.7,2.12,2.56,3.77,5.84,4.77,9.45,8.27,32.21-17.18,61.95-37.53,51.84-3.85-1.92-7-5.11-8.88-8.98-.44-.89-.8-1.78-1.12-2.65-.94-2.62-1.38-5.14-1.63-7.51-.25-2.38-.27-4.62-.14-6.77.25-4.28,1.08-8.13,2.14-11.56,2.14-6.86,5.34-12.03,8.23-15.22,1.42-1.61,2.79-2.7,3.77-3.36,1.09-.75,1.55-.85,1.56-.88l2.15,2.33Z" style="fill:#fff; stroke-width:0px;"/><path d="M618.3,138.91s10.05.72,11.03.96c3.94.95,8.37,2.73,12.49,2.37,3.56-.3,4.47-2.66,6.15-5.47,1.51.18,3.13.28,4.66.26,2.24-.04,1.94,49.64,1.4,53.85-.61,4.85-1.9,14.77-7.45,16.92s-5.88-6.31-5.71-9.66c.53-10.26,4.7-20.54,9.06-29.71,6.39-13.43,13.73-28.76,28.33-34.8,12.86-5.31,22.99,3.64,19.01,17.35-19.09,65.69,17.04,41.19,19.22,23.62.64-5.14,6.4-9.03,12.06-8.03,17.36,3.08-3.7,46.54-33.99,45.22-32.85-1.43,12.03-76.68-14.46-71.92-5.58,1-9.27,8.11-11.98,12.89-5.04,8.89-8.34,18.93-11.3,28.67-.62,2.04-1.23,4.08-1.67,6.16-.45,2.08-.74,4.19-1.2,6.23-.44,2.05-1.08,4.03-1.9,5.97-.44.96-.98,1.9-1.74,2.82-1.67,2.04-5.41,3.93-7.62,1.48-2.59-2.86-1.43-11.83-1.05-15.33.59-5.51,1.27-11.01,1.88-16.51.62-5.55,1.25-11.1,1.95-16.64.27-2.17.52-4.34.8-6.51.43-3.34.84-6.69,1.35-10.02.11-.69.21-1.38.32-2.06,1.51.2,3.14.27,4.66.26.26,3.96.29,8.13-2.73,11.12-4.07,4.03-9.7,3.73-14.76,2.03-4.42-1.49-10.52-3.77-13.99-7-1.3-1.2-2.02-2.98-2.82-4.52Z" style="fill:#fff; stroke-width:0px;"/><path d="M437.36,130.45s7.97-4.5,18.02-6.12l-3.21,11.12s-8.87-1.09-18.6,5.76l3.79-10.76Z" style="fill:#000; mix-blend-mode:multiply; opacity:.5; stroke-width:0px;"/><path d="M585.12,173.4s6.02-4.37,9.01-8.83c.87-1.3-9.58,19.3-9.58,19.3-.18-3.18.03-5.39.56-10.47Z" style="fill:#000; mix-blend-mode:multiply; opacity:.5; stroke-width:0px;"/><path d="M544.62,201.63l12.41-7.66c1.17,1.66,3.05,4.89,3.05,4.89l-13.7,6.25c-.27-.47-1.76-3.48-1.76-3.48Z" style="fill:#000; mix-blend-mode:multiply; opacity:.5; stroke-width:0px;"/><path d="M.55,167.33c-.01.05-.02.11-.03.16,0-.03.01-.06.01-.08,0-.03.01-.05.02-.08Z" style="fill:#ffca37; stroke-width:0px;"/><path d="M139.47,237.25h0l-55.79,32.21s-.04.03-.07.04c-.21.12-.43.24-.64.36-.01,0-.03.01-.04.02-.22.12-.44.23-.66.34-.23.11-.45.23-.68.33-.21.1-.42.19-.62.28-.08.04-.16.07-.25.11-.17.07-.34.15-.51.21-.23.09-.47.18-.7.27-.23.09-.47.17-.71.25-.21.08-.43.15-.65.21-.04.01-.08.03-.12.04-.18.06-.36.11-.54.16-.07.02-.14.04-.21.06-.21.06-.42.12-.63.17-.72.19-1.44.34-2.18.47-.18.03-.37.06-.55.09-.28.04-.55.08-.83.11-.27.03-.55.06-.83.09-1.66-3.6-2.56-7.57-2.56-11.67v-64.42h0l62.76,36.23s.03.02.04.03c0,0,0,0,.01,0,4.29,2.45,9.56,2.45,13.85-.01l-6.94,4.01h0Z" style="fill:#0d7490; stroke-width:0px;"/><path d="M209.2,35.95h0l-13.9-8.03c5.06,2.93,8.98,7.32,11.34,12.46,1.66,3.6,2.56,7.57,2.56,11.67v144.94l55.83-32.23c.27-.16.54-.32.8-.48.13-.08.26-.16.39-.25.42-.27.83-.55,1.23-.85.09-.07.19-.14.28-.21.25-.18.49-.37.73-.56.22-.17.43-.35.64-.53.14-.11.27-.23.4-.35.11-.1.23-.2.34-.31.23-.2.45-.41.66-.62.11-.11.21-.21.32-.32.21-.21.42-.43.63-.66.21-.22.41-.45.61-.67.03-.04.07-.08.1-.11.13-.16.27-.32.4-.47.73-.88,1.41-1.81,2.02-2.78.13-.21.26-.41.39-.62.31-.52.61-1.05.89-1.6.13-.26.26-.52.39-.79.92-1.93,1.62-3.98,2.07-6.09.03-.12.05-.24.08-.36.13-.63.23-1.27.32-1.92.03-.25.06-.49.09-.74,0-.03,0-.07.01-.1.03-.28.05-.56.07-.83,0-.02,0-.04,0-.06.02-.29.03-.59.04-.88.01-.32.02-.63.02-.95v-48.31c0-9.97-5.32-19.17-13.95-24.16l-55.78-32.21Z" style="fill:#12b981; stroke-width:0px;"/><path d="M69.73,277.51h0s-55.79-32.21-55.79-32.21c-8.63-4.98-13.95-14.19-13.95-24.16v-48.31c0-.22,0-.44,0-.65,0-.05,0-.1,0-.15v-.04s0-.02,0-.03c0-.02,0-.04,0-.07,0-.14,0-.28.02-.41,0-.02,0-.03,0-.05,0-.14.01-.29.02-.43.01-.18.03-.37.04-.56.01-.13.02-.26.04-.4.03-.31.06-.61.11-.91.02-.13.04-.26.06-.39.02-.15.04-.3.07-.45.02-.14.04-.27.07-.4.01-.06.02-.12.03-.18.01-.07.03-.15.04-.22,0-.05.02-.11.03-.16.02-.08.03-.15.05-.23.08-.37.16-.74.26-1.12.03-.1.05-.19.08-.29.02-.09.04-.17.07-.26.03-.11.06-.22.09-.33.04-.15.09-.29.13-.44.04-.13.08-.25.12-.38.03-.1.06-.2.1-.29.02-.07.04-.14.07-.21.04-.14.09-.28.15-.42s.1-.28.15-.42c.11-.28.22-.56.33-.84.06-.14.11-.28.18-.42.15-.34.31-.69.47-1.02.03-.07.07-.14.1-.2.07-.14.13-.27.2-.4.07-.13.14-.27.21-.4.07-.13.14-.26.21-.39.07-.13.15-.27.23-.4.04-.07.08-.13.11-.2.04-.06.07-.12.11-.18.04-.08.09-.15.14-.23.07-.12.14-.23.21-.35.12-.2.25-.39.38-.58.08-.12.16-.24.24-.36.04-.06.08-.12.12-.17.04-.06.08-.11.12-.16.01-.02.02-.03.03-.05.09-.12.18-.25.26-.37.07-.09.13-.18.2-.27.11-.16.23-.31.35-.46.03-.04.06-.08.09-.12.07-.08.13-.16.2-.24.03-.03.06-.07.08-.1.13-.16.26-.31.39-.46.06-.07.12-.14.19-.21.1-.11.2-.22.3-.33.07-.08.14-.16.21-.23.06-.06.11-.12.17-.18.05-.05.1-.1.15-.15.21-.22.42-.44.64-.65.11-.11.22-.21.33-.32.11-.1.22-.21.33-.31.11-.1.23-.2.34-.3.06-.05.11-.1.17-.15.29-.25.58-.49.88-.73.12-.1.24-.19.36-.28.02-.01.03-.03.05-.04.1-.08.2-.15.3-.23.37-.28.76-.55,1.14-.81.01,0,.02-.01.03-.02.21-.14.42-.27.62-.4.15-.1.31-.19.47-.29l.06-.04.08-.05.12-.07,55.97-32.31v144.94c0,4.1.9,8.07,2.56,11.67,2.36,5.13,6.26,9.5,11.3,12.44l-13.86-8Z" style="fill:#065985; stroke-width:0px;"/><path d="M209.2,52.05v64.42l-6.97-4.03-55.79-32.21s-.03-.01-.04-.02c-4.3-2.47-9.58-2.47-13.87,0l6.94-4.01h0s0,0,0,0l55.78-32.21s0,0,0,0c3.55-2.05,7.43-3.25,11.37-3.61,1.66,3.6,2.56,7.57,2.56,11.67Z" style="fill:#7de674; stroke-width:0px;"/><path d="M195.29,27.92s-.03-.02-.04-.03L153.41,3.74c-8.63-4.98-19.26-4.98-27.89,0l-55.79,32.21L13.95,68.15C5.32,73.14,0,82.34,0,92.31v80.53c0-.22,0-.44,0-.65,0-.05,0-.1,0-.15v-.04s0-.05,0-.08c0-.03,0-.06,0-.09,0-.11.01-.22.02-.33v-.03c0-.15.02-.3.03-.45.01-.18.03-.37.04-.56.01-.13.02-.26.04-.4.03-.31.06-.61.11-.91.02-.13.04-.26.06-.39.02-.15.04-.3.07-.45.02-.14.04-.27.07-.4.01-.06.02-.12.03-.18.01-.07.03-.15.04-.22,0-.03.01-.06.01-.08,0-.03.01-.05.02-.08.02-.08.03-.15.05-.23.08-.37.16-.74.26-1.12.03-.1.05-.19.08-.29.02-.09.04-.17.07-.26.03-.11.06-.22.09-.33.04-.15.09-.29.13-.44.04-.13.08-.25.12-.38.03-.1.06-.2.1-.29.02-.07.04-.14.07-.21.04-.14.09-.28.15-.42s.1-.28.15-.42c.11-.28.22-.56.33-.84.06-.14.11-.28.18-.42.15-.34.31-.69.47-1.02.03-.07.07-.14.1-.2.06-.14.13-.27.2-.4.07-.13.14-.27.21-.4.07-.13.14-.26.21-.39.07-.13.15-.27.23-.4.04-.07.08-.13.11-.2.03-.06.07-.12.11-.18.04-.08.09-.15.14-.23.07-.12.14-.23.21-.35.12-.2.25-.39.38-.58.08-.12.16-.24.24-.36.04-.06.08-.12.12-.17.04-.06.08-.11.12-.16.01-.02.02-.03.03-.05.08-.12.17-.25.26-.37.07-.09.13-.18.2-.27.11-.16.23-.31.35-.46.03-.04.06-.08.09-.12.07-.08.13-.16.2-.24.03-.03.06-.07.08-.1.13-.16.26-.31.39-.46.06-.07.12-.14.19-.21.1-.11.2-.22.3-.33.07-.08.14-.16.21-.23.06-.06.11-.12.17-.18.05-.05.1-.1.15-.15.21-.22.42-.44.64-.65.11-.11.22-.21.33-.32.11-.1.22-.21.33-.31.11-.1.23-.2.34-.3.06-.05.11-.1.17-.15.29-.25.58-.49.88-.73.12-.1.24-.19.36-.28.02-.01.03-.03.05-.04.1-.08.2-.15.3-.23.37-.28.76-.55,1.14-.81.01,0,.02-.01.03-.02.21-.14.42-.27.62-.4.15-.1.31-.19.47-.29l.06-.04.08-.05.12-.07,55.97-32.31h0s6.97-4.03,6.97-4.03l55.79-32.21s.03-.01.04-.02l6.94-4.01h0s0,0,0,0l55.78-32.21s0,0,0,0c3.55-2.05,7.43-3.25,11.37-3.61-2.37-5.14-6.28-9.53-11.34-12.46Z" style="fill:#bff164; stroke-width:0px;"/><path d="M278.93,140.62v80.52c0,9.97-5.32,19.17-13.95,24.16l-55.78,32.21h0s-55.79,32.21-55.79,32.21c-8.63,4.98-19.26,4.98-27.89,0l-41.84-24.15s-.06-.03-.09-.05c-5.04-2.93-8.94-7.31-11.3-12.44.28-.03.55-.05.83-.09.28-.03.55-.07.83-.11.18-.03.37-.06.55-.09.73-.13,1.46-.28,2.18-.47.21-.05.42-.11.63-.17.07-.02.14-.04.21-.06.18-.05.36-.1.54-.16.04-.01.08-.02.12-.04.22-.07.43-.14.65-.21.24-.08.47-.16.71-.25.23-.09.47-.18.7-.27.17-.07.34-.14.51-.21.08-.03.16-.07.25-.11.21-.09.42-.19.62-.28.23-.11.45-.22.68-.33.22-.11.44-.22.66-.34.01,0,.03-.01.04-.02.21-.12.43-.23.64-.36.02-.01.04-.02.07-.04l55.79-32.21h0s6.94-4.01,6.94-4.01l55.82-32.23,6.97-4.03,55.83-32.23c.27-.16.54-.32.8-.48.13-.08.26-.16.39-.25.42-.27.83-.55,1.23-.85.09-.07.19-.14.28-.21.25-.18.49-.37.73-.56.22-.17.43-.35.64-.53.14-.11.27-.23.4-.35.11-.1.23-.2.34-.31.23-.2.45-.41.66-.62.11-.11.21-.21.32-.32.21-.21.42-.43.63-.66.21-.22.41-.45.61-.67.03-.04.07-.08.1-.11.13-.16.27-.32.4-.47.73-.88,1.41-1.81,2.02-2.78.13-.21.26-.41.39-.62.31-.52.61-1.05.89-1.6.13-.26.26-.52.39-.79.92-1.93,1.62-3.98,2.07-6.09.03-.12.05-.24.08-.36.13-.63.23-1.27.32-1.92.03-.25.06-.49.09-.74,0-.03,0-.07.01-.1.03-.28.05-.56.07-.83,0-.02,0-.04,0-.06.02-.29.03-.59.04-.88.01-.32.02-.63.02-.95Z" style="fill:#0d9488; stroke-width:0px;"/></g></g></g></svg>