<svg xmlns="http://www.w3.org/2000/svg" xml:space="preserve" id="Layer_1" x="0" y="0" style="enable-background:new 0 0 1081.3 313.5" version="1.1" viewBox="0 0 1081.3 313.5"><style>.st1{fill:#fff}.st2{opacity:.5;enable-background:new}</style><g style="enable-background:new"><g id="b"><g id="c"><path d="M839.1 69.2c.7.4 5.2 1.8 5.8.6 3.1-6.5 2.3-13.7-1.3-19.8-4.2-7-30.6-16.8-48.3 2.1-35.2 37.5 82.4 50.9 65.7 150.5-1.2 6.9-4.2 14.4-7.9 20.3-5.8 9.4-14.8 16.6-24.9 21.2-11 4.9-23.1 6.7-34.6 4.9-11.5-1.7-22.7-6.9-31.4-15.2-15.1-14.4-18.7-36.7-10.4-55.5 2.2-5 5.2-10.3 8.7-14.5 9-11 22.6-17.5 36-21.2 21-5.9 43.2-5.8 64.9-6.8 6.4-.3 12.8-.6 19.2-1.2 4.2-.4 9.1-.9 13.2-1.7.2 2.3-3.1 7.8-2.9 10.1-7.4-1.4-12-3.2-19.5-2.3-9.4 1.2-18.8 1.9-28.1 3.2-10.5 1.5-21.8 1.2-31.2 6.2-90.8 48.5-17 108 16.8 47.2 38.7-69.7-79-99.6-52.1-154.9 14.6-30.1 73.9-51.8 92.5-3.9 8.5 21.7-14.5 59.5-32.2 44.6-9.7-8-8.2-19.6 2-13.9z" class="st1"/><path d="M892.9 135.2c-22.4 75.6 13.9 69.8 21 16.5.3-2.1 5.1 7.1 5.2 7.2 2.2.9-7.7 25.8-8.3 27.1-2.9 6.4-7.5 14.3-13.7 18.1-4 2.4-9.5 3-14 1.7-11-3.1-14.1-14.4-13.5-24.8.6-9.2 9.5-36.2 10.3-45.4 1-.1 13.1-.8 13-.4zM884 116c10.7 0 14.2-27.4 24.9-20.2l3.3 3.3c4.4 4.8-.6 7.5-3.7 11.3-5.9 6.7-16.2 16.1-25.4 10.2l.9-4.6z" class="st1"/><path d="M922.7 136.6c9.8.2 5.9 11.6 5.4 17.8-.2 2.2.4 1.7 1.7-1.5 3.8-9.4 13-17.7 24-14.2 13.5 4.2 18.9 20.7 20.4 33.2.4 3.2 0 7.4 1.2 4.9 4.8-9.5 7.4-20.2 13.4-29.1 4.5-6.6 13.9-16.7 22.4-9.5 11.6 9.8 2 36 4.8 48.6.4 1.7.8 4.2 2.3 5.4 5.9 4.8 25.9-21.2 28.8-24.7 2.9-3.5 8.7.4 3.2 6.8-8.6 10.1-25.7 36.5-36.2 31.2-7.8-3.9-12.5-14.8-11-26.1 7-54.8-11.6-19.8-26.6 21.1-1 2.8-4.4 4.6-7.5 4.6-7.2.1-9.2-25.9-10.2-31.1-1.2-6.1-3.2-24.7-11.8-23.3-17.4 2.8-19.7 38.6-20.4 46.6-.3 3.4-.5 6.6-4 8.1-2.8 1.2-7.8 1.1-10.2-.9-2.8-2.2-1.5-5.5-.4-8.3 2.2-6 2.2-46 2-51.6-.2-5-2.1-5.6.2-7.3.5-.5 7.8-.6 8.5-.7z" class="st1"/><path d="M1043.2 172.2c9.3-12.9 39.9-54.1 19.7-51.5-11.8 1.5-12.1 22.4-11.4 32.1 1.3 17.8 14.8 32.6 20.3 49.1 40.8 122.3-177.1 147-63-.4 5.8-7.4 39-23.2 29.1-11.5-62.4 73.3-11.8 112.8 16.4 38.8 4.1-10.7 4.4-22.9 1.9-34-1.9-8.2-5.4-15.9-8.8-23.6-2.4-5.6-4-11.5-4.8-17.4-1.9-14.8-.1-38.8 18-43.2 23.2-5.6 24.3 10.4 16.2 28.9-5.9 13.3-18.2 24.1-27.3 36.3-.5-.3-4.6-3.8-6.3-3.6z" class="st1"/><path d="M830.4 145.3c-.1 0 0 0 0 0 1.7 3.3 3 6.6 4.1 10.1 3.1-1.1 11-3.6 22.2-4.4-1.1-2.9-2.3-5.6-3.7-8.3 0 0-1.9.2 0 0-.2 0-13 1-22.6 2.6z" class="st2"/><path d="M1055.4 168.1c-.9.9-4.1 5.2-6 7.5 1.2 2.9 2.5 5.7 3.6 8.6 1.2-1.7 3.8-4.8 6.9-6.9-1.4-2.6-2.7-5.2-3.8-7.8l-.7-1.4z" style="opacity:.5"/><path d="M378.9 107.8c8.5 5.4-10.8 17.5-18.6 17.8-26.5 1.2-24.5-21.3-24.5-22 1-18.7 76.2-79.5 119.6-64.8 15.4 5.2 13 27.5 10.6 40.7-1.8 9.6-3.9 19.3-6.3 28.8-2.5 9.4-5 18.9-7.9 28.4-4.8 15.9-19.5 76.9-46.2 99.4-8.5 7.2-47.9 27.2-68.3-10.9-3.1-5.7-3.6-12.3-3.4-18.3.2-6 1.5-11.8 3.6-17 5.6-14.1 18.3-23.8 30.4-32.2 14.6-10.1 29.2-17.6 43-23.9 6.9-3.1 13.6-5.8 20.1-8.2 6.5-2.4 12.7-4.5 18.7-6.1 3-.8 5.9-1.7 8.8-2 7.2-.7 14.6 0 21.3 2.7 7.3 2.9 27.2 12.9 20.4 17-7.5 4.6-13.8 9.2-17.4 12.5.6-1.1-10.4-3-9.6-3.9 3.2-3.5 9.3-11.2 5.8-15.8-2.8-3.7-8.5-5.1-12.9-5.6-4.7-.6-10.4-.8-14.9.7-5.7 1.8-11.6 4.2-17.7 6.9s-12.4 6-18.8 9.6c-12.8 7.2-26.3 15.9-39 26.4-3.1 2.7-6.5 5.2-9.1 8.4-36.9 46.1 10.2 59.4 33.1 30.7 5.2-6.5 31.5-55.4 37.1-75.2 2.6-9.3 6.2-18.3 8.9-27.3 3.6-12.2 7.2-24.8 7.9-37.6 1.8-34.3-78.4 25.4-80.6 27.5-3.8 3.8-15.5 13.7-7.3 12.8 1.8-.1 10.3-1.4 13.2.5z" class="st1"/><path d="M494.3 134.9c-2.1 1.7-9.4 12.4-11.5 14.9-36.9 42.9.5 60.4 16 11.4.9-3 16.1 3 15.2 8.7-6.5 42.2 30.2 22.7 39.1 4.8 1.2-2.4 3.9 2.9 2.5 5.8-2.8 5.7-9.7 19.5-26.4 23.8-4 1-31.9 5.2-32.9-22.5-.1-3.6-.1-7 .3-10.2s1-6.4 1.8-9.4 1.8-5.8 2.8-8.7c1.6-4.4 3.2-8.9 5.5-12.9 1.6-2.8 12.5-8 11.1 8.6 0 0-3.4 17-3.9 20.7-1.5 12.4-7.2 26.3-18.4 32.9-10.6 6.2-26.2 8.7-36-.4-5.6-5.2-8.9-13.1-7.3-20.7 1.6-7.7 5.3-14.7 9.6-21.2 2-3 4.1-5.8 6.3-8.6s4.4-5.5 6.8-8.1c2.4-2.6 14.7-13.2 16.6-14l2.8 5.1z" class="st1"/><path d="M540.6 190.8c-4.9-17-12.5-37-6.7-55 6.3-19.9 40.4-27.1 42.5-1 .8 15.3-8.2 32-15.8 44.5-3.1 4.4-6 10.5-10.2 12.4-3 1.1-6.2-1.1-5.9-4.9.2-2.1 1.2-4.3 2.2-6.3 6.1-11.9 16.6-28.9 17.3-42.3-.1-8.3-9.2-12.2-14.1-4.8-6.8 11.1-5.1 25.3-2.8 37.7 1.7 9.2 8.1 17 11.8 25.2 57.7 128.7-107.2 130-85.4 59.9 7.7-24.7 31.3-39.6 52.9-51.8 8-4.9 15.4-10.3 23.3-15.5 14.1-9.1 36.5-26.3 45.2-36.5 3-3.4.8.6-1.8 8.5-4.5 13.2-17.7 20.4-28.5 28-13.9 8.8-28.1 18.1-42.2 26.4-10.2 5.7-20.3 12.1-27.6 22-6.5 8.9-8.3 16.1-7 23.5 3.2 17.5 29 12 41 7.2 22.1-8.8 26.8-36.3 19.4-57.5-2.1-6.2-5.8-13.6-7.5-19.5l-.1-.2z" class="st1"/><path d="M602.5 150.7s-.4.6-.7 1.3c-19 56.9 14.8 50.5 21.6 12.3.6-3.3.9-6.4.8-9.2-.1-2.8-.5-5.2-1.3-7.1-.7-1.9-1.8-3.2-3-4.1-1.2-.9-2.4-1.3-3.3-1.5-.9-.2-1.4-.3-1.4-.3l-.2-2.8s.2 0 .4-.1c.3-.1.7-.2 1.3-.3 1.1-.2 2.9-.4 5.2.2 2.3.6 5 2.1 7.2 4.7 2.1 2.6 3.8 5.8 4.8 9.4 8.3 32.2-17.2 61.9-37.5 51.8-3.8-1.9-7-5.1-8.9-9-.4-.9-.8-1.8-1.1-2.6-.9-2.6-1.4-5.1-1.6-7.5-.2-2.4-.3-4.6-.1-6.8.2-4.3 1.1-8.1 2.1-11.6 2.1-6.9 5.3-12 8.2-15.2 1.4-1.6 2.8-2.7 3.8-3.4 1.1-.8 1.5-.9 1.6-.9l2.1 2.7z" class="st1"/><path d="M618.3 138.9s10 .7 11 1c3.9.9 8.4 2.7 12.5 2.4 3.6-.3 4.5-2.7 6.2-5.5 1.5.2 3.1.3 4.7.3 2.2 0 1.9 49.6 1.4 53.9-.6 4.9-1.9 14.8-7.5 16.9s-5.9-6.3-5.7-9.7c.5-10.3 4.7-20.5 9.1-29.7 6.4-13.4 13.7-28.8 28.3-34.8 12.9-5.3 23 3.6 19 17.4-19.1 65.7 17 41.2 19.2 23.6.6-5.1 6.4-9 12.1-8 17.4 3.1-3.7 46.5-34 45.2-32.8-1.4 12-76.7-14.5-71.9-5.6 1-9.3 8.1-12 12.9-5 8.9-8.3 18.9-11.3 28.7-.6 2-1.2 4.1-1.7 6.2-.5 2.1-.7 4.2-1.2 6.2-.4 2.1-1.1 4-1.9 6-.4 1-1 1.9-1.7 2.8-1.7 2-5.4 3.9-7.6 1.5-2.6-2.9-1.4-11.8-1-15.3.6-5.5 1.3-11 1.9-16.5.6-5.6 1.2-11.1 2-16.6.3-2.2.5-4.3.8-6.5.4-3.3.8-6.7 1.3-10l.3-2.1c1.5.2 3.1.3 4.7.3.3 4 .3 8.1-2.7 11.1-4.1 4-9.7 3.7-14.8 2-4.4-1.5-10.5-3.8-14-7-1.4-1.5-2.1-3.3-2.9-4.8z" class="st1"/><path d="M437.4 130.4s8-4.5 18-6.1l-3.2 11.1s-8.9-1.1-18.6 5.8l3.8-10.8zM585.1 173.4s6-4.4 9-8.8c.9-1.3-9.6 19.3-9.6 19.3-.1-3.2.1-5.4.6-10.5zM544.6 201.6 557 194c1.2 1.7 3 4.9 3 4.9l-13.7 6.2c-.2-.5-1.7-3.5-1.7-3.5z" class="st2"/><path d="M.6 167.3v.2c-.1 0-.1-.1 0-.2-.1.1-.1.1 0 0z" style="fill:#ffca37"/><path d="m139.5 237.2-55.8 32.2h-.1c-.2.1-.4.2-.6.4-.2.1-.4.2-.7.3-.2.1-.4.2-.7.3l-.6.3c-.1 0-.2.1-.2.1-.2.1-.3.1-.5.2s-.5.2-.7.3c-.2.1-.5.2-.7.2-.2.1-.4.1-.7.2h-.1c-.2.1-.4.1-.5.2-.1 0-.1 0-.2.1-.2.1-.4.1-.6.2-.7.2-1.4.3-2.2.5-.2 0-.4.1-.6.1-.3 0-.6.1-.8.1-.3 0-.6.1-.8.1-1.7-3.6-2.6-7.6-2.6-11.7V197l62.8 36.2c4.3 2.4 9.6 2.4 13.9 0l-7 4z" style="fill:#0d7490"/><path d="m209.2 36-13.9-8c5.1 2.9 9 7.3 11.3 12.5 1.7 3.6 2.6 7.6 2.6 11.7V197l55.8-32.2c.3-.2.5-.3.8-.5.1-.1.3-.2.4-.2l1.2-.9c.1-.1.2-.1.3-.2.2-.2.5-.4.7-.6.2-.2.4-.4.6-.5.1-.1.3-.2.4-.4l.3-.3c.2-.2.5-.4.7-.6l.3-.3c.2-.2.4-.4.6-.7.2-.2.4-.4.6-.7l.1-.1c.1-.2.3-.3.4-.5.7-.9 1.4-1.8 2-2.8.1-.2.3-.4.4-.6.3-.5.6-1.1.9-1.6.1-.3.3-.5.4-.8.9-1.9 1.6-4 2.1-6.1 0-.1 0-.2.1-.4.1-.6.2-1.3.3-1.9 0-.2.1-.5.1-.7v-.1c0-.3 0-.6.1-.8V92.3c0-10-5.3-19.2-14-24.2L209.2 36z" style="fill:#12b981"/><path d="m69.7 277.5-55.8-32.2C5.3 240.3 0 231.1 0 221.1v-51c0-.3.1-.6.1-.9 0-.1 0-.3.1-.4 0-.1 0-.3.1-.4 0-.1 0-.3.1-.4V167.4c0-.1 0-.1.1-.2.1-.4.2-.7.3-1.1 0-.1.1-.2.1-.3 0-.1 0-.2.1-.3 0-.1.1-.2.1-.3 0-.1.1-.3.1-.4 0-.1.1-.2.1-.4 0-.1.1-.2.1-.3 0-.1 0-.1.1-.2 0-.1.1-.3.1-.4s.1-.3.1-.4c.1-.3.2-.6.3-.8.1-.1.1-.3.2-.4.2-.3.3-.7.5-1 0-.1.1-.1.1-.2.1-.1.1-.3.2-.4.1-.1.1-.3.2-.4.1-.1.1-.3.2-.4s.2-.3.2-.4c0-.1.1-.1.1-.2s.1-.1.1-.2.1-.1.1-.2c.1-.1.1-.2.2-.4s.2-.4.4-.6c.1-.1.2-.2.2-.4 0-.1.1-.1.1-.2s.1-.1.1-.2v-.1c.1-.1.2-.2.3-.4.1-.1.1-.2.2-.3.1-.2.2-.3.3-.5l.1-.1c.1-.1.1-.2.2-.2l.1-.1c.1-.2.3-.3.4-.5l.2-.2.3-.3c.1-.1.1-.2.2-.2l.2-.2c.1-.1.1-.1.2-.1l.6-.6.3-.3.3-.3.3-.3c.1-.1.1-.1.2-.1.3-.2.6-.5.9-.7.1-.1.2-.2.4-.3h.1c.1-.1.2-.1.3-.2.4-.3.8-.6 1.1-.8.2-.1.4-.3.6-.4.1-.1.3-.2.5-.3h.1l.1-.1.1-.1 56-32.3v144.9c0 4.1.9 8.1 2.6 11.7 2.4 5.1 6.3 9.5 11.3 12.4l-13.7-8.2z" style="fill:#065985"/><path d="M209.2 52v64.4l-7-4-55.8-32.2c-4.3-2.5-9.6-2.5-13.9 0l6.9-4L195.3 44c3.6-2 7.4-3.2 11.4-3.6 1.6 3.6 2.5 7.6 2.5 11.6z" style="fill:#7de674"/><path d="M195.3 27.9 153.4 3.7c-8.6-5-19.3-5-27.9 0L69.7 36 13.9 68.2C5.3 73.1 0 82.3 0 92.3v80.5-2.6c0-.3.1-.6.1-.9 0-.1 0-.3.1-.4 0-.1 0-.3.1-.4 0-.1 0-.3.1-.4v-.6c0-.1 0-.1.1-.2.1-.4.2-.7.3-1.1 0-.1.1-.2.1-.3 0-.1 0-.2.1-.3 0-.1.1-.2.1-.3 0-.1.1-.3.1-.4 0-.1.1-.2.1-.4 0-.1.1-.2.1-.3 0-.1 0-.1.1-.2 0-.1.1-.3.1-.4s.1-.3.1-.4c.1-.3.2-.6.3-.8.1-.1.1-.3.2-.4.2-.3.3-.7.5-1 0-.1.1-.1.1-.2.1-.1.1-.3.2-.4.1-.1.1-.3.2-.4.1-.1.1-.3.2-.4s.2-.3.2-.4c0-.1.1-.1.1-.2s.1-.1.1-.2.1-.1.1-.2c.1-.1.1-.2.2-.4s.2-.4.4-.6c.1-.1.2-.2.2-.4 0-.1.1-.1.1-.2s.1-.1.1-.2v-.1c.1-.1.2-.2.3-.4.1-.1.1-.2.2-.3.1-.2.2-.3.3-.5l.1-.1c.1-.1.1-.2.2-.2l.1-.1c.1-.2.3-.3.4-.5l.2-.2.3-.3c.1-.1.1-.2.2-.2l.2-.2c.1-.1.1-.1.2-.1l.6-.6.3-.3.3-.3.3-.3c.1-.1.1-.1.2-.1.3-.2.6-.5.9-.7.1-.1.2-.2.4-.3h.1c.1-.1.2-.1.3-.2.4-.3.8-.6 1.1-.8.2-.1.4-.3.6-.4.1-.1.3-.2.5-.3h.1l.1-.1.1-.1 56-32.3 7-4 55.8-32.2 6.9-4 56-32.6c3.6-2 7.4-3.2 11.4-3.6-2.4-5.1-6.3-9.5-11.3-12.5z" style="fill:#bff164"/><path d="M278.9 140.6v80.5c0 10-5.3 19.2-14 24.2l-55.8 32.2-55.8 32.2c-8.6 5-19.3 5-27.9 0l-41.8-24.1h-.1c-5-2.9-8.9-7.3-11.3-12.4.3 0 .6 0 .8-.1.3 0 .6-.1.8-.1.2 0 .4-.1.6-.1.7-.1 1.5-.3 2.2-.5.2 0 .4-.1.6-.2.1 0 .1 0 .2-.1.2 0 .4-.1.5-.2h.1c.2-.1.4-.1.7-.2.2-.1.5-.2.7-.2.2-.1.5-.2.7-.3.2-.1.3-.1.5-.2.1 0 .2-.1.2-.1l.6-.3c.2-.1.4-.2.7-.3.2-.1.4-.2.7-.3.2-.1.4-.2.6-.4h.1l55.8-32.2 6.9-4 55.8-32.2 7-4 55.8-32.2c.3-.2.5-.3.8-.5.1-.1.3-.2.4-.2l1.2-.9c.1-.1.2-.1.3-.2.2-.2.5-.4.7-.6.2-.2.4-.4.6-.5.1-.1.3-.2.4-.4l.3-.3c.2-.2.5-.4.7-.6l.3-.3c.2-.2.4-.4.6-.7.2-.2.4-.4.6-.7l.1-.1c.1-.2.3-.3.4-.5.7-.9 1.4-1.8 2-2.8.1-.2.3-.4.4-.6.3-.5.6-1.1.9-1.6.1-.3.3-.5.4-.8.9-1.9 1.6-4 2.1-6.1 0-.1 0-.2.1-.4.1-.6.2-1.3.3-1.9 0-.2.1-.5.1-.7v-.1c0-.3 0-.6.1-.8v-1c.4-.4.4-.7.3-1.1z" style="fill:#0d9488"/></g></g></g></svg>