<svg xmlns="http://www.w3.org/2000/svg" xml:space="preserve" style="enable-background:new 0 0 512 512" viewBox="0 0 512 512"><path d="M29.1 273.3c0 .1 0 .2-.1.3v-.1c.1-.1.1-.1.1-.2z" style="fill:#ffca37"/><path d="m256 387.5-91.1 52.6s-.1 0-.1.1c-.3.2-.7.4-1 .6h-.1c-.4.2-.7.4-1.1.6-.4.2-.7.4-1.1.5-.3.2-.7.3-1 .5-.1.1-.3.1-.4.2-.3.1-.6.2-.8.4-.4.2-.8.3-1.1.4-.4.1-.8.3-1.2.4-.4.1-.7.2-1.1.4-.1 0-.1 0-.2.1l-.9.3c-.1 0-.2.1-.3.1-.3.1-.7.2-1 .3-1.2.3-2.4.6-3.6.8-.3.1-.6.1-.9.1-.5.1-.9.1-1.3.2s-.9.1-1.3.1c-2.7-5.9-4.2-12.4-4.2-19.1V321.8L244.7 381h.1c7 4 15.6 4 22.6 0l-11.4 6.5z" style="fill:#0d7490"/><path d="m369.9 58.7-22.7-13.1c8.3 4.8 14.7 12 18.5 20.4 2.7 5.9 4.2 12.4 4.2 19.1v236.7l91.2-52.7c.4-.3.9-.5 1.3-.8.2-.1.4-.3.6-.4.7-.4 1.4-.9 2-1.4.2-.1.3-.2.5-.3l1.2-.9c.4-.3.7-.6 1.1-.9.2-.2.4-.4.7-.6.2-.2.4-.3.6-.5.4-.3.7-.7 1.1-1 .2-.2.4-.3.5-.5.4-.4.7-.7 1-1.1.3-.4.7-.7 1-1.1l.2-.2c.2-.3.4-.5.6-.8 1.2-1.4 2.3-3 3.3-4.5.2-.3.4-.7.6-1 .5-.8 1-1.7 1.4-2.6.2-.4.4-.9.6-1.3 1.5-3.2 2.6-6.5 3.4-10 0-.2.1-.4.1-.6.2-1 .4-2.1.5-3.1.1-.4.1-.8.1-1.2v-.2c0-.5.1-.9.1-1.4v-.1c0-.5.1-1 .1-1.4v-80.4c0-16.3-8.7-31.3-22.8-39.5l-91-52.6z" style="fill:#12b981"/><path d="M142.1 453.3 51 400.7c-14.1-8.1-22.8-23.2-22.8-39.5V279.3c0-.3 0-.6.1-.9 0-.2 0-.4.1-.6.1-.5.1-1 .2-1.5 0-.2.1-.4.1-.6 0-.2.1-.5.1-.7 0-.2.1-.4.1-.7 0-.1 0-.2.1-.3 0-.1 0-.2.1-.4 0-.1 0-.2.1-.3 0-.1.1-.2.1-.4.1-.6.3-1.2.4-1.8 0-.2.1-.3.1-.5 0-.1.1-.3.1-.4 0-.2.1-.4.2-.5.1-.2.1-.5.2-.7.1-.2.1-.4.2-.6.1-.2.1-.3.2-.5 0-.1.1-.2.1-.3.1-.2.2-.5.2-.7.1-.2.2-.5.3-.7.2-.5.4-.9.5-1.4.1-.2.2-.5.3-.7.2-.6.5-1.1.8-1.7.1-.1.1-.2.2-.3.1-.2.2-.4.3-.7.1-.2.2-.4.3-.7l.3-.6c.1-.2.2-.4.4-.7.1-.1.1-.2.2-.3.1-.1.1-.2.2-.3.1-.1.2-.3.2-.4.1-.2.2-.4.4-.6l.6-.9c.1-.2.3-.4.4-.6.1-.1.1-.2.2-.3.1-.1.1-.2.2-.3 0 0 0-.1.1-.1.1-.2.3-.4.4-.6.1-.2.2-.3.3-.4.2-.3.4-.5.6-.8l.2-.2c.1-.1.2-.3.3-.4 0-.1.1-.1.1-.2.2-.3.4-.5.6-.8.1-.1.2-.2.3-.4.2-.2.3-.4.5-.5.1-.1.2-.3.3-.4l.3-.3c.1-.1.2-.2.2-.3.3-.4.7-.7 1.1-1.1.2-.2.4-.3.5-.5.2-.2.4-.3.5-.5.2-.2.4-.3.6-.5.1-.1.2-.2.3-.2.5-.4.9-.8 1.4-1.2.2-.2.4-.3.6-.5 0 0 .1 0 .1-.1.2-.1.3-.3.5-.4.6-.5 1.2-.9 1.9-1.3h.1c.3-.2.7-.4 1-.7.3-.2.5-.3.8-.5l.1-.1.1-.1.2-.1 91.4-52.8V427c0 6.7 1.5 13.2 4.2 19.1 3.9 8.4 10.2 15.5 18.5 20.3l-22.8-13.1z" style="fill:#065985"/><path d="M369.9 85v105.2l-11.4-6.6-91.1-52.6h-.1c-7-4-15.6-4-22.7 0l11.3-6.5L347 71.9c5.8-3.3 12.1-5.3 18.6-5.9 2.8 5.8 4.3 12.3 4.3 19z" style="fill:#7de674"/><path d="M347.2 45.6s-.1 0 0 0L278.8 6.1c-14.1-8.1-31.5-8.1-45.6 0l-91.1 52.6L51 111.3c-14.1 8.1-22.8 23.2-22.8 39.5v131.5-3c0-.3 0-.6.1-.9 0-.2 0-.4.1-.6.1-.5.1-1 .2-1.5 0-.2.1-.4.1-.6 0-.2.1-.5.1-.7 0-.2.1-.4.1-.7 0-.1 0-.2.1-.3 0-.1 0-.2.1-.4v-.2c0-.1.1-.2.1-.4.1-.6.3-1.2.4-1.8 0-.2.1-.3.1-.5 0-.1.1-.3.1-.4 0-.2.1-.4.2-.5.1-.2.1-.5.2-.7.1-.2.1-.4.2-.6.1-.2.1-.3.2-.5 0-.1.1-.2.1-.3.1-.2.2-.5.2-.7.1-.2.2-.5.3-.7.2-.5.4-.9.5-1.4.1-.2.2-.5.3-.7.2-.6.5-1.1.8-1.7.1-.1.1-.2.2-.3.1-.2.2-.4.3-.7.1-.2.2-.4.3-.7l.3-.6c.1-.2.2-.4.4-.7.1-.1.1-.2.2-.3.1-.1.1-.2.2-.3.1-.1.2-.3.2-.4.1-.2.2-.4.4-.6l.6-.9c.1-.2.3-.4.4-.6.1-.1.1-.2.2-.3.1-.1.1-.2.2-.3 0 0 0-.1.1-.1.1-.2.3-.4.4-.6.1-.2.2-.3.3-.4.2-.3.4-.5.6-.8l.2-.2c.1-.1.2-.3.3-.4 0-.1.1-.1.1-.2.2-.3.4-.5.6-.8.1-.1.2-.2.3-.4.2-.2.3-.4.5-.5.1-.1.2-.3.3-.4l.3-.3c.1-.1.2-.2.2-.3.3-.4.7-.7 1.1-1.1.2-.2.4-.3.5-.5.2-.2.4-.3.5-.5.2-.2.4-.3.6-.5.1-.1.2-.2.3-.2.5-.4.9-.8 1.4-1.2.2-.2.4-.3.6-.5 0 0 .1 0 .1-.1.2-.1.3-.3.5-.4.6-.5 1.2-.9 1.9-1.3h.1c.3-.2.7-.4 1-.7.3-.2.5-.3.8-.5l.1-.1.1-.1.2-.1 91.4-52.8 11.4-6.6 91.1-52.6h.1l11.3-6.5 91.1-52.6c5.8-3.3 12.1-5.3 18.6-5.9-3.8-8-10.2-15.2-18.5-20z" style="fill:#bff164"/><path d="M483.8 229.7v131.5c0 16.3-8.7 31.3-22.8 39.5l-91.1 52.6-91.1 52.6c-14.1 8.1-31.5 8.1-45.6 0l-68.3-39.5-.1-.1c-8.2-4.8-14.6-11.9-18.5-20.3.5 0 .9-.1 1.3-.1.5-.1.9-.1 1.3-.2.3 0 .6-.1.9-.1 1.2-.2 2.4-.5 3.6-.8.3-.1.7-.2 1-.3.1 0 .2-.1.3-.1l.9-.3c.1 0 .1 0 .2-.1.4-.1.7-.2 1.1-.4.4-.1.8-.3 1.2-.4.4-.1.8-.3 1.1-.4.3-.1.6-.2.8-.4.1-.1.3-.1.4-.2.3-.2.7-.3 1-.5.4-.2.7-.4 1.1-.5.4-.2.7-.4 1.1-.6h.1c.4-.2.7-.4 1-.6 0 0 .1 0 .1-.1l91.1-52.6 11.3-6.5 91.2-52.6 11.4-6.6 91.2-52.7c.4-.3.9-.5 1.3-.8.2-.1.4-.3.6-.4.7-.4 1.4-.9 2-1.4.2-.1.3-.2.5-.3l1.2-.9c.4-.3.7-.6 1.1-.9.2-.2.4-.4.7-.6.2-.2.4-.3.6-.5.4-.3.7-.7 1.1-1 .2-.2.4-.3.5-.5.4-.4.7-.7 1-1.1.3-.4.7-.7 1-1.1l.2-.2c.2-.3.4-.5.6-.8 1.2-1.4 2.3-3 3.3-4.5.2-.3.4-.7.6-1 .5-.8 1-1.7 1.4-2.6.2-.4.4-.9.6-1.3 1.5-3.2 2.6-6.5 3.4-10 0-.2.1-.4.1-.6.2-1 .4-2.1.5-3.1.1-.4.1-.8.1-1.2v-.2c0-.5.1-.9.1-1.4v-.1c0-.5.1-1 .1-1.4.2-.3.2-.8.2-1.3z" style="fill:#0d9488"/></svg>