<?xml version="1.0" encoding="UTF-8"?>
<svg id="b" data-name="Layer 2" xmlns="http://www.w3.org/2000/svg" viewBox="0 0 418 463.26">
  <g id="c" data-name="Layer 1">
    <g>
      <path d="M376.2,158.96v145.07c0,.26,0,.51,0,.77-.03,1.53-.14,3.05-.33,4.54-.03.26-.07.52-.11.77-.04.29-.08.57-.13.86-.06.38-.13.75-.21,1.13-.07.37-.14.73-.23,1.09-.01.03-.01.06-.02.08-.06.29-.13.57-.2.85-.03.13-.06.25-.09.37-.08.3-.16.59-.24.88-.02.08-.04.15-.06.22-.09.29-.17.58-.26.86-.02.06-.04.12-.06.19-.09.3-.19.6-.29.9-.08.21-.15.43-.23.63-.07.22-.15.43-.24.64-.13.36-.26.71-.41,1.05-.1.26-.21.51-.32.76-.1.25-.21.5-.32.74-.09.19-.18.38-.27.57-.1.21-.2.43-.31.64-.09.19-.18.37-.28.55-.43.84-.89,1.66-1.38,2.47-.09.17-.19.32-.29.48-.12.2-.24.39-.37.58-.1.16-.2.32-.3.47-.15.23-.31.45-.46.68-.18.26-.37.53-.56.79-.01.02-.03.03-.04.05-.16.22-.31.43-.47.64-.04.05-.08.1-.12.14-.06.09-.13.18-.2.27-.18.24-.37.47-.56.71-.27.32-.54.65-.82.97-.22.26-.44.51-.67.76-.26.28-.52.56-.78.84-.26.27-.53.55-.8.81-.54.54-1.1,1.06-1.67,1.56-.58.51-1.16,1-1.77,1.47-.3.24-.6.48-.91.7-.02.02-.03.03-.05.04-.27.21-.54.4-.82.6-.04.03-.09.06-.13.08-.29.21-.59.42-.89.62-.32.21-.65.42-.98.63-.21.13-.42.26-.64.39l11.41-6.58-138.01,79.68c-.22.12-.45.24-.67.35-.34.19-.69.37-1.03.54-.32.16-.64.31-.96.46-.06.03-.12.06-.19.08-.04.02-.08.04-.12.06-.25.12-.51.24-.77.34-.02.01-.04.02-.06.03-.36.15-.71.3-1.07.44-.71.28-1.43.55-2.15.79-.73.24-1.46.46-2.19.67-.34.09-.68.18-1.02.26-.36.09-.72.18-1.09.26-.33.07-.67.14-1.01.2-.16.04-.33.07-.49.1-.22.04-.44.08-.66.11-.12.02-.24.04-.35.06-.21.03-.43.06-.64.09-.13.02-.25.04-.38.06-.15.02-.31.04-.47.05-.04.01-.08.01-.12.02-.06.01-.12.01-.18.02-.21.03-.42.05-.62.06-.23.03-.46.05-.68.06-.22.03-.45.04-.67.05-.45.04-.9.06-1.36.07-.22,0-.44.02-.67.02h-.68c-.22.01-.45,0-.67,0-.23-.01-.46-.01-.68-.02-.22-.01-.45-.02-.68-.03-.22,0-.45-.02-.67-.04-.45-.02-.9-.06-1.35-.11-.39-.03-.78-.07-1.17-.13-.08-.01-.16-.02-.25-.03h-.03c-.19-.02-.38-.05-.57-.08-.33-.04-.67-.1-1-.16-.34-.06-.67-.12-1.01-.18-.23-.05-.45-.1-.68-.15-.19-.03-.38-.07-.57-.12-.01,0-.04-.01-.05-.01-.23-.06-.46-.11-.69-.17-.14-.03-.29-.07-.44-.11-.15-.04-.29-.07-.44-.12-.34-.08-.68-.18-1.01-.29-.04-.01-.09-.02-.13-.03-.18-.06-.37-.12-.56-.18-.65-.2-1.3-.43-1.94-.67h-.01c-.27-.1-.53-.2-.8-.31-.24-.1-.48-.19-.72-.29-1.22-.51-2.41-1.08-3.58-1.7-.2-.11-.41-.22-.6-.33-.2-.11-.4-.22-.6-.34l-14.42-8.32-6.51-3.76-104.47-60.31c-.07-.05-.15-.09-.23-.14-.02,0-.05-.03-.08-.04-.61-.36-1.21-.74-1.8-1.13-.22-.14-.43-.29-.65-.43-.02-.02-.05-.05-.09-.07-.21-.15-.43-.3-.65-.45-.18-.14-.37-.28-.56-.41-.55-.42-1.09-.84-1.62-1.28-.08-.06-.16-.13-.24-.2-.27-.22-.54-.45-.8-.69-.18-.15-.35-.3-.51-.45-.14-.12-.27-.24-.4-.36-.53-.5-1.05-1.02-1.56-1.55-.07-.07-.14-.14-.21-.21-.09-.09-.18-.19-.26-.28-.11-.12-.23-.24-.34-.37-.28-.3-.56-.61-.82-.93-.22-.25-.42-.49-.63-.75-.03-.03-.06-.06-.08-.1-.27-.33-.54-.67-.8-1.01-.14-.18-.27-.36-.4-.54-.2-.26-.39-.53-.58-.8,0-.01-.01-.02-.02-.03-.19-.27-.38-.54-.56-.81-.25-.37-.49-.74-.72-1.13-.12-.18-.23-.38-.35-.57-.46-.77-.9-1.55-1.31-2.35-.08-.17-.16-.33-.24-.49-.42-.85-.82-1.71-1.18-2.59-.11-.25-.21-.51-.32-.78-.03-.06-.06-.14-.08-.22-.11-.28-.22-.57-.32-.86-.07-.19-.14-.39-.21-.59-.01-.03-.02-.05-.03-.09-.09-.23-.16-.48-.24-.72-.07-.2-.13-.4-.19-.6-.06-.2-.13-.41-.18-.62-.06-.17-.1-.34-.15-.51-.07-.25-.13-.5-.2-.75-.04-.19-.09-.37-.13-.55-.07-.28-.13-.56-.19-.84-.01,0-.01-.01-.01-.02-.06-.28-.12-.57-.17-.86-.06-.25-.11-.51-.15-.77-.06-.32-.11-.65-.16-.97-.03-.23-.06-.45-.1-.68-.19-1.39-.3-2.8-.35-4.22-.02-.39-.03-.78-.03-1.17,0-.07.01-.15.01-.22h-.01v-144.8c.01-.07,0-.14.01-.21,0-.35,0-.69.01-1.04.01-.38.03-.77.06-1.16,0-.09.01-.19.01-.28.02-.35.05-.69.08-1.04.04-.41.08-.82.13-1.24.05-.4.1-.8.16-1.2.06-.4.13-.8.2-1.21.11-.59.23-1.19.36-1.78.07-.3.14-.59.21-.88h0c.07-.3.15-.59.23-.88.1-.39.21-.78.33-1.17.11-.38.24-.76.37-1.14.12-.38.25-.76.39-1.14s.28-.75.43-1.12c0-.01.01-.02.01-.03.12-.29.24-.57.36-.86.05-.11.1-.23.15-.35.31-.72.65-1.42,1-2.12.14-.27.28-.54.42-.81h0c.09-.16.17-.32.26-.47.14-.26.28-.52.43-.77.19-.34.39-.68.6-1.01.2-.32.4-.64.61-.96.19-.29.39-.59.59-.87.12-.18.24-.35.36-.53.3-.42.61-.83.92-1.24.21-.27.42-.54.64-.81.38-.46.77-.92,1.17-1.38.26-.3.53-.59.81-.88.27-.3.55-.59.83-.87.14-.15.29-.29.43-.43.15-.14.29-.28.44-.42.28-.28.58-.55.87-.81.16-.14.32-.28.47-.41.46-.4.93-.79,1.41-1.17.31-.26.63-.51.96-.75.33-.24.65-.49.99-.72.17-.12.34-.24.51-.35.84-.58,1.71-1.13,2.61-1.64.02-.02.05-.04.07-.05l125.48-72.45s.07-.04.11-.06c.86-.49,1.74-.95,2.62-1.37.18-.09.37-.18.55-.26.38-.18.75-.34,1.13-.5.37-.16.74-.32,1.12-.46.19-.08.38-.15.57-.22.38-.15.76-.28,1.15-.41.19-.07.39-.14.59-.2.38-.13.76-.25,1.14-.36.19-.05.38-.11.58-.16.23-.07.45-.13.68-.19.45-.12.91-.23,1.36-.33.23-.05.46-.1.69-.15.65-.14,1.31-.26,1.98-.36.34-.06.68-.1,1.01-.15.51-.07,1.03-.13,1.54-.18.21-.01.42-.03.64-.05.35-.03.7-.05,1.05-.07.38-.02.75-.04,1.13-.05.14,0,.28-.01.42-.01h.14c.23-.01.46-.01.69-.01s.46.01.69.01c.04,0,.08,0,.12.01.18,0,.35,0,.53.01.26.01.52.02.78.03.17.01.35.02.53.04.65.03,1.3.09,1.95.17.12.01.25.02.38.04.3.04.61.07.91.12.44.06.87.13,1.3.21.33.05.66.12.99.19.1.01.2.03.29.06.31.06.61.12.91.19.13.03.25.06.38.09.29.07.59.15.89.23.39.1.78.21,1.16.32.37.11.74.23,1.11.35.02,0,.03.01.05.02.38.12.77.25,1.15.39.38.14.76.28,1.14.43.37.15.74.3,1.11.46t0,.01c.09.03.18.07.26.11.3.12.59.25.88.39.37.17.74.35,1.11.54.38.18.75.38,1.11.58.37.19.73.39,1.09.6l14.43,8.33,9.84,5.68,101.13,58.39s.06.04.09.05c.06.04.11.07.17.1l.14.08.05.04c.21.12.42.24.62.37.24.15.48.3.72.45.02.02.05.03.07.05.2.13.39.25.58.38.38.26.76.52,1.13.79.19.14.37.27.55.41.38.27.73.55,1.09.84.17.14.34.27.51.41.16.14.32.28.49.42.02.01.03.03.05.04.35.3.69.6,1.03.9.16.16.33.31.49.47.17.15.33.31.49.47.17.16.33.32.49.47.32.33.63.65.94.98.15.17.3.33.45.5.3.34.6.68.89,1.02.17.21.35.41.52.62.07.1.15.19.23.29.17.22.34.43.5.65.03.03.06.07.08.1.25.33.49.65.73.99.13.18.26.37.39.55.09.13.18.26.26.4.15.2.28.4.41.61.13.2.27.41.4.62.25.41.5.81.74,1.23.11.2.22.39.33.58.11.2.21.39.32.59.02.04.04.09.07.13.18.35.37.7.54,1.05.13.27.25.53.38.79.16.34.31.69.47,1.04.09.2.17.4.25.6.19.44.37.89.54,1.34.13.34.25.69.37,1.04.13.35.24.7.35,1.05.06.16.1.32.15.48.07.22.14.43.2.65.2.7.39,1.41.55,2.13.04.17.08.34.12.52.05.22.09.44.14.67.05.24.09.48.14.73.03.2.07.41.1.62.03.16.06.32.08.49.04.2.07.4.09.6.05.32.09.63.13.95.02.23.05.46.07.69.03.3.06.6.08.91.04.55.08,1.1.1,1.66.01.21.01.42.02.64,0,.22,0,.45,0,.68Z" style="fill: #2a2b2a; stroke-width: 0px;"/>
      <path d="M281.92,32.4c-.23-.13-.46-.26-.68-.38-4.89-2.71-10.04-4.73-15.33-6.04-1.32-.33-2.65-.62-3.99-.86-.3-.05-.59-.1-.88-.15-.11-.02-.22-.04-.33-.06h-.04c-.39-.06-.79-.12-1.17-.17l-.21-.03s-.09,0-.13-.02c-.03,0-.06,0-.08-.01-.14-.02-.28-.04-.42-.05-.16-.03-.33-.04-.49-.06h-.01c-.31-.04-.62-.07-.93-.1-.06-.02-.11-.02-.16-.02-.06-.01-.13-.01-.19-.02-.05-.01-.09-.01-.14-.01-.38-.04-.75-.07-1.12-.1-.36-.03-.72-.05-1.08-.07-.06-.01-.13-.01-.19-.02-.32-.01-.63-.03-.95-.04-.06,0-.11-.01-.16-.01h-.16s0,0-.01-.01c-.46-.01-.93-.03-1.39-.03-.24-.01-.48-.01-.73-.01h-.04s-.07,0-.11.01c-.08-.01-.17,0-.25,0t-.02-.01c-.37.01-.74.01-1.1.02-.08,0-.17,0-.25.01-.49.01-.99.03-1.49.05-.06,0-.12,0-.18.01-.24.01-.48.03-.73.04-.02,0-.03,0-.04.01h-.05c-.4.02-.81.06-1.21.09h-.02c-.31.03-.62.06-.93.09-.11,0-.21.02-.32.03-.84.09-1.68.2-2.52.32-.33.05-.67.1-1,.15-.67.11-1.34.23-2.01.36-.33.07-.66.14-1,.21-.66.14-1.32.29-1.98.46-1.32.32-2.64.7-3.95,1.11-.65.21-1.3.43-1.94.66-3.55,1.26-7.02,2.86-10.36,4.78l-31.16,17.99s-.07.04-.11.06L62.7,123.03s-.05.03-.07.05l-31.3,18.06c-.38.22-.76.45-1.13.68-.07.03-.13.07-.19.11-.34.2-.67.41-.99.62-.07.04-.13.08-.2.12-.05.03-.1.07-.14.1-.33.21-.66.43-.99.64-.11.08-.21.15-.32.23-.22.14-.43.29-.65.44-.01,0-.03.02-.04.03-.13.09-.26.18-.39.28-.16.11-.32.22-.47.34-.19.13-.37.27-.56.4-.29.22-.57.43-.85.65-.21.16-.42.32-.63.49-.11.09-.21.17-.32.26-.15.12-.31.25-.46.38-.02.01-.04.02-.06.04-.04.03-.08.06-.12.1-.22.18-.43.36-.65.54h-.01c-.04.05-.08.08-.12.12h-.01c-.52.44-1.03.89-1.54,1.36-1.01.91-1.99,1.87-2.94,2.85-.47.49-.93.98-1.39,1.49-.05.06-.11.13-.17.19-.17.19-.34.38-.5.57h0c-.45.52-.89,1.04-1.32,1.56-.21.26-.43.53-.64.79-.24.31-.47.61-.7.92-.03.03-.05.06-.08.09-.03.04-.05.08-.08.12l-.02.02h-.01c-.04.06-.07.11-.11.16-.14.19-.29.38-.43.58,0,.01-.01.02-.02.03s-.03.04-.04.06c-.02.02-.03.04-.05.06-.01.02-.03.04-.04.06,0,.01-.02.02-.03.04-.01.01-.02.02-.02.03-.02.02-.03.04-.05.07-.01.02-.02.03-.04.05-.02.03-.05.07-.08.11h0c-.06.09-.12.17-.17.25-.02.02-.03.05-.05.07-.02.03-.05.06-.07.09-.06.08-.11.16-.17.25h-.01s-.04.07-.06.1h0c-.08.12-.15.23-.23.34-.14.2-.28.4-.41.61h-.01v.02h-.01c-.23.34-.45.69-.67,1.03-.09.14-.18.28-.26.43-.04.05-.07.1-.1.15-.03.04-.06.09-.08.13-.07.11-.14.22-.21.34-.01.01-.02.03-.03.04-.01,0-.01.02-.02.04-.04.06-.08.12-.12.19h0s-.01.03-.01.03c-.06.09-.11.18-.17.27-.11.19-.22.37-.32.55t-.01.01c-.04.07-.08.14-.12.22-.07.11-.13.22-.2.33-.1.18-.2.37-.31.55-.2.37-.4.74-.6,1.11h0s-.02.02-.02.04c-.09.16-.17.33-.26.5-.02.05-.04.09-.07.14h0s-.03.07-.05.1c-.01.02-.02.04-.03.06-.05.08-.09.16-.13.24-.01.03-.03.06-.03.09-.01.01-.02.02-.02.03-.04.07-.07.14-.11.21-.01.03-.02.05-.04.08-.01.03-.03.05-.04.08-.01,0-.01.02-.02.04h0s-.04.08-.05.12c-.04.06-.07.13-.11.2h0s-.03.08-.05.11c-.01.02-.03.05-.04.08-.02.05-.05.1-.07.15h0c-.05.1-.09.19-.13.28-.05.1-.1.2-.14.29-.07.15-.14.31-.21.46-.02.04-.04.08-.06.12,0,0-.01.01-.01.02h0c-.16.36-.31.7-.46,1.05-.04.08-.08.16-.11.25-.11.27-.23.54-.34.81-.03.07-.05.14-.09.22-.04.08-.07.16-.1.25,0,.03-.03.06-.04.1,0,.01-.01.02-.01.02,0,.01-.01.01-.01.02,0,.02,0,.04-.02.06-.09.24-.19.48-.28.73-.03.07-.06.14-.08.21-.13.32-.25.64-.36.97h-.01c-.45,1.28-.88,2.57-1.25,3.88-.02.08-.05.16-.07.24-.05.17-.1.33-.14.5-.03.08-.04.16-.06.25-.09.33-.18.66-.26.98h-.01c-.08.34-.16.67-.24,1-.05.21-.1.42-.14.63-.01.05-.02.09-.03.14-.02.08-.04.15-.05.23h0c-.04.22-.09.43-.13.65-.03.12-.05.24-.07.36h-.01l-.03.15c-.02.09-.03.18-.05.27h0c-.02.1-.04.19-.05.28-.01.06-.03.13-.04.19l-.02.12c-.02.11-.04.23-.06.34-.03.14-.05.28-.08.42-.07.42-.14.84-.2,1.27-.1.68-.2,1.37-.27,2.05-.08.68-.15,1.37-.21,2.06-.03.39-.06.78-.08,1.17-.03.33-.05.65-.06.97-.02.33-.03.65-.04.98-.02.51-.03,1.03-.03,1.55,0,.09,0,.18,0,.28v-48c0-1.05.03-2.09.08-3.14.09-1.88.27-3.75.54-5.61.07-.53.16-1.06.24-1.59.34-2.03.78-4.04,1.32-6.01.08-.33.18-.66.27-.99.19-.66.39-1.31.6-1.95.31-.97.65-1.93,1.01-2.88,1.92-5.08,4.49-9.89,7.64-14.29.4-.55.8-1.1,1.21-1.64.46-.6.94-1.21,1.43-1.79.31-.38.63-.76.95-1.12.34-.41.7-.82,1.07-1.21.32-.35.64-.71.97-1.05,1.1-1.15,2.25-2.27,3.44-3.34.16-.15.33-.29.49-.43.77-.68,1.55-1.34,2.36-1.98.72-.57,1.46-1.14,2.2-1.68.17-.12.34-.24.51-.36.4-.29.81-.57,1.22-.85,1.23-.84,2.5-1.63,3.81-2.38l5.22-3.02,5.23-3.02,62.69-36.19,62.7-36.2,5.23-3.02,5.22-3.02c1.31-.75,2.63-1.46,3.97-2.11.45-.22.9-.43,1.35-.63.19-.09.37-.17.56-.25.53-.24,1.07-.47,1.6-.69.32-.13.64-.26.96-.38.96-.38,1.92-.73,2.89-1.06.21-.07.41-.14.62-.2,1.52-.5,3.06-.94,4.61-1.31.46-.11.93-.22,1.4-.32.43-.1.86-.19,1.28-.27.67-.13,1.33-.25,1.99-.36.35-.06.69-.11,1.02-.16.33-.04.66-.09.99-.13.99-.13,1.99-.24,2.98-.32.03,0,.07,0,.1,0,.66-.05,1.33-.09,1.99-.13,1.35-.06,2.71-.08,4.06-.06.68.01,1.35.03,2.02.06h.01c1.01.06,2.03.13,3.03.23h.01c.67.06,1.34.14,2.01.23,6.53.84,12.94,2.72,19.01,5.63.5.24.99.49,1.48.74.93.47,1.85.97,2.76,1.5l10.45,6.03h0s31.12,17.97,31.12,17.97Z" style="fill: #2dc0e4; stroke-width: 0px;"/>
      <path d="M288.85,36.4c-15.69-9.02-36.15-7.04-53.67,5.21l-9.45,6.61h-.01l-.27.19s0-.01,0-.01c-.37-.16-.74-.31-1.11-.46-.38-.15-.76-.29-1.14-.43-.38-.14-.77-.27-1.15-.39-.02-.01-.03-.02-.05-.02-.37-.12-.74-.24-1.11-.35-.38-.11-.77-.22-1.16-.32-.3-.08-.6-.16-.89-.23-.13-.03-.25-.06-.38-.09-.3-.07-.6-.13-.91-.19-.09-.03-.19-.05-.29-.06-.33-.07-.66-.14-.99-.19-.43-.08-.86-.15-1.3-.21-.3-.05-.61-.08-.91-.12-.13-.02-.26-.03-.38-.04-.65-.08-1.3-.14-1.95-.17-.18-.02-.36-.03-.53-.04-.26,0-.52-.02-.78-.03-.18-.01-.35-.01-.53-.01-.04-.01-.08-.01-.12-.01-.23,0-.46-.01-.69-.01s-.46,0-.69.01h-.14c-.14,0-.28.01-.42.01-.38.01-.75.03-1.13.05-.35.02-.7.04-1.05.07-.22.02-.43.04-.64.05-.51.05-1.03.11-1.54.18-.33.05-.67.09-1.01.15-.67.1-1.33.22-1.98.36-.23.05-.46.1-.69.15-.45.1-.91.21-1.36.33-.23.06-.45.12-.68.19-.2.05-.39.11-.58.16-.38.11-.76.23-1.14.36-.2.06-.4.13-.59.2-.39.13-.77.26-1.15.41-.19.07-.38.14-.57.22-.38.14-.75.3-1.12.46-.38.16-.75.32-1.13.5-.18.08-.37.17-.55.26-.88.42-1.76.88-2.62,1.37l31.16-17.99c3.34-1.92,6.81-3.52,10.36-4.78.64-.23,1.29-.45,1.94-.66,1.31-.41,2.63-.79,3.95-1.11.66-.17,1.32-.32,1.98-.46.34-.07.67-.14,1-.21.67-.13,1.34-.25,2.01-.36.33-.05.67-.1,1-.15.84-.12,1.68-.23,2.52-.32.11-.01.21-.02.32-.03.31-.03.62-.06.93-.09h.02c.4-.04.8-.07,1.21-.09h.06s.03-.01.03-.01c.25-.01.49-.03.73-.04.06-.01.12-.01.18-.01.2,0,.4-.02.6-.03.3-.01.59-.02.89-.02.08-.01.17-.01.25-.01.36,0,.73,0,1.1-.02t.02.01c.08,0,.17-.01.25,0,.03-.01.06,0,.08,0,.01-.01.02-.01.03-.01h.04s.03,0,.04.01c.23-.01.46,0,.69,0,.46,0,.93.02,1.39.03.01.01.01,0,.01.01h.16s.1.01.16.01c.32.01.63.03.95.04.06.01.13.01.19.02.36.02.72.04,1.08.07.37.03.74.06,1.12.1.05,0,.09,0,.14.01.05,0,.09.01.14.01.01,0,.03,0,.05.01.05,0,.1,0,.16.02.3.02.61.06.92.09,0,0,.01,0,.01.01h.01c.16.02.33.03.49.06.12.01.24.03.36.05h.06s.05.01.08.01c.04.01.08.01.13.02l.21.03c.38.05.78.11,1.17.17h.04c.11.02.22.04.33.06.29.05.58.1.88.15,1.34.24,2.67.53,3.99.86,5.29,1.31,10.44,3.33,15.33,6.04.22.12.45.25.68.38.07.04.15.09.23.13l6.7,3.87Z" style="fill: #215d69; stroke-width: 0px;"/>
      <path d="M376.2,110.94v48.02c0-.23,0-.46,0-.68-.01-.22-.01-.43-.02-.64-.02-.56-.06-1.11-.1-1.66-.02-.31-.05-.61-.08-.91-.02-.23-.05-.46-.07-.69-.04-.32-.08-.63-.13-.95-.02-.2-.05-.4-.09-.6-.02-.17-.05-.33-.08-.49-.03-.21-.07-.42-.1-.62-.05-.25-.09-.49-.14-.73-.05-.23-.09-.45-.14-.67-.04-.18-.08-.35-.12-.52-.16-.72-.35-1.43-.55-2.13-.06-.22-.13-.43-.2-.65-.05-.16-.09-.32-.15-.48-.11-.35-.22-.7-.35-1.05-.12-.35-.24-.7-.37-1.04-.17-.45-.35-.9-.54-1.34-.08-.2-.16-.4-.25-.6-.16-.35-.31-.7-.47-1.04-.13-.26-.25-.52-.38-.79-.17-.35-.36-.7-.54-1.05-.03-.04-.05-.09-.07-.13-.11-.2-.21-.39-.32-.59-.11-.19-.22-.38-.33-.58-.24-.42-.49-.82-.74-1.23-.13-.21-.27-.42-.4-.62-.13-.21-.26-.41-.41-.61-.08-.14-.17-.27-.26-.4-.13-.18-.26-.37-.39-.55-.24-.34-.48-.66-.73-.99-.02-.03-.05-.07-.08-.1-.16-.22-.33-.43-.5-.65-.08-.1-.16-.19-.23-.29-.17-.21-.35-.41-.52-.62-.29-.34-.59-.68-.89-1.02-.15-.17-.3-.33-.45-.5-.31-.33-.62-.65-.94-.98-.16-.15-.32-.31-.49-.47-.16-.16-.32-.32-.49-.47-.16-.16-.33-.31-.49-.47-.34-.3-.68-.6-1.03-.9-.02,0-.03-.03-.05-.04-.17-.14-.33-.28-.49-.42-.17-.14-.34-.27-.51-.41-.36-.29-.71-.57-1.09-.84-.18-.14-.36-.27-.55-.41-.37-.27-.75-.53-1.13-.79-.19-.13-.38-.25-.58-.38-.02-.02-.05-.03-.07-.05-.24-.15-.48-.3-.72-.45-.2-.13-.41-.25-.62-.37l-.05-.04-.14-.08c-.06-.03-.11-.06-.17-.1-.03-.01-.06-.03-.09-.05l-101.13-58.39-9.84-5.68-14.43-8.33c-.36-.21-.72-.41-1.09-.6-.36-.2-.73-.4-1.11-.58-.37-.19-.74-.37-1.11-.54-.29-.14-.58-.27-.88-.39-.08-.04-.17-.08-.26-.11l.27-.19h.01l9.45-6.61c17.52-12.25,37.98-14.23,53.67-5.21l66.56,38.43.03.02.04.02c.37.22.75.44,1.12.67.39.25.78.5,1.16.76.29.19.57.39.85.59.19.13.38.27.56.41.56.41,1.1.82,1.63,1.26.22.18.43.36.65.54.74.62,1.46,1.28,2.16,1.96l.48.48c.32.32.63.65.94.98.3.33.61.66.9,1,.17.2.34.39.5.59.12.15.25.3.37.45.43.52.85,1.05,1.24,1.6.13.18.27.36.4.55.13.18.26.36.38.55.13.18.26.37.38.56.63.93,1.21,1.89,1.75,2.87.15.26.28.51.42.77.39.74.76,1.49,1.1,2.25l.36.81c.1.22.18.44.28.66l.15.39c.09.21.17.42.25.63.1.28.2.56.3.84.09.24.17.49.25.74.1.29.2.57.28.87.11.35.21.71.31,1.07.11.36.2.72.29,1.08.08.29.15.58.21.87.11.48.22.96.31,1.45.05.25.09.5.13.74.03.15.05.3.07.44.05.31.1.61.14.92.04.3.08.59.11.88.01.03.02.06.01.09.02.11.03.24.04.35.04.31.07.63.09.94.02.14.03.29.03.44.02.14.03.29.04.44.01.16.01.33.02.5.01.1.02.21.02.32v.22c.02.26.03.51.03.77s0,.51,0,.77Z" style="fill: #0e7490; stroke-width: 0px;"/>
      <path d="M62.49,388.37l-4.18-2.42-16.5-9.53-10.46-6.03c-19.4-11.19-31.35-31.89-31.35-54.3v-35.99s0-.04,0-.04v-76.82s0-.05,0-.08c.04-18.1,11.99-34.82,31.35-43.87l10.45-4.89.3-.14c-.05.42-.09.83-.13,1.24-.03.35-.06.69-.08,1.04,0,.09-.01.19-.01.28-.03.39-.05.78-.06,1.16-.01.35-.01.69-.01,1.04-.01.07,0,.14-.01.21v144.8h.01c0,.07-.01.15-.01.22v48.07c0,.5.01,1.02.04,1.52.01.36.02.72.05,1.08,0,.12.01.25.02.37.02.3.04.59.07.88.08.78.17,1.56.29,2.33.02.15.04.29.07.43.02.16.04.31.07.46.07.38.13.76.21,1.14.03.14.06.28.09.42.25,1.21.57,2.41.93,3.58.12.42.26.84.4,1.25.95,2.78,2.18,5.45,3.69,7.96.14.24.29.48.44.72.29.48.6.95.92,1.41.16.24.32.47.49.7,1.57,2.2,3.35,4.26,5.34,6.13.33.31.66.61,1,.91h0c.27.24.53.47.8.69.43.36.87.72,1.32,1.06.35.28.72.56,1.1.82,1.07.78,2.19,1.51,3.35,2.19Z" style="fill: #ffcb38; stroke-width: 0px;"/>
      <path d="M229.3,412.97l-11.42,6.59-19.33,11.17c-.3.17-.61.34-.91.51-.15.08-.29.16-.44.24-.27.15-.56.3-.84.45-.17.09-.33.17-.5.26-.37.19-.73.37-1.09.55-.28.13-.56.27-.84.4-.85.4-1.71.78-2.58,1.15-.12.05-.23.09-.35.14-.61.25-1.21.49-1.81.71-.36.14-.72.27-1.08.39-.29.11-.57.2-.85.3-.09.03-.17.06-.25.08-.28.1-.56.19-.85.28-.28.09-.57.18-.85.26-.33.11-.66.2-.99.29-.16.05-.32.09-.49.14-.16.04-.33.09-.49.13-.37.1-.74.19-1.11.29-.29.07-.57.14-.86.2-.02.01-.05.01-.07.02-.15.04-.31.07-.46.1-.16.04-.31.07-.47.11-.33.07-.66.14-.99.2-.22.05-.45.09-.68.13,0,0-.02.01-.03.01-.14.02-.27.05-.41.07-.34.06-.67.12-1.01.18-.63.1-1.25.19-1.88.27-.67.09-1.34.16-2.01.23-.31.04-.61.06-.92.09-.08,0-.15.01-.23.02-.63.05-1.25.09-1.88.12-.34.01-.67.02-1.01.04-.67.02-1.35.03-2.02.03-.12,0-.24.01-.36.01-.17-.01-.33-.01-.5-.01h-.15c-.34-.01-.68-.02-1.02-.02-.56-.02-1.11-.05-1.67-.08-.09-.01-.19-.01-.28-.01-.06-.01-.13-.02-.19-.02h-.03c-.2-.01-.4-.03-.61-.04-.08-.01-.17-.01-.25-.02-.18-.02-.36-.03-.54-.05-.51-.04-1.02-.09-1.52-.15-.04,0-.07-.01-.11-.01h-.03s-.09-.01-.13-.02c-.14-.02-.27-.03-.4-.05-.06,0-.13,0-.19-.02-.32-.04-.66-.09-.98-.13t-.02-.01h-.04s-.05-.01-.07-.01-.04,0-.06-.01c-.02,0-.05,0-.07-.01-.13-.02-.27-.04-.4-.06-.15-.02-.31-.05-.47-.07-.08-.02-.17-.03-.25-.05-.25-.04-.5-.08-.75-.12-.05-.01-.11-.02-.16-.03-.13-.02-.26-.05-.4-.08-.13-.02-.28-.05-.42-.07-.34-.07-.68-.14-1.01-.21-.18-.04-.37-.08-.55-.12-.32-.07-.63-.14-.95-.22-.1-.02-.19-.04-.28-.07-.15-.03-.31-.07-.46-.11-.3-.07-.6-.15-.9-.23-.33-.09-.66-.18-.99-.27-.33-.09-.66-.19-.98-.29-.33-.1-.65-.2-.97-.3-.33-.11-.66-.21-.98-.32-.33-.11-.65-.22-.97-.34-.33-.11-.65-.23-.97-.35-.3-.11-.61-.23-.91-.35-.06-.02-.12-.05-.18-.08-.28-.1-.56-.21-.83-.33-.63-.26-1.26-.53-1.89-.81-.63-.29-1.26-.58-1.88-.89-.16-.07-.31-.15-.46-.23-.16-.07-.31-.15-.46-.23-.32-.17-.64-.33-.96-.51-.3-.15-.6-.31-.89-.48l-.34-.19c-.19-.11-.38-.22-.57-.33l-5.17-2.98c15.68,9.05,36.13,7.1,53.66-5.11l9.54-6.67h.01l.51-.37h.01c.64.24,1.29.47,1.94.67.19.06.38.12.56.18.04.01.09.02.13.03.33.11.67.21,1.01.29.15.05.29.08.44.12.15.04.3.08.44.11.23.06.46.11.69.17.01,0,.04.01.05.01.19.05.38.09.57.12.23.05.45.1.68.15.34.06.67.12,1.01.18.33.06.67.12,1,.16.19.03.38.06.57.08h.03c.09.01.17.02.25.03.39.06.78.1,1.17.13.45.05.9.09,1.35.11.22.02.45.04.67.04.23.01.46.02.68.03.22,0,.45,0,.68.02.22,0,.45.01.67,0h.68c.23,0,.45-.01.67-.02.46-.01.91-.03,1.36-.07.22-.01.45-.02.67-.05.22-.01.45-.03.68-.06.2-.01.41-.03.62-.06.06,0,.12,0,.18-.02.04-.01.08-.01.12-.02.16-.01.32-.03.47-.05.13-.02.25-.04.38-.06.21-.03.43-.06.64-.09.11-.02.23-.04.35-.06.22-.03.44-.07.66-.11.16-.03.33-.06.49-.1.34-.06.68-.13,1.01-.2.37-.08.73-.17,1.09-.26.34-.08.68-.17,1.02-.26.73-.21,1.46-.43,2.19-.67.72-.24,1.44-.51,2.15-.79.36-.14.71-.29,1.07-.44.02-.01.04-.02.06-.03.26-.1.52-.22.77-.34.04-.02.08-.04.12-.06.07-.02.13-.05.19-.08.32-.15.64-.3.96-.46.34-.17.69-.35,1.03-.54.22-.11.45-.23.67-.35Z" style="fill: #131213; stroke-width: 0px;"/>
      <path d="M194.4,415.59l-.51.37h-.01l-9.54,6.67c-17.53,12.21-37.98,14.16-53.66,5.11l-68.05-39.29s-.09-.05-.14-.08c-1.16-.68-2.28-1.41-3.35-2.19-.38-.26-.75-.54-1.1-.82-.45-.34-.89-.7-1.32-1.06-.27-.22-.53-.45-.8-.68h0c-.34-.31-.67-.61-1-.92-1.99-1.87-3.77-3.93-5.34-6.13-.17-.23-.33-.46-.49-.7-.32-.46-.63-.93-.92-1.41-.15-.24-.3-.48-.44-.72-1.51-2.51-2.74-5.18-3.69-7.96-.14-.41-.28-.83-.4-1.25-.36-1.17-.68-2.37-.93-3.58-.03-.14-.06-.28-.09-.42-.08-.38-.14-.76-.21-1.14-.03-.15-.05-.3-.07-.46-.03-.14-.05-.28-.07-.43-.12-.77-.21-1.55-.29-2.33-.03-.29-.05-.58-.07-.88-.01-.12-.02-.25-.02-.37-.03-.36-.04-.72-.05-1.08-.03-.5-.04-1.02-.04-1.52v-48.07c0,.39.01.78.03,1.17.05,1.42.16,2.83.35,4.22.04.23.07.45.1.68.05.32.1.65.16.97.04.26.09.52.15.77.05.29.11.58.17.86,0,.01,0,.02.01.02.06.28.12.56.19.84.04.18.09.36.13.55.07.25.13.5.2.75.05.17.09.34.15.51.05.21.12.42.18.62.06.2.12.4.19.6.08.24.15.49.24.72.01.04.02.06.03.09.07.2.14.4.21.59.1.29.21.58.32.86.02.08.05.16.08.22.11.27.21.53.32.78.36.88.76,1.74,1.18,2.59.08.16.16.32.24.49.41.8.85,1.58,1.31,2.35.12.19.23.39.35.57.23.39.47.76.72,1.13.18.27.37.54.56.81.01.01.02.02.02.03.19.27.38.54.58.8.13.18.26.36.4.54.26.34.53.68.8,1.01.02.04.05.07.08.1.21.26.41.5.63.75.26.32.54.63.82.93.11.13.23.25.34.37.08.09.17.19.26.28.07.07.14.14.21.21.51.53,1.03,1.05,1.56,1.55.13.12.26.24.4.36.16.15.33.3.51.45.26.24.53.47.8.69.08.07.16.14.24.2.53.44,1.07.86,1.62,1.28.19.13.38.27.56.41.22.15.44.3.65.45.04.02.07.05.09.07.22.14.43.29.65.43.59.39,1.19.77,1.8,1.13.03.01.06.03.08.04.08.05.16.09.23.14l104.47,60.31,6.51,3.76,14.42,8.32c.2.12.4.23.6.34.19.11.4.22.6.33,1.17.62,2.36,1.19,3.58,1.7.24.1.48.19.72.29.27.11.53.21.8.31Z" style="fill: #191919; stroke-width: 0px;"/>
      <g>
        <path d="M31.33,141.14c-.38.22-.76.45-1.13.68-.07.03-.13.07-.19.11-.34.2-.67.41-.99.62-.07.04-.13.08-.2.12-.05.03-.1.07-.14.1-.33.21-.66.43-.99.64-.11.08-.21.15-.32.23-.22.14-.43.29-.65.44-.01,0-.03.02-.04.03-.13.09-.26.18-.39.28-.16.11-.32.22-.47.34-.19.13-.37.27-.56.4-.29.22-.57.43-.85.65-.21.16-.42.32-.63.49-.11.09-.21.17-.32.26-.15.12-.31.25-.46.38-.02.01-.04.02-.06.04-.04.03-.08.06-.12.1-.22.18-.43.36-.65.54h-.01c-.04.05-.08.08-.12.12h-.01c-.52.44-1.03.89-1.54,1.36-1.01.91-1.99,1.87-2.94,2.85-.47.49-.93.98-1.39,1.49-.05.06-.11.13-.17.19-.17.19-.34.38-.5.57h0c-.45.52-.89,1.04-1.32,1.56-.21.26-.43.53-.64.79-.26.34-.52.67-.78,1.01-.03.04-.05.08-.08.12l-.02.02h-.01c-.04.06-.07.11-.11.16-.14.19-.29.38-.43.58,0,.01-.01.02-.02.03s-.03.04-.04.06c-.02.02-.03.04-.05.06-.01.02-.03.04-.04.06,0,.01-.02.02-.03.04-.01.01-.02.02-.02.03-.02.02-.03.04-.05.07-.01.02-.02.03-.04.05-.02.03-.05.07-.08.11h0c-.06.09-.12.17-.17.25-.02.02-.03.05-.05.07-.02.03-.05.06-.07.09-.06.08-.11.16-.17.25h-.01s-.04.07-.06.1h0c-.04.06-.07.11-.11.16,0,.01-.01.02-.02.03-.03.05-.06.1-.1.15-.14.2-.28.4-.41.61h-.01s0,.01-.01.02c-.23.34-.45.69-.67,1.03-.09.14-.18.28-.26.43-.04.05-.07.1-.1.15-.03.04-.06.09-.08.13-.07.11-.14.22-.21.34-.01.01-.02.03-.03.04-.01,0-.01.02-.02.04-.04.06-.08.12-.12.19h0s-.01.03-.01.03h-.01c-.05.09-.11.18-.16.27-.11.19-.22.37-.32.55t-.01.01c-.1.18-.21.37-.32.55-.1.18-.2.37-.31.55-.2.37-.4.74-.6,1.11h0s-.02.02-.02.04c-.09.16-.17.33-.26.5-.02.05-.04.09-.07.14h0s-.03.07-.05.1c-.01.02-.02.04-.03.06-.05.08-.09.16-.13.24-.01.03-.03.06-.03.09-.01.01-.02.02-.02.03-.04.07-.07.14-.11.21-.01.03-.02.05-.04.08-.01.03-.03.05-.04.08-.01,0-.01.02-.02.04h0s-.04.08-.05.12c-.04.06-.07.13-.11.2h0s-.03.08-.05.11c-.01.02-.03.05-.04.08-.02.05-.05.1-.07.15h0c-.05.1-.09.19-.13.28-.05.1-.1.2-.14.29-.07.15-.14.31-.21.46-.02.04-.04.08-.06.12,0,0-.01.01-.01.02h0c-.16.36-.31.7-.46,1.05-.04.08-.08.16-.11.25-.11.27-.23.54-.34.81-.03.06-.05.12-.08.18,0,.01-.01.03-.01.04-.04.08-.07.16-.1.25,0,.03-.03.06-.04.1,0,.01-.01.02-.01.02,0,.01-.01.01-.01.02,0,.02,0,.04-.02.06-.09.24-.19.48-.28.73-.03.07-.06.14-.08.21-.13.32-.25.64-.36.97h-.01c-.45,1.28-.88,2.57-1.25,3.88-.02.08-.05.16-.07.24-.05.17-.1.33-.14.5-.03.08-.04.16-.06.25-.09.33-.18.66-.26.98h-.01c-.08.34-.16.67-.24,1-.05.21-.1.42-.14.63-.01.05-.02.09-.03.14-.02.08-.04.16-.06.23-.04.22-.09.43-.13.65-.03.12-.06.24-.08.36l-.03.15c-.02.09-.03.18-.05.27h0s-.01.06-.01.08c-.01.07-.03.13-.04.2-.01.06-.03.13-.04.19l-.02.12c-.02.11-.04.23-.06.34-.03.14-.05.28-.07.42h-.01c-.07.42-.14.84-.2,1.27-.1.68-.19,1.36-.27,2.05-.08.68-.15,1.37-.21,2.06-.03.35-.05.69-.08,1.04v.05s0,.05-.01.08c-.02.33-.03.65-.05.97-.02.33-.03.65-.04.98-.02.51-.03,1.03-.03,1.55,0,.09,0,.18,0,.28v8c.04-18.1,11.99-34.82,31.35-43.87l10.45-4.89.3-.14c.05-.4.1-.8.16-1.2.06-.4.13-.8.2-1.21.11-.59.23-1.19.36-1.78.07-.3.14-.59.21-.88h0c.07-.3.15-.59.23-.88.1-.39.21-.78.33-1.17.11-.38.24-.76.37-1.14.12-.38.25-.76.39-1.14s.28-.75.43-1.12c0-.01.01-.02.01-.03.12-.29.24-.57.36-.86.05-.11.1-.23.15-.35.31-.72.65-1.42,1-2.12.14-.27.28-.54.42-.81h0c.09-.16.17-.32.26-.47.14-.26.28-.52.43-.77.19-.34.39-.68.6-1.01.2-.32.4-.64.61-.96.19-.29.39-.59.59-.87.12-.18.24-.35.36-.53.3-.42.61-.83.92-1.24.21-.27.42-.54.64-.81.38-.46.77-.92,1.17-1.38.26-.3.53-.59.81-.88.27-.3.55-.59.83-.87.14-.15.29-.29.43-.43.15-.14.29-.28.44-.42.28-.28.58-.55.87-.81.16-.14.32-.28.47-.41.46-.4.93-.79,1.41-1.17.31-.26.63-.51.96-.75.33-.24.65-.49.99-.72.17-.12.34-.24.51-.35.84-.58,1.71-1.13,2.61-1.64l-31.3,18.06Z" style="fill: #ba9430; stroke-width: 0px;"/>
        <path d="M4.06,173.25c-.12.32-.24.63-.35.95.12-.33.24-.65.36-.97,0,0,0,.01,0,.02Z" style="fill: #ba9430; stroke-width: 0px;"/>
      </g>
      <path d="M418,268.5v47.59c0,3.51-.29,6.97-.86,10.35-.11.68-.24,1.35-.37,2.02-.2,1.01-.43,2.01-.68,3.01-1.04,4.09-2.48,8.05-4.3,11.82-.2.42-.4.84-.62,1.25h0c-.21.42-.42.83-.64,1.24-.67,1.23-1.36,2.43-2.1,3.62-.5.78-1.01,1.56-1.54,2.33-.2.28-.39.55-.59.83-.39.55-.79,1.09-1.2,1.63-.83,1.08-1.69,2.13-2.58,3.15-.38.44-.76.86-1.15,1.28-.14.16-.28.31-.42.46-.32.33-.63.66-.95.99-.64.65-1.3,1.28-1.97,1.91-.33.31-.68.62-1.02.92-.17.16-.34.31-.51.46-.71.61-1.43,1.21-2.17,1.8-.74.59-1.49,1.16-2.26,1.72-.1.07-.2.14-.3.22-1.64,1.17-3.35,2.27-5.12,3.29l-146.3,84.47c-1.77,1.02-3.57,1.94-5.4,2.78-.13.06-.25.11-.38.17-1.7.76-3.43,1.44-5.18,2.04-1.42.49-2.85.93-4.3,1.31-.51.14-1.02.26-1.53.39-.3.07-.62.14-.93.21-.5.11-1,.22-1.51.32-.1.02-.2.04-.3.05-.49.1-.97.19-1.45.26-6.44,1.09-13.02,1.15-19.48.2-1.34-.19-2.68-.43-4-.72h-.01c-.66-.14-1.32-.29-1.98-.46h-.01c-.33-.08-.66-.17-.99-.25-.66-.18-1.31-.36-1.97-.56-.65-.2-1.3-.4-1.95-.62-3.89-1.31-7.69-3.02-11.33-5.12l-10.45-6.04h0s-30.44-17.58-30.44-17.58c.29.17.59.33.89.48.32.18.64.34.96.51.15.08.3.16.46.23.15.08.3.16.46.23.62.31,1.25.6,1.88.89.63.28,1.26.55,1.89.81.27.12.55.23.83.33.06.03.12.06.18.08.3.12.61.24.91.35.32.12.64.24.97.35.32.12.64.23.97.34.32.11.65.21.98.32.32.1.64.2.97.3.32.1.65.2.98.29.33.09.66.18.99.27.3.08.6.16.9.23.15.04.31.08.46.11.09.03.18.05.28.07.32.08.63.15.95.22.18.04.37.08.55.12.33.07.67.14,1.01.21.14.02.29.05.42.07.14.03.27.06.4.08.05.01.11.02.16.03.25.04.5.08.75.12.08.02.17.03.25.05.16.02.32.05.47.07.13.02.27.04.4.06.02.01.05.01.07.01.02.01.04.01.06.01s.04.01.07.01h.02s.02.01.04.01c.32.04.66.09.98.13.06.01.13.02.19.02.13.02.26.03.4.05.04,0,.09,0,.13.02h.03s.07.01.11.01c.5.06,1.01.11,1.52.15.18.02.36.03.54.05.08.01.17.01.25.02.21,0,.41.03.61.04h.03s.03.01.05.01c.05,0,.09.01.14.01.09,0,.19,0,.28.01.56.03,1.11.06,1.67.08.34,0,.68.01,1.02.02h.15c.17,0,.33,0,.5.01.12,0,.24-.01.36-.01.67,0,1.35-.01,2.02-.03.34-.02.67-.03,1.01-.04.63-.03,1.25-.07,1.88-.12.08-.01.15-.02.23-.02.31-.03.61-.05.92-.09.67-.06,1.34-.14,2.01-.23.63-.08,1.25-.17,1.88-.27.34-.06.67-.12,1.01-.18.14-.02.27-.05.41-.07.01,0,.02-.01.03-.01.23-.04.46-.08.68-.13.33-.06.66-.13.99-.2.16-.04.31-.07.47-.11.15-.03.31-.06.46-.1.02-.01.05-.01.07-.02.29-.06.57-.13.86-.2.37-.1.74-.19,1.11-.29.16-.04.33-.09.49-.13.17-.05.33-.09.49-.14.33-.09.66-.18.99-.29.28-.08.57-.17.85-.26.29-.09.57-.18.85-.28.08-.02.16-.05.25-.08.28-.1.56-.19.85-.3.36-.12.72-.25,1.08-.39.6-.22,1.2-.46,1.81-.71.12-.05.23-.09.35-.14.87-.37,1.73-.75,2.58-1.15.28-.13.56-.27.84-.4.36-.18.72-.36,1.09-.55.17-.09.33-.17.5-.26.28-.15.57-.3.84-.45.15-.08.29-.16.44-.24.3-.17.61-.34.91-.51l30.75-17.76,138.01-79.68,19.44-11.22c.27-.16.54-.32.8-.48.15-.09.29-.17.43-.26.12-.07.23-.14.34-.21.06-.03.13-.07.18-.11.13-.07.24-.15.36-.22.16-.1.31-.2.46-.3.15-.1.3-.19.45-.29.12-.08.23-.15.35-.23.05-.03.1-.06.15-.1.09-.06.18-.12.27-.19.17-.11.34-.22.51-.34.24-.17.49-.35.73-.52.04-.03.08-.05.11-.08.04-.02.07-.05.1-.07.06-.04.12-.09.18-.13.22-.16.44-.32.65-.48.23-.17.45-.34.68-.51,0-.01.03-.02.05-.04.06-.04.11-.09.17-.13.25-.19.49-.38.73-.58.24-.19.47-.38.71-.57.26-.22.52-.43.77-.64.27-.23.53-.46.79-.69.16-.15.32-.28.48-.43.35-.31.69-.63,1.03-.95.25-.23.49-.46.73-.69.01-.01.02-.01.02-.03.11-.1.21-.2.32-.3.07-.07.14-.14.21-.21.15-.15.31-.31.46-.47.03-.02.06-.05.08-.08.12-.12.25-.24.36-.37l.09-.09c.09-.09.17-.18.26-.28.12-.12.24-.24.35-.37.08-.08.16-.16.23-.24.11-.11.21-.22.3-.34.06-.05.11-.1.16-.17.09-.08.17-.18.25-.28.15-.15.29-.31.43-.48.13-.14.25-.28.37-.43.13-.14.25-.29.38-.44.41-.48.81-.97,1.2-1.47.15-.19.31-.39.46-.59.09-.1.17-.21.24-.31.39-.5.76-1.01,1.13-1.52.39-.55.78-1.11,1.15-1.67.1-.14.19-.28.28-.42.46-.7.92-1.42,1.35-2.14.17-.29.34-.58.51-.87.14-.23.27-.47.4-.71.1-.17.2-.35.3-.53.02-.04.04-.08.06-.12.1-.18.2-.36.3-.54.15-.28.29-.56.44-.83.01-.03.02-.05.03-.06.11-.22.22-.43.32-.65.04-.06.07-.13.1-.2.06-.11.12-.22.17-.33.02-.05.05-.1.07-.16.08-.15.15-.31.23-.47.14-.31.29-.62.43-.94.08-.18.17-.36.25-.54.05-.13.11-.26.16-.38.07-.16.14-.31.2-.47.07-.15.14-.31.2-.47.13-.31.26-.62.38-.94,0,0,0-.01.01-.01.12-.31.24-.62.35-.93.01-.01.01-.03.02-.04.12-.31.23-.61.34-.92.17-.46.33-.92.48-1.39.12-.36.24-.72.35-1.09.17-.52.32-1.04.47-1.56.09-.3.17-.6.25-.9.02-.08.04-.17.06-.25.02-.07.04-.14.06-.21.04-.15.07-.3.11-.45.09-.33.17-.66.25-.99.06-.28.13-.55.19-.83.03-.16.07-.33.1-.5.05-.19.09-.39.13-.59,0-.03.01-.07.02-.1.06-.33.13-.66.19-.99.03-.19.07-.39.1-.58.02-.14.05-.29.07-.43.06-.33.11-.65.16-.97.01-.1.03-.2.04-.3.04-.26.08-.51.11-.77.09-.68.17-1.37.24-2.05.07-.69.13-1.38.17-2.07.02-.35.05-.69.06-1.04.02-.35.04-.7.05-1.04,0-.18.01-.35.01-.52.01-.18.01-.35.01-.53,0-.12,0-.24.01-.37Z" style="fill: #3e403f; stroke-width: 0px;"/>
      <path d="M418,261.86v6.64c-.01.13-.01.25-.01.37,0,.18,0,.35-.01.53,0,.17-.01.34-.01.52-.01.34-.03.69-.05,1.04-.01.35-.04.69-.06,1.04-.04.69-.1,1.38-.17,2.07-.07.68-.15,1.37-.24,2.05-.03.26-.07.51-.11.77-.01.1-.03.2-.04.3-.05.32-.1.64-.16.97-.02.14-.05.29-.07.43-.03.19-.07.39-.1.58-.06.33-.13.66-.19.99t-.01.02c-.04.22-.09.45-.14.67-.03.17-.07.34-.1.5-.06.28-.13.55-.19.83-.08.33-.16.66-.25.99-.04.15-.07.3-.11.45-.02.07-.04.14-.06.21-.02.08-.04.17-.06.25-.08.3-.16.6-.25.9-.15.52-.3,1.04-.47,1.56-.11.37-.23.73-.35,1.09-.15.47-.31.93-.48,1.39-.11.31-.22.61-.34.92-.01.01-.01.03-.02.04-.11.31-.23.62-.35.93-.01,0-.01.01-.01.01-.12.32-.25.63-.38.94-.06.16-.13.32-.2.47-.06.16-.13.31-.2.47-.05.12-.11.25-.16.38-.08.18-.17.36-.25.54-.14.32-.29.63-.43.94-.08.16-.15.32-.23.47-.02.06-.05.11-.07.16-.05.11-.11.22-.17.33-.03.07-.06.14-.1.2-.1.22-.21.43-.32.65-.01.01-.02.03-.03.06-.15.27-.29.55-.44.83-.1.18-.2.36-.3.54-.02.04-.04.08-.06.12-.1.18-.2.36-.3.53-.13.24-.26.48-.4.71-.17.29-.34.58-.51.87-.43.72-.89,1.44-1.35,2.14-.09.14-.18.28-.28.42-.37.56-.76,1.12-1.15,1.67-.37.51-.74,1.02-1.13,1.52-.07.1-.15.21-.24.31-.15.2-.31.4-.46.59-.39.5-.79.99-1.2,1.47-.13.15-.25.3-.38.44-.12.15-.24.29-.37.43-.14.17-.28.33-.43.48-.08.1-.16.19-.25.28-.05.07-.1.12-.16.17-.17.2-.35.39-.53.58-.11.13-.23.25-.35.37-.09.1-.17.19-.26.28l-.09.09c-.11.13-.24.25-.36.37-.02.03-.05.06-.08.08-.15.16-.31.32-.46.47-.07.07-.14.14-.21.21-.11.1-.21.2-.32.3,0,.02-.01.02-.02.03-.24.23-.48.46-.73.69-.34.32-.68.64-1.03.95-.16.15-.32.28-.48.43-.51.45-1.03.89-1.56,1.33-.24.19-.47.38-.71.57-.24.2-.48.39-.73.58-.06.04-.11.09-.17.13-.02.02-.04.03-.05.04-.23.17-.45.34-.68.51-.21.16-.43.32-.65.48-.06.04-.12.09-.18.13-.03.02-.06.05-.1.07-.03.03-.07.05-.11.08-.24.17-.49.35-.73.52-.17.12-.34.23-.51.34-.09.07-.18.13-.27.19-.05.04-.1.07-.15.1-.12.08-.23.15-.35.23-.15.1-.3.19-.45.29-.15.1-.3.2-.46.3-.12.07-.23.15-.36.22-.05.04-.12.08-.18.11-.11.07-.22.14-.34.21-.14.09-.28.17-.43.26-.26.16-.53.32-.8.48l-19.44,11.22-11.41,6.58c.22-.13.43-.26.64-.39.33-.21.66-.42.98-.63.3-.2.6-.41.89-.62.04-.02.09-.05.13-.08.28-.2.55-.39.82-.6.02-.01.03-.02.05-.04.31-.22.61-.46.91-.7.61-.47,1.19-.96,1.77-1.47.57-.5,1.13-1.02,1.67-1.56.27-.26.54-.54.8-.81.26-.28.52-.56.78-.84.23-.25.45-.5.67-.76.28-.32.55-.65.82-.97.19-.24.38-.47.56-.71.07-.09.14-.18.2-.27.04-.04.08-.09.12-.14.16-.21.31-.42.47-.64.01-.02.03-.03.04-.05.19-.26.38-.53.56-.79.15-.23.31-.45.46-.68.1-.15.2-.31.3-.47.13-.19.25-.38.37-.58.1-.16.2-.31.29-.48.49-.81.95-1.63,1.38-2.47.1-.18.19-.36.28-.55.11-.21.21-.43.31-.64.09-.19.18-.38.27-.57.11-.24.22-.49.32-.74.11-.25.22-.5.32-.76.15-.34.28-.69.41-1.05.09-.21.17-.42.24-.64.08-.2.15-.42.23-.63.1-.3.2-.6.29-.9.02-.07.04-.13.06-.19.09-.28.17-.57.26-.86.02-.07.04-.14.06-.22.08-.29.16-.58.24-.88.03-.12.06-.24.09-.37.07-.28.14-.56.2-.85.01-.02.01-.05.02-.08.09-.36.16-.72.23-1.09.08-.38.15-.75.21-1.13l.57-.27h0s10.54-4.93,10.54-4.93c19.35-9.07,31.26-25.81,31.26-43.91Z" style="fill: #d35e9b; stroke-width: 0px;"/>
      <path d="M418,147.16v114.7c0,18.1-11.91,34.84-31.26,43.91l-10.54,4.94h0s-.57.26-.57.26c.05-.29.09-.57.13-.86.04-.25.08-.51.11-.77.19-1.49.3-3.01.33-4.54,0-.26,0-.51,0-.77V110.94c0-.26,0-.51,0-.77s-.01-.51-.03-.77v-.22c0-.11-.01-.22-.02-.32-.01-.17-.01-.34-.02-.5-.01-.15-.02-.3-.04-.44,0-.15-.01-.3-.03-.44-.02-.31-.05-.63-.09-.94-.01-.11-.02-.24-.04-.35.01-.03,0-.06-.01-.09-.03-.29-.07-.58-.11-.88-.04-.31-.09-.61-.14-.92-.02-.14-.04-.29-.07-.44-.04-.24-.08-.49-.13-.74-.09-.49-.2-.97-.31-1.45-.06-.29-.13-.58-.21-.87-.08-.36-.18-.72-.29-1.08-.09-.36-.19-.72-.31-1.07-.08-.3-.18-.58-.28-.87-.08-.25-.16-.5-.25-.74-.1-.28-.2-.56-.3-.84-.08-.21-.16-.42-.25-.63l-.15-.39c-.1-.22-.18-.44-.28-.66l-.36-.81c-.34-.76-.71-1.51-1.1-2.25-.14-.26-.27-.51-.42-.77-.54-.98-1.12-1.94-1.75-2.87-.12-.19-.25-.38-.38-.56-.12-.19-.25-.37-.38-.55-.13-.19-.27-.37-.4-.55-.39-.55-.81-1.08-1.24-1.6-.12-.15-.25-.3-.37-.45-.16-.2-.33-.39-.5-.59-.29-.34-.6-.67-.9-1-.31-.33-.62-.66-.94-.98l-.48-.48c-.7-.68-1.42-1.34-2.16-1.96-.22-.18-.43-.36-.65-.54-.53-.44-1.07-.85-1.63-1.26-.18-.14-.37-.28-.56-.41-.28-.2-.56-.4-.85-.59-.38-.26-.77-.51-1.16-.76-.37-.23-.75-.45-1.12-.67l20.72,11.96,10.45,6.03c19.4,11.2,31.35,31.9,31.35,54.3Z" style="fill: #e76fa7; stroke-width: 0px;"/>
    </g>
    <g>
      <g>
        <path d="M197.74,273.88h4.66c3.35,0,5.65,2.02,5.65,5.12s-2.3,5.13-5.65,5.13h-4.66v-10.25ZM202.28,282.18c2.04,0,3.37-1.21,3.37-3.18s-1.33-3.18-3.37-3.18h-2.17v6.35h2.17Z" style="fill: #f1f2f2; stroke-width: 0px;"/>
        <path d="M226.13,282.22v1.9h-7.94v-10.25h7.75v1.9h-5.39v2.23h4.76v1.84h-4.76v2.37h5.58Z" style="fill: #f1f2f2; stroke-width: 0px;"/>
        <path d="M235.57,283.11l.81-1.79c.86.63,2.15,1.07,3.38,1.07,1.41,0,1.98-.47,1.98-1.1,0-2.04-5.97-.83-5.96-4.41,0-1.74,1.41-3.19,4.32-3.19,1.29,0,2.61.31,3.56.91l-.73,1.8c-.95-.54-1.93-.81-2.84-.81-1.41,0-2.03.53-1.95,1.17.17,1.43,6.04.36,5.96,4.35-.04,1.71-1.42,3.18-4.35,3.18-1.63,0-3.27-.48-4.17-1.19Z" style="fill: #f1f2f2; stroke-width: 0px;"/>
        <path d="M254.07,273.88h2.37v10.25h-2.37v-10.25Z" style="fill: #f1f2f2; stroke-width: 0px;"/>
        <path d="M296.26,273.88v10.25h-1.95l-5.11-6.22v6.22h-2.34v-10.25h1.96l5.1,6.22v-6.22h2.34Z" style="fill: #f1f2f2; stroke-width: 0px;"/>
        <path d="M272.35,280.4h1.79v1.44c-.6.32-1.2.44-1.85.44-1.96,0-3.32-1.36-3.32-3.28s1.36-3.28,3.35-3.28c1.04,0,1.9.37,2.65,1.16l1.52-1.41c-1-1.16-2.49-1.77-4.29-1.77-3.27,0-5.64,2.21-5.64,5.3s2.37,5.3,5.59,5.3c1.46,0,3.02-.45,4.14-1.3v-4.44s-3.96,0-3.96,0v1.84Z" style="fill: #f1f2f2; stroke-width: 0px;"/>
      </g>
      <g>
        <path d="M257.09,198.82c.26.15,1.97.67,2.18.22,1.15-2.43.87-5.15-.49-7.41-1.59-2.64-11.47-6.29-18.12.79-13.18,14.04,30.9,19.07,24.63,56.43-.43,2.58-1.59,5.39-2.97,7.62-2.19,3.54-5.55,6.24-9.33,7.94-4.13,1.86-8.65,2.51-12.98,1.86-4.32-.65-8.49-2.58-11.79-5.72-5.65-5.4-7-13.75-3.91-20.83.82-1.88,1.95-3.85,3.25-5.44,3.37-4.12,8.47-6.55,13.5-7.97,7.89-2.22,16.21-2.19,24.33-2.53,2.4-.1,4.79-.23,7.18-.45,1.57-.14,3.41-.34,4.96-.65.06.86-1.16,2.93-1.1,3.8-2.79-.54-4.52-1.2-7.3-.86-3.51.43-7.04.71-10.54,1.21-3.95.57-8.18.45-11.71,2.34-34.06,18.18-6.36,40.52,6.31,17.69,14.5-26.12-29.61-37.36-19.54-58.07,5.49-11.29,27.7-19.43,34.7-1.48,3.17,8.13-5.44,22.31-12.08,16.74-3.59-3.02-3.04-7.35.8-5.21Z" style="fill: #f1f2f2; stroke-width: 0px;"/>
        <path d="M253.82,227.35s0,0,0,0c.62,1.22,1.14,2.48,1.53,3.77,1.15-.41,4.11-1.34,8.32-1.65-.41-1.07-.88-2.11-1.38-3.1,0,0-.7.07,0,0-.05,0-4.86.39-8.47.98Z" style="fill: #d1d3d4; stroke-width: 0px;"/>
        <path d="M277.27,223.58c-8.4,28.35,5.21,26.17,7.89,6.19.1-.78,1.91,2.68,1.96,2.7.82.33-2.89,9.67-3.12,10.17-1.1,2.4-2.83,5.37-5.13,6.77-1.51.92-3.55,1.12-5.26.64-4.11-1.15-5.3-5.4-5.05-9.29.21-3.44,3.55-13.58,3.85-17.02.37-.05,4.92-.34,4.87-.17Z" style="fill: #f1f2f2; stroke-width: 0px;"/>
        <path d="M273.95,216.37c4.01.01,5.34-10.27,9.35-7.56l1.24,1.24c1.65,1.78-.22,2.83-1.4,4.23-2.21,2.51-6.09,6.03-9.53,3.81l.34-1.72Z" style="fill: #f1f2f2; stroke-width: 0px;"/>
        <path d="M288.44,224.09c3.66.07,2.22,4.33,2.02,6.66q-.11,1.25.62-.55c1.43-3.53,4.89-6.62,9-5.34,5.05,1.58,7.1,7.75,7.65,12.47.14,1.21-.02,2.77.46,1.82,1.79-3.57,2.77-7.57,5.03-10.91,1.68-2.49,5.23-6.26,8.41-3.57,4.34,3.67.77,13.5,1.8,18.22.14.65.32,1.58.85,2.01,2.22,1.81,9.7-7.96,10.8-9.27,1.1-1.32,3.25.15,1.21,2.55-3.22,3.78-9.63,13.68-13.59,11.68-2.94-1.48-4.68-5.55-4.14-9.77,2.64-20.54-4.34-7.42-9.97,7.93-.38,1.04-1.66,1.73-2.79,1.74-2.68.02-3.44-9.7-3.84-11.65-.47-2.28-1.2-9.25-4.44-8.74-6.53,1.04-7.39,14.49-7.64,17.46-.1,1.26-.21,2.46-1.49,3.03-1.06.46-2.91.43-3.85-.32-1.04-.84-.55-2.05-.16-3.12.82-2.24.83-17.25.73-19.36-.08-1.86-.77-2.09.07-2.73.25-.19,2.99-.24,3.25-.24Z" style="fill: #f1f2f2; stroke-width: 0px;"/>
        <path d="M333.63,237.42c3.48-4.85,14.98-20.3,7.39-19.32-4.42.57-4.54,8.41-4.28,12.03.47,6.66,5.55,12.22,7.61,18.41,15.31,45.85-66.42,55.13-23.62-.16,2.16-2.8,14.63-8.71,10.89-4.32-23.4,27.49-4.43,42.29,6.16,14.54,1.53-4.02,1.66-8.59.72-12.73-.7-3.08-2.01-5.98-3.29-8.86-.91-2.1-1.51-4.32-1.8-6.54-.73-5.56-.03-14.54,6.73-16.19,8.68-2.11,9.11,3.91,6.06,10.82-2.2,4.98-6.81,9.02-10.24,13.6-.14-.05-1.7-1.33-2.33-1.29Z" style="fill: #f1f2f2; stroke-width: 0px;"/>
        <path d="M338.22,235.91c-.35.32-1.53,1.94-2.26,2.8h0c.47,1.07.92,2.15,1.33,3.24.46-.62,1.41-1.78,2.59-2.57-.51-.97-.99-1.94-1.43-2.93l-.24-.54Z" style="fill: #d1d3d4; stroke-width: 0px;"/>
      </g>
      <g>
        <path d="M84.52,213.27c3.17,2.04-4.06,6.54-6.97,6.68-9.92.47-9.2-8.01-9.18-8.27.38-7,28.59-29.81,44.84-24.28,5.76,1.96,4.88,10.3,3.97,15.28-.66,3.61-1.44,7.26-2.35,10.81-.94,3.54-1.89,7.1-2.97,10.66-1.8,5.95-7.33,28.86-17.32,37.28-3.19,2.69-17.97,10.19-25.61-4.1-1.15-2.15-1.34-4.61-1.28-6.86.06-2.26.55-4.42,1.35-6.37,2.1-5.28,6.86-8.94,11.39-12.07,5.46-3.77,10.94-6.62,16.11-8.97,2.59-1.17,5.12-2.17,7.54-3.08,2.42-.91,4.76-1.67,7-2.27,1.12-.3,2.2-.65,3.29-.75,2.71-.26,5.46-.01,8,1,2.73,1.09,10.2,4.82,7.65,6.39-2.81,1.73-5.18,3.46-6.52,4.68.24-.4-3.89-1.13-3.59-1.46,1.21-1.3,3.48-4.19,2.19-5.93-1.03-1.39-3.2-1.89-4.82-2.1-1.76-.22-3.88-.29-5.59.26-2.12.68-4.34,1.57-6.63,2.59-2.3,1.02-4.65,2.25-7.06,3.59-4.8,2.7-9.86,5.95-14.64,9.91-1.18,1-2.44,1.96-3.4,3.17-13.84,17.27,3.83,22.29,12.42,11.52,1.94-2.44,11.83-20.76,13.91-28.2.98-3.49,2.32-6.85,3.33-10.25,1.34-4.57,2.7-9.32,2.96-14.1.69-12.86-29.42,9.53-30.21,10.32-1.43,1.41-5.79,5.12-2.73,4.8.66-.07,3.87-.58,4.95.11Z" style="fill: #f1f2f2; stroke-width: 0px;"/>
        <path d="M127.78,223.44c-.8.62-3.53,4.66-4.33,5.59-13.85,16.09.18,22.65,5.99,4.27.35-1.11,6.05,1.11,5.72,3.27-2.44,15.81,11.33,8.5,14.67,1.79.45-.9,1.48,1.09.95,2.17-1.05,2.15-3.62,7.31-9.91,8.92-1.48.38-11.95,1.94-12.33-8.42-.05-1.34-.03-2.61.12-3.83.15-1.22.39-2.41.68-3.54.3-1.13.66-2.19,1.05-3.25.61-1.65,1.2-3.32,2.05-4.85.59-1.05,4.71-3.01,4.18,3.23,0,0-1.29,6.38-1.46,7.78-.56,4.63-2.69,9.88-6.9,12.34-3.98,2.33-9.84,3.27-13.51-.14-2.08-1.93-3.33-4.92-2.74-7.75.6-2.89,2-5.5,3.62-7.95.74-1.12,1.53-2.19,2.35-3.23.82-1.04,1.67-2.05,2.55-3.03.89-.98,5.52-4.95,6.23-5.24l1.02,1.86Z" style="fill: #f1f2f2; stroke-width: 0px;"/>
        <path d="M145.18,244.42c-1.85-6.36-4.68-13.86-2.52-20.62,2.35-7.47,15.16-10.17,15.94-.39.31,5.74-3.06,12.01-5.92,16.7-1.17,1.65-2.23,3.94-3.83,4.66-1.14.43-2.33-.4-2.22-1.84.06-.8.44-1.61.84-2.35,2.29-4.44,6.22-10.83,6.5-15.86-.03-3.12-3.44-4.56-5.29-1.8-2.57,4.18-1.92,9.48-1.05,14.12.64,3.46,3.04,6.36,4.43,9.46,21.62,48.26-40.18,48.74-32.03,22.46,2.87-9.25,11.75-14.87,19.83-19.41,3.02-1.85,5.77-3.87,8.74-5.8,5.27-3.42,13.68-9.85,16.97-13.68,1.11-1.29.32.24-.66,3.19-1.67,4.95-6.64,7.64-10.68,10.51-5.22,3.29-10.52,6.79-15.81,9.9-3.81,2.14-7.63,4.56-10.36,8.25-2.45,3.32-3.11,6.06-2.64,8.81,1.22,6.54,10.86,4.5,15.37,2.69,8.27-3.32,10.05-13.62,7.26-21.57-.8-2.34-2.17-5.12-2.83-7.32l-.04-.12Z" style="fill: #f1f2f2; stroke-width: 0px;"/>
        <path d="M168.37,229.36s-.14.21-.24.49c-7.13,21.34,5.55,18.93,8.1,4.62.21-1.23.33-2.4.29-3.44-.04-1.04-.18-1.95-.48-2.64-.27-.71-.68-1.18-1.12-1.52-.45-.32-.92-.48-1.25-.57-.33-.08-.53-.12-.53-.12l-.08-1.03s.05-.01.16-.04c.11-.03.26-.07.48-.1.43-.07,1.09-.13,1.96.08.87.21,1.89.81,2.7,1.76.79.96,1.41,2.19,1.79,3.54,3.1,12.08-6.44,23.23-14.07,19.44-1.44-.72-2.62-1.92-3.33-3.37-.16-.34-.3-.67-.42-.99-.35-.98-.52-1.93-.61-2.82-.09-.89-.1-1.73-.05-2.54.09-1.61.4-3.05.8-4.34.8-2.57,2-4.51,3.09-5.71.53-.6,1.04-1.01,1.41-1.26.41-.28.58-.32.58-.33l.81.87Z" style="fill: #f1f2f2; stroke-width: 0px;"/>
        <path d="M174.3,224.95s3.77.27,4.14.36c1.48.36,3.14,1.02,4.68.89,1.33-.11,1.68-1,2.31-2.05.57.07,1.18.11,1.75.1.84-.01.73,18.62.53,20.19-.23,1.82-.71,5.54-2.79,6.34s-2.21-2.37-2.14-3.62c.2-3.85,1.76-7.7,3.4-11.14,2.4-5.04,5.15-10.79,10.63-13.05,4.82-1.99,8.62,1.37,7.13,6.51-7.16,24.63,6.39,15.45,7.21,8.86.24-1.93,2.4-3.39,4.52-3.01,6.51,1.15-1.39,17.45-12.75,16.96-12.32-.54,4.51-28.76-5.42-26.97-2.09.38-3.48,3.04-4.49,4.83-1.89,3.33-3.13,7.1-4.24,10.75-.23.76-.46,1.53-.63,2.31-.17.78-.28,1.57-.45,2.34-.17.77-.4,1.51-.71,2.24-.16.36-.37.71-.65,1.06-.63.76-2.03,1.47-2.86.56-.97-1.07-.54-4.43-.39-5.75.22-2.07.47-4.13.7-6.19.23-2.08.47-4.16.73-6.24.1-.81.2-1.63.3-2.44.16-1.25.32-2.51.51-3.76.04-.26.08-.52.12-.77.57.07,1.18.1,1.75.1.1,1.48.11,3.05-1.02,4.17-1.53,1.51-3.64,1.4-5.54.76-1.66-.56-3.95-1.41-5.25-2.63-.49-.45-.76-1.12-1.06-1.7Z" style="fill: #f1f2f2; stroke-width: 0px;"/>
      </g>
      <g>
        <path d="M106.45,221.77s2.99-1.69,6.76-2.29l-1.2,4.17s-3.33-.41-6.98,2.16l1.42-4.04Z" style="fill: #d1d3d4; stroke-width: 0px;"/>
        <path d="M161.85,237.88s2.26-1.64,3.38-3.31c.33-.49-3.59,7.24-3.59,7.24-.07-1.19.01-2.02.21-3.93Z" style="fill: #d1d3d4; stroke-width: 0px;"/>
        <path d="M146.67,248.46l4.65-2.87c.44.62,1.14,1.83,1.14,1.83l-5.14,2.34c-.1-.17-.66-1.31-.66-1.31Z" style="fill: #d1d3d4; stroke-width: 0px;"/>
      </g>
    </g>
  </g>
</svg>