<?xml version="1.0" encoding="utf-8"?>
<!-- Generator: Adobe Illustrator 17.1.0, SVG Export Plug-In . SVG Version: 6.00 Build 0)  -->
<!DOCTYPE svg PUBLIC "-//W3C//DTD SVG 1.1//EN" "http://www.w3.org/Graphics/SVG/1.1/DTD/svg11.dtd">
<svg version="1.1" id="Layer_1" xmlns="http://www.w3.org/2000/svg" xmlns:xlink="http://www.w3.org/1999/xlink" x="0px" y="0px"
	 width="100%" height="100%" viewBox="0 0 100% 100%"
	 xml:space="preserve">
<rect x="-24.585" y="-267.058" fill="#153A12" width="110.325" height="252"/>
<rect x="23.037" y="-267.058" fill="#297A2B" width="100.325" height="252"/>
<rect x="94.519" y="-267.058" fill="#51AF51" width="100.325" height="252"/>
<rect x="144.682" y="-267.058" fill="#62CC62" width="100.325" height="252"/>
<rect x="282.312" y="-267.058" fill="#3D1111" width="72.718" height="252"/>
<rect x="348.752" y="-267.058" fill="#7F2424" width="17.612" height="252"/>
<rect x="365.518" y="-267.058" fill="#BC2E2E" width="10.646" height="252"/>
<rect x="374.91" y="-267.058" fill="#D63434" width="65.928" height="252"/>
<rect x="439.583" y="-267.058" fill="#EE3A37" width="93.482" height="252"/>
<rect x="184.812" y="-267.058" fill="#72DC74" width="100.325" height="252"/>
<rect x="530.556" y="-267.058" fill="#08365F" width="67.191" height="252"/>
<rect x="595.238" y="-267.058" fill="#116DA4" width="72.718" height="252"/>
<rect x="665.652" y="-267.058" fill="#13A3E8" width="49.893" height="252"/>
<rect x="715.546" y="-267.058" fill="#24ACFF" width="40.597" height="252"/>
<rect x="752.381" y="-267.058" fill="#52BBFF" width="104.841" height="252"/>
</svg>
