<svg xmlns="http://www.w3.org/2000/svg" data-name="Layer 1" viewBox="0 0 881.81 252"><path d="M0 0h47.62v252H0z" style="fill:#153a12;stroke-width:0"/><path d="M47.62 0h71.48v252H47.62z" style="fill:#297a2b;stroke-width:0"/><path d="M119.1 0h50.16v252H119.1z" style="fill:#51af51;stroke-width:0"/><path d="M169.27 0h40.13v252h-40.13z" style="fill:#62cc62;stroke-width:0"/><path d="M309.72 0h63.61v252h-63.61z" style="fill:#3d1111;stroke-width:0"/><path d="M373.34 0h16.77v252h-16.77z" style="fill:#7f2424;stroke-width:0"/><path d="M390.1 0h9.39v252h-9.39z" style="fill:#bc2e2e;stroke-width:0"/><path d="M399.5 0h64.67v252H399.5z" style="fill:#d63434;stroke-width:0"/><path d="M464.17 0h90.97v252h-90.97z" style="fill:#ee3a37;stroke-width:0"/><path d="M209.4 0h100.33v252H209.4z" style="fill:#72dc74;stroke-width:0"/><path d="M555.14 0h64.68v252h-64.68z" style="fill:#08365f;stroke-width:0"/><path d="M619.82 0h70.41v252h-70.41z" style="fill:#116da4;stroke-width:0"/><path d="M690.24 0h49.89v252h-49.89z" style="fill:#13a3e8;stroke-width:0"/><path d="M740.13 0h36.83v252h-36.83z" style="fill:#24acff;stroke-width:0"/><path d="M776.97 0h104.84v252H776.97z" style="fill:#52bbff;stroke-width:0"/></svg>