<?xml version="1.0" encoding="utf-8"?>
<!-- Generator: Adobe Illustrator 17.1.0, SVG Export Plug-In . SVG Version: 6.00 Build 0)  -->
<!DOCTYPE svg PUBLIC "-//W3C//DTD SVG 1.1//EN" "http://www.w3.org/Graphics/SVG/1.1/DTD/svg11.dtd">
<svg version="1.1" id="Layer_1" xmlns="http://www.w3.org/2000/svg" xmlns:xlink="http://www.w3.org/1999/xlink" x="0px" y="0px"
	 width="100%" height="100%" viewBox="0 0 100% 100%" enable-background="new 0 0 443 50" xml:space="preserve">
<pattern  x="-56" y="-371" width="500" height="500" patternUnits="userSpaceOnUse" id="JSD_CMYK_Pattern" viewBox="0 -656.501 500 500" overflow="visible">
	<g>
		<polygon fill="none" points="0,-656.501 500,-656.501 500,-156.501 0,-156.501 		"/>
		<g>
			<polygon fill="#3F1B30" points="145.857,-218.01 178.419,-218.01 178.419,0 145.857,0 			"/>
			<polygon fill="#813660" points="175.607,-218.01 183.493,-218.01 183.493,0 175.607,0 			"/>
			<polygon fill="#C25090" points="183.115,-218.01 187.882,-218.01 187.882,0 183.115,0 			"/>
			<polygon fill="#DF62A4" points="187.32,-218.01 216.841,-218.01 216.841,0 187.32,0 			"/>
			<polygon fill="#EA70AB" points="216.279,-218.01 258.138,-218.01 258.138,0 216.279,0 			"/>
			<polygon fill="#146E81" points="30.086,-218.059 62.647,-218.059 62.647,-0.049 30.086,-0.049 			"/>
			<polygon fill="#13A3BF" points="62.177,-218.059 84.517,-218.059 84.517,-0.049 62.177,-0.049 			"/>
			<polygon fill="#28C2E4" points="84.518,-218.059 102.696,-218.059 102.696,-0.049 84.518,-0.049 			"/>
			<polygon fill="#56C9EE" points="101.011,-218.01 147.956,-218.01 147.956,0 101.011,0 			"/>
			<polygon fill="#7F6729" points="264.622,-218.01 323.017,-218.01 323.017,0 264.622,0 			"/>
			<polygon fill="#BD962F" points="322.455,-218.01 342.417,-218.01 342.417,0 322.455,0 			"/>
			<polygon fill="#E5B62F" points="342.417,-218.01 355.73,-218.01 355.73,0 342.417,0 			"/>
			<polygon fill="#FFCC38" points="353.961,-218.01 379.361,-218.01 379.361,0 353.961,0 			"/>
			<polygon fill="#010101" points="378.238,-218.01 424.715,-218.01 424.715,0 378.238,0 			"/>
			<polygon fill="#1B1C1C" points="423.031,-218.01 440.609,-218.01 440.609,0 423.031,0 			"/>
			<polygon fill="#282828" points="437.031,-218.01 454.609,-218.01 454.609,0 437.031,0 			"/>
			<polygon fill="#3D3E3E" points="447.857,-218.01 480.83,-218.01 480.83,0 447.857,0 			"/>
			<polygon fill="#5D5F5F" points="479.409,-218.01 500,-218.01 500,0 479.409,0 			"/>
			<polygon fill="#0A3640" points="0,-218.059 39,-218.059 39,-0.049 0,-0.049 			"/>
			<polygon fill="#403419" points="256.912,-218.01 269.522,-218.01 269.522,0 256.912,0 			"/>
		</g>
		<g>
			<polygon fill="#3F1B30" points="145.857,-318.01 178.419,-318.01 178.419,-100 145.857,-100 			"/>
			<polygon fill="#813660" points="175.607,-318.01 183.493,-318.01 183.493,-100 175.607,-100 			"/>
			<polygon fill="#C25090" points="183.115,-318.01 187.882,-318.01 187.882,-100 183.115,-100 			"/>
			<polygon fill="#DF62A4" points="187.32,-318.01 216.841,-318.01 216.841,-100 187.32,-100 			"/>
			<polygon fill="#EA70AB" points="216.279,-318.01 258.138,-318.01 258.138,-100 216.279,-100 			"/>
			<polygon fill="#146E81" points="30.086,-318.059 62.647,-318.059 62.647,-100.049 30.086,-100.049 			"/>
			<polygon fill="#13A3BF" points="62.177,-318.059 84.517,-318.059 84.517,-100.049 62.177,-100.049 			"/>
			<polygon fill="#28C2E4" points="84.518,-318.059 102.696,-318.059 102.696,-100.049 84.518,-100.049 			"/>
			<polygon fill="#56C9EE" points="101.011,-318.01 147.956,-318.01 147.956,-100 101.011,-100 			"/>
			<polygon fill="#7F6729" points="264.622,-318.01 323.017,-318.01 323.017,-100 264.622,-100 			"/>
			<polygon fill="#BD962F" points="322.455,-318.01 342.417,-318.01 342.417,-100 322.455,-100 			"/>
			<polygon fill="#E5B62F" points="342.417,-318.01 355.73,-318.01 355.73,-100 342.417,-100 			"/>
			<polygon fill="#FFCC38" points="353.961,-318.01 379.361,-318.01 379.361,-100 353.961,-100 			"/>
			<polygon fill="#010101" points="378.238,-318.01 424.715,-318.01 424.715,-100 378.238,-100 			"/>
			<polygon fill="#1B1C1C" points="423.031,-318.01 440.609,-318.01 440.609,-100 423.031,-100 			"/>
			<polygon fill="#282828" points="437.031,-318.01 454.609,-318.01 454.609,-100 437.031,-100 			"/>
			<polygon fill="#3D3E3E" points="447.857,-318.01 480.83,-318.01 480.83,-100 447.857,-100 			"/>
			<polygon fill="#5D5F5F" points="479.409,-318.01 500,-318.01 500,-100 479.409,-100 			"/>
			<polygon fill="#0A3640" points="0,-318.059 39,-318.059 39,-100.049 0,-100.049 			"/>
			<polygon fill="#403419" points="256.912,-318.01 269.522,-318.01 269.522,-100 256.912,-100 			"/>
		</g>
		<g>
			<polygon fill="#3F1B30" points="145.857,-418.01 178.419,-418.01 178.419,-200 145.857,-200 			"/>
			<polygon fill="#813660" points="175.607,-418.01 183.493,-418.01 183.493,-200 175.607,-200 			"/>
			<polygon fill="#C25090" points="183.115,-418.01 187.882,-418.01 187.882,-200 183.115,-200 			"/>
			<polygon fill="#DF62A4" points="187.32,-418.01 216.841,-418.01 216.841,-200 187.32,-200 			"/>
			<polygon fill="#EA70AB" points="216.279,-418.01 258.138,-418.01 258.138,-200 216.279,-200 			"/>
			<polygon fill="#146E81" points="30.086,-418.059 62.647,-418.059 62.647,-200.049 30.086,-200.049 			"/>
			<polygon fill="#13A3BF" points="62.177,-418.059 84.517,-418.059 84.517,-200.049 62.177,-200.049 			"/>
			<polygon fill="#28C2E4" points="84.518,-418.059 102.696,-418.059 102.696,-200.049 84.518,-200.049 			"/>
			<polygon fill="#56C9EE" points="101.011,-418.01 147.956,-418.01 147.956,-200 101.011,-200 			"/>
			<polygon fill="#7F6729" points="264.622,-418.01 323.017,-418.01 323.017,-200 264.622,-200 			"/>
			<polygon fill="#BD962F" points="322.455,-418.01 342.417,-418.01 342.417,-200 322.455,-200 			"/>
			<polygon fill="#E5B62F" points="342.417,-418.01 355.73,-418.01 355.73,-200 342.417,-200 			"/>
			<polygon fill="#FFCC38" points="353.961,-418.01 379.361,-418.01 379.361,-200 353.961,-200 			"/>
			<polygon fill="#010101" points="378.238,-418.01 424.715,-418.01 424.715,-200 378.238,-200 			"/>
			<polygon fill="#1B1C1C" points="423.031,-418.01 440.609,-418.01 440.609,-200 423.031,-200 			"/>
			<polygon fill="#282828" points="437.031,-418.01 454.609,-418.01 454.609,-200 437.031,-200 			"/>
			<polygon fill="#3D3E3E" points="447.857,-418.01 480.83,-418.01 480.83,-200 447.857,-200 			"/>
			<polygon fill="#5D5F5F" points="479.409,-418.01 500,-418.01 500,-200 479.409,-200 			"/>
			<polygon fill="#0A3640" points="0,-418.059 39,-418.059 39,-200.049 0,-200.049 			"/>
			<polygon fill="#403419" points="256.912,-418.01 269.522,-418.01 269.522,-200 256.912,-200 			"/>
		</g>
		<g>
			<polygon fill="#3F1B30" points="145.857,-518.01 178.419,-518.01 178.419,-300 145.857,-300 			"/>
			<polygon fill="#813660" points="175.607,-518.01 183.493,-518.01 183.493,-300 175.607,-300 			"/>
			<polygon fill="#C25090" points="183.115,-518.01 187.882,-518.01 187.882,-300 183.115,-300 			"/>
			<polygon fill="#DF62A4" points="187.32,-518.01 216.841,-518.01 216.841,-300 187.32,-300 			"/>
			<polygon fill="#EA70AB" points="216.279,-518.01 258.138,-518.01 258.138,-300 216.279,-300 			"/>
			<polygon fill="#146E81" points="30.086,-518.059 62.647,-518.059 62.647,-300.049 30.086,-300.049 			"/>
			<polygon fill="#13A3BF" points="62.177,-518.059 84.517,-518.059 84.517,-300.049 62.177,-300.049 			"/>
			<polygon fill="#28C2E4" points="84.518,-518.059 102.696,-518.059 102.696,-300.049 84.518,-300.049 			"/>
			<polygon fill="#56C9EE" points="101.011,-518.01 147.956,-518.01 147.956,-300 101.011,-300 			"/>
			<polygon fill="#7F6729" points="264.622,-518.01 323.017,-518.01 323.017,-300 264.622,-300 			"/>
			<polygon fill="#BD962F" points="322.455,-518.01 342.417,-518.01 342.417,-300 322.455,-300 			"/>
			<polygon fill="#E5B62F" points="342.417,-518.01 355.73,-518.01 355.73,-300 342.417,-300 			"/>
			<polygon fill="#FFCC38" points="353.961,-518.01 379.361,-518.01 379.361,-300 353.961,-300 			"/>
			<polygon fill="#010101" points="378.238,-518.01 424.715,-518.01 424.715,-300 378.238,-300 			"/>
			<polygon fill="#1B1C1C" points="423.031,-518.01 440.609,-518.01 440.609,-300 423.031,-300 			"/>
			<polygon fill="#282828" points="437.031,-518.01 454.609,-518.01 454.609,-300 437.031,-300 			"/>
			<polygon fill="#3D3E3E" points="447.857,-518.01 480.83,-518.01 480.83,-300 447.857,-300 			"/>
			<polygon fill="#5D5F5F" points="479.409,-518.01 500,-518.01 500,-300 479.409,-300 			"/>
			<polygon fill="#0A3640" points="0,-518.059 39,-518.059 39,-300.049 0,-300.049 			"/>
			<polygon fill="#403419" points="256.912,-518.01 269.522,-518.01 269.522,-300 256.912,-300 			"/>
		</g>
		<g>
			<polygon fill="#3F1B30" points="145.857,-618.01 178.419,-618.01 178.419,-400 145.857,-400 			"/>
			<polygon fill="#813660" points="175.607,-618.01 183.493,-618.01 183.493,-400 175.607,-400 			"/>
			<polygon fill="#C25090" points="183.115,-618.01 187.882,-618.01 187.882,-400 183.115,-400 			"/>
			<polygon fill="#DF62A4" points="187.32,-618.01 216.841,-618.01 216.841,-400 187.32,-400 			"/>
			<polygon fill="#EA70AB" points="216.279,-618.01 258.138,-618.01 258.138,-400 216.279,-400 			"/>
			<polygon fill="#146E81" points="30.086,-618.059 62.647,-618.059 62.647,-400.049 30.086,-400.049 			"/>
			<polygon fill="#13A3BF" points="62.177,-618.059 84.517,-618.059 84.517,-400.049 62.177,-400.049 			"/>
			<polygon fill="#28C2E4" points="84.518,-618.059 102.696,-618.059 102.696,-400.049 84.518,-400.049 			"/>
			<polygon fill="#56C9EE" points="101.011,-618.01 147.956,-618.01 147.956,-400 101.011,-400 			"/>
			<polygon fill="#7F6729" points="264.622,-618.01 323.017,-618.01 323.017,-400 264.622,-400 			"/>
			<polygon fill="#BD962F" points="322.455,-618.01 342.417,-618.01 342.417,-400 322.455,-400 			"/>
			<polygon fill="#E5B62F" points="342.417,-618.01 355.73,-618.01 355.73,-400 342.417,-400 			"/>
			<polygon fill="#FFCC38" points="353.961,-618.01 379.361,-618.01 379.361,-400 353.961,-400 			"/>
			<polygon fill="#010101" points="378.238,-618.01 424.715,-618.01 424.715,-400 378.238,-400 			"/>
			<polygon fill="#1B1C1C" points="423.031,-618.01 440.609,-618.01 440.609,-400 423.031,-400 			"/>
			<polygon fill="#282828" points="437.031,-618.01 454.609,-618.01 454.609,-400 437.031,-400 			"/>
			<polygon fill="#3D3E3E" points="447.857,-618.01 480.83,-618.01 480.83,-400 447.857,-400 			"/>
			<polygon fill="#5D5F5F" points="479.409,-618.01 500,-618.01 500,-400 479.409,-400 			"/>
			<polygon fill="#0A3640" points="0,-618.059 39,-618.059 39,-400.049 0,-400.049 			"/>
			<polygon fill="#403419" points="256.912,-618.01 269.522,-618.01 269.522,-400 256.912,-400 			"/>
		</g>
		<g>
			<polygon fill="#3F1B30" points="145.857,-718.01 178.419,-718.01 178.419,-500 145.857,-500 			"/>
			<polygon fill="#813660" points="175.607,-718.01 183.493,-718.01 183.493,-500 175.607,-500 			"/>
			<polygon fill="#C25090" points="183.115,-718.01 187.882,-718.01 187.882,-500 183.115,-500 			"/>
			<polygon fill="#DF62A4" points="187.32,-718.01 216.841,-718.01 216.841,-500 187.32,-500 			"/>
			<polygon fill="#EA70AB" points="216.279,-718.01 258.138,-718.01 258.138,-500 216.279,-500 			"/>
			<polygon fill="#146E81" points="30.086,-718.059 62.647,-718.059 62.647,-500.049 30.086,-500.049 			"/>
			<polygon fill="#13A3BF" points="62.177,-718.059 84.517,-718.059 84.517,-500.049 62.177,-500.049 			"/>
			<polygon fill="#28C2E4" points="84.518,-718.059 102.696,-718.059 102.696,-500.049 84.518,-500.049 			"/>
			<polygon fill="#56C9EE" points="101.011,-718.01 147.956,-718.01 147.956,-500 101.011,-500 			"/>
			<polygon fill="#7F6729" points="264.622,-718.01 323.017,-718.01 323.017,-500 264.622,-500 			"/>
			<polygon fill="#BD962F" points="322.455,-718.01 342.417,-718.01 342.417,-500 322.455,-500 			"/>
			<polygon fill="#E5B62F" points="342.417,-718.01 355.73,-718.01 355.73,-500 342.417,-500 			"/>
			<polygon fill="#FFCC38" points="353.961,-718.01 379.361,-718.01 379.361,-500 353.961,-500 			"/>
			<polygon fill="#010101" points="378.238,-718.01 424.715,-718.01 424.715,-500 378.238,-500 			"/>
			<polygon fill="#1B1C1C" points="423.031,-718.01 440.609,-718.01 440.609,-500 423.031,-500 			"/>
			<polygon fill="#282828" points="437.031,-718.01 454.609,-718.01 454.609,-500 437.031,-500 			"/>
			<polygon fill="#3D3E3E" points="447.857,-718.01 480.83,-718.01 480.83,-500 447.857,-500 			"/>
			<polygon fill="#5D5F5F" points="479.409,-718.01 500,-718.01 500,-500 479.409,-500 			"/>
			<polygon fill="#0A3640" points="0,-718.059 39,-718.059 39,-500.049 0,-500.049 			"/>
			<polygon fill="#403419" points="256.912,-718.01 269.522,-718.01 269.522,-500 256.912,-500 			"/>
		</g>
		<g>
			<polygon fill="#3F1B30" points="145.857,-818.01 178.419,-818.01 178.419,-600 145.857,-600 			"/>
			<polygon fill="#813660" points="175.607,-818.01 183.493,-818.01 183.493,-600 175.607,-600 			"/>
			<polygon fill="#C25090" points="183.115,-818.01 187.882,-818.01 187.882,-600 183.115,-600 			"/>
			<polygon fill="#DF62A4" points="187.32,-818.01 216.841,-818.01 216.841,-600 187.32,-600 			"/>
			<polygon fill="#EA70AB" points="216.279,-818.01 258.138,-818.01 258.138,-600 216.279,-600 			"/>
			<polygon fill="#146E81" points="30.086,-818.059 62.647,-818.059 62.647,-600.049 30.086,-600.049 			"/>
			<polygon fill="#13A3BF" points="62.177,-818.059 84.517,-818.059 84.517,-600.049 62.177,-600.049 			"/>
			<polygon fill="#28C2E4" points="84.518,-818.059 102.696,-818.059 102.696,-600.049 84.518,-600.049 			"/>
			<polygon fill="#56C9EE" points="101.011,-818.01 147.956,-818.01 147.956,-600 101.011,-600 			"/>
			<polygon fill="#7F6729" points="264.622,-818.01 323.017,-818.01 323.017,-600 264.622,-600 			"/>
			<polygon fill="#BD962F" points="322.455,-818.01 342.417,-818.01 342.417,-600 322.455,-600 			"/>
			<polygon fill="#E5B62F" points="342.417,-818.01 355.73,-818.01 355.73,-600 342.417,-600 			"/>
			<polygon fill="#FFCC38" points="353.961,-818.01 379.361,-818.01 379.361,-600 353.961,-600 			"/>
			<polygon fill="#010101" points="378.238,-818.01 424.715,-818.01 424.715,-600 378.238,-600 			"/>
			<polygon fill="#1B1C1C" points="423.031,-818.01 440.609,-818.01 440.609,-600 423.031,-600 			"/>
			<polygon fill="#282828" points="437.031,-818.01 454.609,-818.01 454.609,-600 437.031,-600 			"/>
			<polygon fill="#3D3E3E" points="447.857,-818.01 480.83,-818.01 480.83,-600 447.857,-600 			"/>
			<polygon fill="#5D5F5F" points="479.409,-818.01 500,-818.01 500,-600 479.409,-600 			"/>
			<polygon fill="#0A3640" points="0,-818.059 39,-818.059 39,-600.049 0,-600.049 			"/>
			<polygon fill="#403419" points="256.912,-818.01 269.522,-818.01 269.522,-600 256.912,-600 			"/>
		</g>
	</g>
</pattern>
<rect fill="url(#JSD_CMYK_Pattern)" width="100%" height="100%"/>
</svg>
