<?xml version="1.0" encoding="utf-8"?>
<!-- Generator: Adobe Illustrator 17.1.0, SVG Export Plug-In . SVG Version: 6.00 Build 0)  -->
<!DOCTYPE svg PUBLIC "-//W3C//DTD SVG 1.1//EN" "http://www.w3.org/Graphics/SVG/1.1/DTD/svg11.dtd">
<svg version="1.1" id="Layer_1" xmlns="http://www.w3.org/2000/svg" xmlns:xlink="http://www.w3.org/1999/xlink" x="0px" y="0px"
	 width="100%" height="100%" viewBox="0 0 100% 100%" enable-background="new 0 0 442 100" xml:space="preserve">
<pattern  x="-56" y="-346" width="500" height="500" patternUnits="userSpaceOnUse" id="JSD_RGB_Pattern" viewBox="0 -822.9 500 500" overflow="visible">
	<g>
		<polygon fill="none" points="0,-822.9 500,-822.9 500,-322.9 0,-322.9 		"/>
		<g>
			<polygon fill="#0000FF" points="395.169,0 356.522,0 356.522,-345.8 395.169,-345.8 			"/>
			<polygon fill="#1D31FF" points="401.449,0 394.203,0 394.203,-345.8 401.449,-345.8 			"/>
			<polygon fill="#3A63FF" points="452.657,0 438.164,0 438.164,-345.8 452.657,-345.8 			"/>
			<polygon fill="#5794FF" points="500,0 451.691,0 451.691,-345.8 500,-345.8 			"/>
			<polygon fill="#3A63D8" points="439.13,0 400.483,0 400.483,-345.8 439.13,-345.8 			"/>
			<polygon fill="#1D31B0" points="357.488,0 328.502,0 328.502,-345.8 357.488,-345.8 			"/>
			<polygon fill="#000089" points="329.469,0 305.314,0 305.314,-345.8 329.469,-345.8 			"/>
			<polygon fill="#FF0000" points="71.981,0 47.826,0 47.826,-345.8 71.981,-345.8 			"/>
			<polygon fill="#FF1515" points="109.662,0 71.014,0 71.014,-345.8 109.662,-345.8 			"/>
			<polygon fill="#FF2B2B" points="115.942,0 108.696,0 108.696,-345.8 115.942,-345.8 			"/>
			<polygon fill="#FF4040" points="163.285,0 114.976,0 114.976,-345.8 163.285,-345.8 			"/>
			<polygon fill="#D63030" points="48.792,0 34.3,0 34.3,-345.8 48.792,-345.8 			"/>
			<polygon fill="#AD2020" points="35.266,0 6.28,0 6.28,-345.8 35.266,-345.8 			"/>
			<polygon fill="#841010" points="7.246,0 0,0 0,-345.8 7.246,-345.8 			"/>
			<polygon fill="#00FF00" points="234.3,0 227.053,0 227.053,-345.8 234.3,-345.8 			"/>
			<polygon fill="#2EF81C" points="262.319,0 233.333,0 233.333,-345.8 262.319,-345.8 			"/>
			<polygon fill="#5DF137" points="300,0 261.353,0 261.353,-345.8 300,-345.8 			"/>
			<polygon fill="#8BEA53" points="306.28,0 299.034,0 299.034,-345.8 306.28,-345.8 			"/>
			<polygon fill="#6BBA46" points="228.019,0 189.372,0 189.372,-345.8 228.019,-345.8 			"/>
			<polygon fill="#4C8B39" points="190.338,0 175.845,0 175.845,-345.8 190.338,-345.8 			"/>
			<polygon fill="#2C5B2C" points="176.812,0 162.319,0 162.319,-345.8 176.812,-345.8 			"/>
		</g>
		<g>
			<polygon fill="#0000FF" points="395.169,-100 356.522,-100 356.522,-445.8 395.169,-445.8 			"/>
			<polygon fill="#1D31FF" points="401.449,-100 394.203,-100 394.203,-445.8 401.449,-445.8 			"/>
			<polygon fill="#3A63FF" points="452.657,-100 438.164,-100 438.164,-445.8 452.657,-445.8 			"/>
			<polygon fill="#5794FF" points="500,-100 451.691,-100 451.691,-445.8 500,-445.8 			"/>
			<polygon fill="#3A63D8" points="439.13,-100 400.483,-100 400.483,-445.8 439.13,-445.8 			"/>
			<polygon fill="#1D31B0" points="357.488,-100 328.502,-100 328.502,-445.8 357.488,-445.8 			"/>
			<polygon fill="#000089" points="329.469,-100 305.314,-100 305.314,-445.8 329.469,-445.8 			"/>
			<polygon fill="#FF0000" points="71.981,-100 47.826,-100 47.826,-445.8 71.981,-445.8 			"/>
			<polygon fill="#FF1515" points="109.662,-100 71.014,-100 71.014,-445.8 109.662,-445.8 			"/>
			<polygon fill="#FF2B2B" points="115.942,-100 108.696,-100 108.696,-445.8 115.942,-445.8 			"/>
			<polygon fill="#FF4040" points="163.285,-100 114.976,-100 114.976,-445.8 163.285,-445.8 			"/>
			<polygon fill="#D63030" points="48.792,-100 34.3,-100 34.3,-445.8 48.792,-445.8 			"/>
			<polygon fill="#AD2020" points="35.266,-100 6.28,-100 6.28,-445.8 35.266,-445.8 			"/>
			<polygon fill="#841010" points="7.246,-100 0,-100 0,-445.8 7.246,-445.8 			"/>
			<polygon fill="#00FF00" points="234.3,-100 227.053,-100 227.053,-445.8 234.3,-445.8 			"/>
			<polygon fill="#2EF81C" points="262.319,-100 233.333,-100 233.333,-445.8 262.319,-445.8 			"/>
			<polygon fill="#5DF137" points="300,-100 261.353,-100 261.353,-445.8 300,-445.8 			"/>
			<polygon fill="#8BEA53" points="306.28,-100 299.034,-100 299.034,-445.8 306.28,-445.8 			"/>
			<polygon fill="#6BBA46" points="228.019,-100 189.372,-100 189.372,-445.8 228.019,-445.8 			"/>
			<polygon fill="#4C8B39" points="190.338,-100 175.845,-100 175.845,-445.8 190.338,-445.8 			"/>
			<polygon fill="#2C5B2C" points="176.812,-100 162.319,-100 162.319,-445.8 176.812,-445.8 			"/>
		</g>
		<g>
			<polygon fill="#0000FF" points="395.169,-200 356.522,-200 356.522,-545.8 395.169,-545.8 			"/>
			<polygon fill="#1D31FF" points="401.449,-200 394.203,-200 394.203,-545.8 401.449,-545.8 			"/>
			<polygon fill="#3A63FF" points="452.657,-200 438.164,-200 438.164,-545.8 452.657,-545.8 			"/>
			<polygon fill="#5794FF" points="500,-200 451.691,-200 451.691,-545.8 500,-545.8 			"/>
			<polygon fill="#3A63D8" points="439.13,-200 400.483,-200 400.483,-545.8 439.13,-545.8 			"/>
			<polygon fill="#1D31B0" points="357.488,-200 328.502,-200 328.502,-545.8 357.488,-545.8 			"/>
			<polygon fill="#000089" points="329.469,-200 305.314,-200 305.314,-545.8 329.469,-545.8 			"/>
			<polygon fill="#FF0000" points="71.981,-200 47.826,-200 47.826,-545.8 71.981,-545.8 			"/>
			<polygon fill="#FF1515" points="109.662,-200 71.014,-200 71.014,-545.8 109.662,-545.8 			"/>
			<polygon fill="#FF2B2B" points="115.942,-200 108.696,-200 108.696,-545.8 115.942,-545.8 			"/>
			<polygon fill="#FF4040" points="163.285,-200 114.976,-200 114.976,-545.8 163.285,-545.8 			"/>
			<polygon fill="#D63030" points="48.792,-200 34.3,-200 34.3,-545.8 48.792,-545.8 			"/>
			<polygon fill="#AD2020" points="35.266,-200 6.28,-200 6.28,-545.8 35.266,-545.8 			"/>
			<polygon fill="#841010" points="7.246,-200 0,-200 0,-545.8 7.246,-545.8 			"/>
			<polygon fill="#00FF00" points="234.3,-200 227.053,-200 227.053,-545.8 234.3,-545.8 			"/>
			<polygon fill="#2EF81C" points="262.319,-200 233.333,-200 233.333,-545.8 262.319,-545.8 			"/>
			<polygon fill="#5DF137" points="300,-200 261.353,-200 261.353,-545.8 300,-545.8 			"/>
			<polygon fill="#8BEA53" points="306.28,-200 299.034,-200 299.034,-545.8 306.28,-545.8 			"/>
			<polygon fill="#6BBA46" points="228.019,-200 189.372,-200 189.372,-545.8 228.019,-545.8 			"/>
			<polygon fill="#4C8B39" points="190.338,-200 175.845,-200 175.845,-545.8 190.338,-545.8 			"/>
			<polygon fill="#2C5B2C" points="176.812,-200 162.319,-200 162.319,-545.8 176.812,-545.8 			"/>
		</g>
		<g>
			<polygon fill="#0000FF" points="395.169,-300 356.522,-300 356.522,-645.8 395.169,-645.8 			"/>
			<polygon fill="#1D31FF" points="401.449,-300 394.203,-300 394.203,-645.8 401.449,-645.8 			"/>
			<polygon fill="#3A63FF" points="452.657,-300 438.164,-300 438.164,-645.8 452.657,-645.8 			"/>
			<polygon fill="#5794FF" points="500,-300 451.691,-300 451.691,-645.8 500,-645.8 			"/>
			<polygon fill="#3A63D8" points="439.13,-300 400.483,-300 400.483,-645.8 439.13,-645.8 			"/>
			<polygon fill="#1D31B0" points="357.488,-300 328.502,-300 328.502,-645.8 357.488,-645.8 			"/>
			<polygon fill="#000089" points="329.469,-300 305.314,-300 305.314,-645.8 329.469,-645.8 			"/>
			<polygon fill="#FF0000" points="71.981,-300 47.826,-300 47.826,-645.8 71.981,-645.8 			"/>
			<polygon fill="#FF1515" points="109.662,-300 71.014,-300 71.014,-645.8 109.662,-645.8 			"/>
			<polygon fill="#FF2B2B" points="115.942,-300 108.696,-300 108.696,-645.8 115.942,-645.8 			"/>
			<polygon fill="#FF4040" points="163.285,-300 114.976,-300 114.976,-645.8 163.285,-645.8 			"/>
			<polygon fill="#D63030" points="48.792,-300 34.3,-300 34.3,-645.8 48.792,-645.8 			"/>
			<polygon fill="#AD2020" points="35.266,-300 6.28,-300 6.28,-645.8 35.266,-645.8 			"/>
			<polygon fill="#841010" points="7.246,-300 0,-300 0,-645.8 7.246,-645.8 			"/>
			<polygon fill="#00FF00" points="234.3,-300 227.053,-300 227.053,-645.8 234.3,-645.8 			"/>
			<polygon fill="#2EF81C" points="262.319,-300 233.333,-300 233.333,-645.8 262.319,-645.8 			"/>
			<polygon fill="#5DF137" points="300,-300 261.353,-300 261.353,-645.8 300,-645.8 			"/>
			<polygon fill="#8BEA53" points="306.28,-300 299.034,-300 299.034,-645.8 306.28,-645.8 			"/>
			<polygon fill="#6BBA46" points="228.019,-300 189.372,-300 189.372,-645.8 228.019,-645.8 			"/>
			<polygon fill="#4C8B39" points="190.338,-300 175.845,-300 175.845,-645.8 190.338,-645.8 			"/>
			<polygon fill="#2C5B2C" points="176.812,-300 162.319,-300 162.319,-645.8 176.812,-645.8 			"/>
		</g>
		<g>
			<polygon fill="#0000FF" points="395.169,-400 356.522,-400 356.522,-745.8 395.169,-745.8 			"/>
			<polygon fill="#1D31FF" points="401.449,-400 394.203,-400 394.203,-745.8 401.449,-745.8 			"/>
			<polygon fill="#3A63FF" points="452.657,-400 438.164,-400 438.164,-745.8 452.657,-745.8 			"/>
			<polygon fill="#5794FF" points="500,-400 451.691,-400 451.691,-745.8 500,-745.8 			"/>
			<polygon fill="#3A63D8" points="439.13,-400 400.483,-400 400.483,-745.8 439.13,-745.8 			"/>
			<polygon fill="#1D31B0" points="357.488,-400 328.502,-400 328.502,-745.8 357.488,-745.8 			"/>
			<polygon fill="#000089" points="329.469,-400 305.314,-400 305.314,-745.8 329.469,-745.8 			"/>
			<polygon fill="#FF0000" points="71.981,-400 47.826,-400 47.826,-745.8 71.981,-745.8 			"/>
			<polygon fill="#FF1515" points="109.662,-400 71.014,-400 71.014,-745.8 109.662,-745.8 			"/>
			<polygon fill="#FF2B2B" points="115.942,-400 108.696,-400 108.696,-745.8 115.942,-745.8 			"/>
			<polygon fill="#FF4040" points="163.285,-400 114.976,-400 114.976,-745.8 163.285,-745.8 			"/>
			<polygon fill="#D63030" points="48.792,-400 34.3,-400 34.3,-745.8 48.792,-745.8 			"/>
			<polygon fill="#AD2020" points="35.266,-400 6.28,-400 6.28,-745.8 35.266,-745.8 			"/>
			<polygon fill="#841010" points="7.246,-400 0,-400 0,-745.8 7.246,-745.8 			"/>
			<polygon fill="#00FF00" points="234.3,-400 227.053,-400 227.053,-745.8 234.3,-745.8 			"/>
			<polygon fill="#2EF81C" points="262.319,-400 233.333,-400 233.333,-745.8 262.319,-745.8 			"/>
			<polygon fill="#5DF137" points="300,-400 261.353,-400 261.353,-745.8 300,-745.8 			"/>
			<polygon fill="#8BEA53" points="306.28,-400 299.034,-400 299.034,-745.8 306.28,-745.8 			"/>
			<polygon fill="#6BBA46" points="228.019,-400 189.372,-400 189.372,-745.8 228.019,-745.8 			"/>
			<polygon fill="#4C8B39" points="190.338,-400 175.845,-400 175.845,-745.8 190.338,-745.8 			"/>
			<polygon fill="#2C5B2C" points="176.812,-400 162.319,-400 162.319,-745.8 176.812,-745.8 			"/>
		</g>
		<g>
			<polygon fill="#0000FF" points="395.169,-500 356.522,-500 356.522,-845.8 395.169,-845.8 			"/>
			<polygon fill="#1D31FF" points="401.449,-500 394.203,-500 394.203,-845.8 401.449,-845.8 			"/>
			<polygon fill="#3A63FF" points="452.657,-500 438.164,-500 438.164,-845.8 452.657,-845.8 			"/>
			<polygon fill="#5794FF" points="500,-500 451.691,-500 451.691,-845.8 500,-845.8 			"/>
			<polygon fill="#3A63D8" points="439.13,-500 400.483,-500 400.483,-845.8 439.13,-845.8 			"/>
			<polygon fill="#1D31B0" points="357.488,-500 328.502,-500 328.502,-845.8 357.488,-845.8 			"/>
			<polygon fill="#000089" points="329.469,-500 305.314,-500 305.314,-845.8 329.469,-845.8 			"/>
			<polygon fill="#FF0000" points="71.981,-500 47.826,-500 47.826,-845.8 71.981,-845.8 			"/>
			<polygon fill="#FF1515" points="109.662,-500 71.014,-500 71.014,-845.8 109.662,-845.8 			"/>
			<polygon fill="#FF2B2B" points="115.942,-500 108.696,-500 108.696,-845.8 115.942,-845.8 			"/>
			<polygon fill="#FF4040" points="163.285,-500 114.976,-500 114.976,-845.8 163.285,-845.8 			"/>
			<polygon fill="#D63030" points="48.792,-500 34.3,-500 34.3,-845.8 48.792,-845.8 			"/>
			<polygon fill="#AD2020" points="35.266,-500 6.28,-500 6.28,-845.8 35.266,-845.8 			"/>
			<polygon fill="#841010" points="7.246,-500 0,-500 0,-845.8 7.246,-845.8 			"/>
			<polygon fill="#00FF00" points="234.3,-500 227.053,-500 227.053,-845.8 234.3,-845.8 			"/>
			<polygon fill="#2EF81C" points="262.319,-500 233.333,-500 233.333,-845.8 262.319,-845.8 			"/>
			<polygon fill="#5DF137" points="300,-500 261.353,-500 261.353,-845.8 300,-845.8 			"/>
			<polygon fill="#8BEA53" points="306.28,-500 299.034,-500 299.034,-845.8 306.28,-845.8 			"/>
			<polygon fill="#6BBA46" points="228.019,-500 189.372,-500 189.372,-845.8 228.019,-845.8 			"/>
			<polygon fill="#4C8B39" points="190.338,-500 175.845,-500 175.845,-845.8 190.338,-845.8 			"/>
			<polygon fill="#2C5B2C" points="176.812,-500 162.319,-500 162.319,-845.8 176.812,-845.8 			"/>
		</g>
		<g>
			<polygon fill="#0000FF" points="395.169,-600 356.522,-600 356.522,-945.8 395.169,-945.8 			"/>
			<polygon fill="#1D31FF" points="401.449,-600 394.203,-600 394.203,-945.8 401.449,-945.8 			"/>
			<polygon fill="#3A63FF" points="452.657,-600 438.164,-600 438.164,-945.8 452.657,-945.8 			"/>
			<polygon fill="#5794FF" points="500,-600 451.691,-600 451.691,-945.8 500,-945.8 			"/>
			<polygon fill="#3A63D8" points="439.13,-600 400.483,-600 400.483,-945.8 439.13,-945.8 			"/>
			<polygon fill="#1D31B0" points="357.488,-600 328.502,-600 328.502,-945.8 357.488,-945.8 			"/>
			<polygon fill="#000089" points="329.469,-600 305.314,-600 305.314,-945.8 329.469,-945.8 			"/>
			<polygon fill="#FF0000" points="71.981,-600 47.826,-600 47.826,-945.8 71.981,-945.8 			"/>
			<polygon fill="#FF1515" points="109.662,-600 71.014,-600 71.014,-945.8 109.662,-945.8 			"/>
			<polygon fill="#FF2B2B" points="115.942,-600 108.696,-600 108.696,-945.8 115.942,-945.8 			"/>
			<polygon fill="#FF4040" points="163.285,-600 114.976,-600 114.976,-945.8 163.285,-945.8 			"/>
			<polygon fill="#D63030" points="48.792,-600 34.3,-600 34.3,-945.8 48.792,-945.8 			"/>
			<polygon fill="#AD2020" points="35.266,-600 6.28,-600 6.28,-945.8 35.266,-945.8 			"/>
			<polygon fill="#841010" points="7.246,-600 0,-600 0,-945.8 7.246,-945.8 			"/>
			<polygon fill="#00FF00" points="234.3,-600 227.053,-600 227.053,-945.8 234.3,-945.8 			"/>
			<polygon fill="#2EF81C" points="262.319,-600 233.333,-600 233.333,-945.8 262.319,-945.8 			"/>
			<polygon fill="#5DF137" points="300,-600 261.353,-600 261.353,-945.8 300,-945.8 			"/>
			<polygon fill="#8BEA53" points="306.28,-600 299.034,-600 299.034,-945.8 306.28,-945.8 			"/>
			<polygon fill="#6BBA46" points="228.019,-600 189.372,-600 189.372,-945.8 228.019,-945.8 			"/>
			<polygon fill="#4C8B39" points="190.338,-600 175.845,-600 175.845,-945.8 190.338,-945.8 			"/>
			<polygon fill="#2C5B2C" points="176.812,-600 162.319,-600 162.319,-945.8 176.812,-945.8 			"/>
		</g>
		<g>
			<polygon fill="#0000FF" points="395.169,-700 356.522,-700 356.522,-1045.8 395.169,-1045.8 			"/>
			<polygon fill="#1D31FF" points="401.449,-700 394.203,-700 394.203,-1045.8 401.449,-1045.8 			"/>
			<polygon fill="#3A63FF" points="452.657,-700 438.164,-700 438.164,-1045.8 452.657,-1045.8 			"/>
			<polygon fill="#5794FF" points="500,-700 451.691,-700 451.691,-1045.8 500,-1045.8 			"/>
			<polygon fill="#3A63D8" points="439.13,-700 400.483,-700 400.483,-1045.8 439.13,-1045.8 			"/>
			<polygon fill="#1D31B0" points="357.488,-700 328.502,-700 328.502,-1045.8 357.488,-1045.8 			"/>
			<polygon fill="#000089" points="329.469,-700 305.314,-700 305.314,-1045.8 329.469,-1045.8 			"/>
			<polygon fill="#FF0000" points="71.981,-700 47.826,-700 47.826,-1045.8 71.981,-1045.8 			"/>
			<polygon fill="#FF1515" points="109.662,-700 71.014,-700 71.014,-1045.8 109.662,-1045.8 			"/>
			<polygon fill="#FF2B2B" points="115.942,-700 108.696,-700 108.696,-1045.8 115.942,-1045.8 			"/>
			<polygon fill="#FF4040" points="163.285,-700 114.976,-700 114.976,-1045.8 163.285,-1045.8 			"/>
			<polygon fill="#D63030" points="48.792,-700 34.3,-700 34.3,-1045.8 48.792,-1045.8 			"/>
			<polygon fill="#AD2020" points="35.266,-700 6.28,-700 6.28,-1045.8 35.266,-1045.8 			"/>
			<polygon fill="#841010" points="7.246,-700 0,-700 0,-1045.8 7.246,-1045.8 			"/>
			<polygon fill="#00FF00" points="234.3,-700 227.053,-700 227.053,-1045.8 234.3,-1045.8 			"/>
			<polygon fill="#2EF81C" points="262.319,-700 233.333,-700 233.333,-1045.8 262.319,-1045.8 			"/>
			<polygon fill="#5DF137" points="300,-700 261.353,-700 261.353,-1045.8 300,-1045.8 			"/>
			<polygon fill="#8BEA53" points="306.28,-700 299.034,-700 299.034,-1045.8 306.28,-1045.8 			"/>
			<polygon fill="#6BBA46" points="228.019,-700 189.372,-700 189.372,-1045.8 228.019,-1045.8 			"/>
			<polygon fill="#4C8B39" points="190.338,-700 175.845,-700 175.845,-1045.8 190.338,-1045.8 			"/>
			<polygon fill="#2C5B2C" points="176.812,-700 162.319,-700 162.319,-1045.8 176.812,-1045.8 			"/>
		</g>
		<g>
			<polygon fill="#0000FF" points="395.169,-800 356.522,-800 356.522,-1145.8 395.169,-1145.8 			"/>
			<polygon fill="#1D31FF" points="401.449,-800 394.203,-800 394.203,-1145.8 401.449,-1145.8 			"/>
			<polygon fill="#3A63FF" points="452.657,-800 438.164,-800 438.164,-1145.8 452.657,-1145.8 			"/>
			<polygon fill="#5794FF" points="500,-800 451.691,-800 451.691,-1145.8 500,-1145.8 			"/>
			<polygon fill="#3A63D8" points="439.13,-800 400.483,-800 400.483,-1145.8 439.13,-1145.8 			"/>
			<polygon fill="#1D31B0" points="357.488,-800 328.502,-800 328.502,-1145.8 357.488,-1145.8 			"/>
			<polygon fill="#000089" points="329.469,-800 305.314,-800 305.314,-1145.8 329.469,-1145.8 			"/>
			<polygon fill="#FF0000" points="71.981,-800 47.826,-800 47.826,-1145.8 71.981,-1145.8 			"/>
			<polygon fill="#FF1515" points="109.662,-800 71.014,-800 71.014,-1145.8 109.662,-1145.8 			"/>
			<polygon fill="#FF2B2B" points="115.942,-800 108.696,-800 108.696,-1145.8 115.942,-1145.8 			"/>
			<polygon fill="#FF4040" points="163.285,-800 114.976,-800 114.976,-1145.8 163.285,-1145.8 			"/>
			<polygon fill="#D63030" points="48.792,-800 34.3,-800 34.3,-1145.8 48.792,-1145.8 			"/>
			<polygon fill="#AD2020" points="35.266,-800 6.28,-800 6.28,-1145.8 35.266,-1145.8 			"/>
			<polygon fill="#841010" points="7.246,-800 0,-800 0,-1145.8 7.246,-1145.8 			"/>
			<polygon fill="#00FF00" points="234.3,-800 227.053,-800 227.053,-1145.8 234.3,-1145.8 			"/>
			<polygon fill="#2EF81C" points="262.319,-800 233.333,-800 233.333,-1145.8 262.319,-1145.8 			"/>
			<polygon fill="#5DF137" points="300,-800 261.353,-800 261.353,-1145.8 300,-1145.8 			"/>
			<polygon fill="#8BEA53" points="306.28,-800 299.034,-800 299.034,-1145.8 306.28,-1145.8 			"/>
			<polygon fill="#6BBA46" points="228.019,-800 189.372,-800 189.372,-1145.8 228.019,-1145.8 			"/>
			<polygon fill="#4C8B39" points="190.338,-800 175.845,-800 175.845,-1145.8 190.338,-1145.8 			"/>
			<polygon fill="#2C5B2C" points="176.812,-800 162.319,-800 162.319,-1145.8 176.812,-1145.8 			"/>
		</g>
	</g>
</pattern>
<rect fill="url(#JSD_RGB_Pattern)" width="100%" height="100%"/>
</svg>
