<svg xmlns="http://www.w3.org/2000/svg" data-name="Layer 1" viewBox="0 0 890.42 252.22"><path d="M263.49 0h49.24v252.22h-49.24z" style="fill:#3f1a30;stroke-width:0"/><path d="M312.73 0h13.37v252.22h-13.37z" style="fill:#803560;stroke-width:0"/><path d="M326.1 0h7.49v252.22h-7.49z" style="fill:#c04f90;stroke-width:0"/><path d="M333.59 0h51.57v252.22h-51.57z" style="fill:#e061a4;stroke-width:0"/><path d="M385.16 0h73.54v252.22h-73.54z" style="fill:#eb6faa;stroke-width:0"/><path d="M0-.06h53.58v252.22H0z" style="fill:#083640;stroke-width:0"/><path d="M53.58-.06h57.15v252.22H53.58z" style="fill:#116d80;stroke-width:0"/><path d="M110.73-.06h39.78v252.22h-39.78z" style="fill:#13a3bf;stroke-width:0"/><path d="M150.51-.06h29.37v252.22h-29.37z" style="fill:#24c2e4;stroke-width:0"/><path d="M179.88 0h83.6v252.22h-83.6z" style="fill:#52c9ee;stroke-width:0"/><path d="M458.7 0h12.55v252.22H458.7z" style="fill:#3f3316;stroke-width:0"/><path d="M471.25 0h102.99v252.22H471.25z" style="fill:#7f6628;stroke-width:0"/><path d="M574.24 0h35.55v252.22h-35.55z" style="fill:#be972e;stroke-width:0"/><path d="M609.79 0h20.56v252.22h-20.56z" style="fill:#e5b630;stroke-width:0"/><path d="M630.34 0h43.23v252.22h-43.23z" style="fill:#ffcb37;stroke-width:0"/><path d="M673.58 0h79.77v252.22h-79.77z" style="fill:#000;stroke-width:0"/><path d="M753.35 0h30.77v252.22h-30.77z" style="fill:#1b1c1c;stroke-width:0"/><path d="M784.12 0h13.44v252.22h-13.44z" style="fill:#292929;stroke-width:0"/><path d="M797.56 0h56.19v252.22h-56.19z" style="fill:#3c3d3d;stroke-width:0"/><path d="M853.75 0h36.67v252.22h-36.67z" style="fill:#5c5e5e;stroke-width:0"/></svg>