<svg class="round" id="profile-geo" xmlns="http://www.w3.org/2000/svg" xmlns:xlink="http://www.w3.org/1999/xlink" viewBox="0 0 480 480">
  <defs>
    <linearGradient id="a" x1="454.99" y1="1.6" x2="454.99" y2="480.14" gradientUnits="userSpaceOnUse">
      <stop offset="0" stop-color="#9e978e"/>
      <stop offset="1" stop-color="#7298ad"/>
    </linearGradient>
    <linearGradient id="c" x1="404.99" y1="1.6" x2="404.99" y2="480.14" xlink:href="#a"/>
    <linearGradient id="d" x1="355" y1="1.6" x2="355" y2="480.14" xlink:href="#a"/>
    <linearGradient id="e" x1="305.01" y1="1.6" x2="305.01" y2="480.14" xlink:href="#a"/>
    <linearGradient id="f" x1="255.01" y1="1.6" x2="255.01" y2="480.14" xlink:href="#a"/>
    <linearGradient id="g" x1="205.02" y1="1.6" x2="205.02" y2="480.14" xlink:href="#a"/>
    <linearGradient id="h" x1="155.02" y1="1.6" x2="155.02" y2="480.14" xlink:href="#a"/>
    <linearGradient id="i" x1="105.03" y1="1.6" x2="105.03" y2="480.14" xlink:href="#a"/>
    <linearGradient id="j" x1="55.03" y1="1.6" x2="55.03" y2="480.14" xlink:href="#a"/>
    <linearGradient id="k" x1="5.04" y1="1.6" x2="5.04" y2="480.14" xlink:href="#a"/>
    <linearGradient id="b" x1="-19.98" y1="1.6" x2="-19.98" y2="483.09" gradientUnits="userSpaceOnUse">
      <stop offset="0" stop-color="#908981"/>
      <stop offset="1" stop-color="#5f8b9e"/>
    </linearGradient>
    <linearGradient id="l" x1="30.05" y1="1.6" x2="30.05" y2="483.09" xlink:href="#b"/>
    <linearGradient id="m" x1="80.05" y1="1.6" x2="80.05" y2="483.09" xlink:href="#b"/>
    <linearGradient id="n" x1="130.04" y1="1.6" x2="130.04" y2="483.09" xlink:href="#b"/>
    <linearGradient id="o" x1="180.04" y1="1.6" x2="180.04" y2="483.09" xlink:href="#b"/>
    <linearGradient id="p" x1="230.03" y1="1.6" x2="230.03" y2="483.09" xlink:href="#b"/>
    <linearGradient id="q" x1="280.02" y1="1.6" x2="280.02" y2="483.09" xlink:href="#b"/>
    <linearGradient id="r" x1="330.02" y1="1.6" x2="330.02" y2="483.09" xlink:href="#b"/>
    <linearGradient id="s" x1="380.01" y1="1.6" x2="380.01" y2="483.09" xlink:href="#b"/>
    <linearGradient id="t" x1="430.01" y1="1.6" x2="430.01" y2="483.09" xlink:href="#b"/>
    <linearGradient id="u" x1="480" y1="1.6" x2="480" y2="483.09" xlink:href="#b"/>
    <linearGradient id="v" x1="252.99" y1="137.31" x2="255.24" y2="157.81" gradientUnits="userSpaceOnUse">
      <stop offset="0" stop-color="#dc9a90"/>
      <stop offset="1" stop-color="#b2606a"/>
    </linearGradient>
    <linearGradient id="w" x1="246.85" y1="138.33" x2="246.85" y2="153.33" gradientUnits="userSpaceOnUse">
      <stop offset="0" stop-color="#dc9a90"/>
      <stop offset="1" stop-color="#ce8683"/>
    </linearGradient>
    <linearGradient id="x" x1="237.13" y1="135.08" x2="233.63" y2="159.08" gradientUnits="userSpaceOnUse">
      <stop offset="0" stop-color="#fccaae"/>
      <stop offset="1" stop-color="#dc9a90"/>
    </linearGradient>
    <linearGradient id="y" x1="241.99" y1="139.67" x2="241.99" y2="149.67" gradientUnits="userSpaceOnUse">
      <stop offset="0" stop-color="#fccaae"/>
      <stop offset="1" stop-color="#eab09e"/>
    </linearGradient>
  </defs>
  <title>
    geo_self_port
  </title>
	<g id="geometric">
		<g id="background">
			<path fill="url(#a)" d="M454.99 0L480 43.64h-50.03L454.99 0"/>
			<path fill="url(#c)" d="M404.99 0l25.02 43.64h-50.03L404.99 0"/>
			<path fill="url(#d)" d="M355 0l25.01 43.64h-50.02L355 0"/>
			<path fill="url(#e)" d="M305 0l25.02 43.64h-50.03L305 0"/>
			<path fill="url(#f)" d="M255.01 0l25.02 43.64H230L255.01 0"/>
			<path fill="url(#g)" d="M205.02 0l25.01 43.64H180L205.02 0"/>
			<path fill="url(#h)" d="M155.02 0l25.02 43.64h-50.03L155.02 0"/>
			<path fill="url(#i)" d="M105.03 0l25.01 43.64H80.01L105.03 0"/>
			<path fill="url(#j)" d="M55.03 0l25.02 43.64H30.02L55.03 0"/>
			<path fill="url(#k)" d="M5.04 0l25.01 43.64h-50.02L5.04 0"/>
			<path fill="url(#a)" d="M454.99 43.64L480 87.27h-50.03l25.02-43.63"/>
			<path fill="url(#c)" d="M404.99 43.64l25.02 43.63h-50.03l25.01-43.63"/>
			<path fill="url(#d)" d="M355 43.64l25.01 43.63h-50.02L355 43.64"/>
			<path fill="url(#e)" d="M305 43.64l25.02 43.63h-50.03L305 43.64"/>
			<path fill="url(#f)" d="M255.01 43.64l25.02 43.63H230l25.01-43.63"/>
			<path fill="url(#g)" d="M205.02 43.64l25.01 43.63H180l25.02-43.63"/>
			<path fill="url(#h)" d="M155.02 43.64l25.02 43.63h-50.03l25.01-43.63"/>
			<path fill="url(#i)" d="M105.03 43.64l25.01 43.63H80.01l25.02-43.63"/>
			<path fill="url(#j)" d="M55.03 43.64l25.02 43.63H30.02l25.01-43.63"/>
			<path fill="url(#k)" d="M5.04 43.64l25.01 43.63h-50.02L5.04 43.64"/>
			<path fill="url(#a)" d="M454.99 87.27L480 130.91h-50.03l25.02-43.64"/>
			<path fill="url(#c)" d="M404.99 87.27l25.02 43.64h-50.03l25.01-43.64"/>
			<path fill="url(#d)" d="M355 87.27l25.01 43.64h-50.02L355 87.27"/>
			<path fill="url(#e)" d="M305 87.27l25.02 43.64h-50.03L305 87.27"/>
			<path fill="url(#f)" d="M255.01 87.27l25.02 43.64H230l25.01-43.64"/>
			<path fill="url(#g)" d="M205.02 87.27l25.01 43.64H180l25.02-43.64"/>
			<path fill="url(#h)" d="M155.02 87.27l25.02 43.64h-50.03l25.01-43.64"/>
			<path fill="url(#i)" d="M105.03 87.27l25.01 43.64H80.01l25.02-43.64"/>
			<path fill="url(#j)" d="M55.03 87.27l25.02 43.64H30.02l25.01-43.64"/>
			<path fill="url(#k)" d="M5.04 87.27l25.01 43.64h-50.02L5.04 87.27"/>
			<path fill="url(#a)" d="M454.99 130.91L480 174.54h-50.03l25.02-43.63"/>
			<path fill="url(#c)" d="M404.99 130.91l25.02 43.63h-50.03l25.01-43.63"/>
			<path fill="url(#d)" d="M355 130.91l25.01 43.63h-50.02L355 130.91"/>
			<path fill="url(#e)" d="M305 130.91l25.02 43.63h-50.03L305 130.91"/>
			<path fill="url(#f)" d="M255.01 130.91l25.02 43.63H230l25.01-43.63"/>
			<path fill="url(#g)" d="M205.02 130.91l25.01 43.63H180l25.02-43.63"/>
			<path fill="url(#h)" d="M155.02 130.91l25.02 43.63h-50.03l25.01-43.63"/>
			<path fill="url(#i)" d="M105.03 130.91l25.01 43.63H80.01l25.02-43.63"/>
			<path fill="url(#j)" d="M55.03 130.91l25.02 43.63H30.02l25.01-43.63"/>
			<path fill="url(#k)" d="M5.04 130.91l25.01 43.63h-50.02l25.01-43.63"/>
			<path fill="url(#a)" d="M454.99 174.54L480 218.18h-50.03l25.02-43.64"/>
			<path fill="url(#c)" d="M404.99 174.54l25.02 43.64h-50.03l25.01-43.64"/>
			<path fill="url(#d)" d="M355 174.54l25.01 43.64h-50.02L355 174.54"/>
			<path fill="url(#e)" d="M305 174.54l25.02 43.64h-50.03L305 174.54"/>
			<path fill="url(#f)" d="M255.01 174.54l25.02 43.64H230l25.01-43.64"/>
			<path fill="url(#g)" d="M205.02 174.54l25.01 43.64H180l25.02-43.64"/>
			<path fill="url(#h)" d="M155.02 174.54l25.02 43.64h-50.03l25.01-43.64"/>
			<path fill="url(#i)" d="M105.03 174.54l25.01 43.64H80.01l25.02-43.64"/>
			<path fill="url(#j)" d="M55.03 174.54l25.02 43.64H30.02l25.01-43.64"/>
			<path fill="url(#k)" d="M5.04 174.54l25.01 43.64h-50.02l25.01-43.64"/>
			<path fill="url(#a)" d="M454.99 218.18L480 261.82h-50.03l25.02-43.64"/>
			<path fill="url(#c)" d="M404.99 218.18l25.02 43.64h-50.03l25.01-43.64"/>
			<path fill="url(#d)" d="M355 218.18l25.01 43.64h-50.02L355 218.18"/>
			<path fill="url(#e)" d="M305 218.18l25.02 43.64h-50.03L305 218.18"/>
			<path fill="url(#f)" d="M255.01 218.18l25.02 43.64H230l25.01-43.64"/>
			<path fill="url(#g)" d="M205.02 218.18l25.01 43.64H180l25.02-43.64"/>
			<path fill="url(#h)" d="M155.02 218.18l25.02 43.64h-50.03l25.01-43.64"/>
			<path fill="url(#i)" d="M105.03 218.18l25.01 43.64H80.01l25.02-43.64"/>
			<path fill="url(#j)" d="M55.03 218.18l25.02 43.64H30.02l25.01-43.64"/>
			<path fill="url(#k)" d="M5.04 218.18l25.01 43.64h-50.02l25.01-43.64"/>
			<path fill="url(#a)" d="M454.99 261.82L480 305.45h-50.03l25.02-43.63"/>
			<path fill="url(#c)" d="M404.99 261.82l25.02 43.63h-50.03l25.01-43.63"/>
			<path fill="url(#d)" d="M355 261.82l25.01 43.63h-50.02L355 261.82"/>
			<path fill="url(#e)" d="M305 261.82l25.02 43.63h-50.03L305 261.82"/>
			<path fill="url(#f)" d="M255.01 261.82l25.02 43.63H230l25.01-43.63"/>
			<path fill="url(#g)" d="M205.02 261.82l25.01 43.63H180l25.02-43.63"/>
			<path fill="url(#h)" d="M155.02 261.82l25.02 43.63h-50.03l25.01-43.63"/>
			<path fill="url(#i)" d="M105.03 261.82l25.01 43.63H80.01l25.02-43.63"/>
			<path fill="url(#j)" d="M55.03 261.82l25.02 43.63H30.02l25.01-43.63"/>
			<path fill="url(#k)" d="M5.04 261.82l25.01 43.63h-50.02l25.01-43.63"/>
			<path fill="url(#a)" d="M454.99 305.45L480 349.09h-50.03l25.02-43.64"/>
			<path fill="url(#c)" d="M404.99 305.45l25.02 43.64h-50.03l25.01-43.64"/>
			<path fill="url(#d)" d="M355 305.45l25.01 43.64h-50.02L355 305.45"/>
			<path fill="url(#e)" d="M305 305.45l25.02 43.64h-50.03L305 305.45"/>
			<path fill="url(#f)" d="M255.01 305.45l25.02 43.64H230l25.01-43.64"/>
			<path fill="url(#g)" d="M205.02 305.45l25.01 43.64H180l25.02-43.64"/>
			<path fill="url(#h)" d="M155.02 305.45l25.02 43.64h-50.03l25.01-43.64"/>
			<path fill="url(#i)" d="M105.03 305.45l25.01 43.64H80.01l25.02-43.64"/>
			<path fill="url(#j)" d="M55.03 305.45l25.02 43.64H30.02l25.01-43.64"/>
			<path fill="url(#k)" d="M5.04 305.45l25.01 43.64h-50.02l25.01-43.64"/>
			<path fill="url(#a)" d="M454.99 349.09L480 392.73h-50.03l25.02-43.64"/>
			<path fill="url(#c)" d="M404.99 349.09l25.02 43.64h-50.03l25.01-43.64"/>
			<path fill="url(#d)" d="M355 349.09l25.01 43.64h-50.02L355 349.09"/>
			<path fill="url(#e)" d="M305 349.09l25.02 43.64h-50.03L305 349.09"/>
			<path fill="url(#f)" d="M255.01 349.09l25.02 43.64H230l25.01-43.64"/>
			<path fill="url(#g)" d="M205.02 349.09l25.01 43.64H180l25.02-43.64"/>
			<path fill="url(#h)" d="M155.02 349.09l25.02 43.64h-50.03l25.01-43.64"/>
			<path fill="url(#i)" d="M105.03 349.09l25.01 43.64H80.01l25.02-43.64"/>
			<path fill="url(#j)" d="M55.03 349.09l25.02 43.64H30.02l25.01-43.64"/>
			<path fill="url(#k)" d="M5.04 349.09l25.01 43.64h-50.02l25.01-43.64"/>
			<path fill="url(#a)" d="M454.99 392.73L480 436.36h-50.03l25.02-43.63"/>
			<path fill="url(#c)" d="M404.99 392.73l25.02 43.63h-50.03l25.01-43.63"/>
			<path fill="url(#d)" d="M355 392.73l25.01 43.63h-50.02L355 392.73"/>
			<path fill="url(#e)" d="M305 392.73l25.02 43.63h-50.03L305 392.73"/>
			<path fill="url(#f)" d="M255.01 392.73l25.02 43.63H230l25.01-43.63"/>
			<path fill="url(#g)" d="M205.02 392.73l25.01 43.63H180l25.02-43.63"/>
			<path fill="url(#h)" d="M155.02 392.73l25.02 43.63h-50.03l25.01-43.63"/>
			<path fill="url(#i)" d="M105.03 392.73l25.01 43.63H80.01l25.02-43.63"/>
			<path fill="url(#j)" d="M55.03 392.73l25.02 43.63H30.02l25.01-43.63"/>
			<path fill="url(#k)" d="M5.04 392.73l25.01 43.63h-50.02l25.01-43.63"/>
			<path fill="url(#a)" d="M454.99 436.36L480 480h-50.03l25.02-43.64"/>
			<path fill="url(#c)" d="M404.99 436.36L430.01 480h-50.03l25.01-43.64"/>
			<path fill="url(#d)" d="M355 436.36L380.01 480h-50.02L355 436.36"/>
			<path fill="url(#e)" d="M305 436.36L330.02 480h-50.03L305 436.36"/>
			<path fill="url(#f)" d="M255.01 436.36L280.03 480H230l25.01-43.64"/>
			<path fill="url(#g)" d="M205.02 436.36L230.03 480H180l25.02-43.64"/>
			<path fill="url(#h)" d="M155.02 436.36L180.04 480h-50.03l25.01-43.64"/>
			<path fill="url(#i)" d="M105.03 436.36L130.04 480H80.01l25.02-43.64"/>
			<path fill="url(#j)" d="M55.03 436.36L80.05 480H30.02l25.01-43.64"/>
			<path fill="url(#k)" d="M5.04 436.36L30.05 480h-50.02l25.01-43.64"/>
			<path fill="url(#b)" d="M-19.98 480l-25.01-43.64H5.04L-19.98 480"/>
			<path fill="url(#l)" d="M30.05 480L5.04 436.36h50.03L30.05 480"/>
			<path fill="url(#m)" d="M80.05 480l-25.02-43.64h50.03L80.05 480"/>
			<path fill="url(#n)" d="M130.04 480l-25.01-43.64h50.03L130.04 480"/>
			<path fill="url(#o)" d="M180.04 480l-25.02-43.64h50.03L180.04 480"/>
			<path fill="url(#p)" d="M230.03 480l-25.01-43.64h50.02L230.03 480"/>
			<path fill="url(#q)" d="M280.02 480l-25.01-43.64h50.03L280.02 480"/>
			<path fill="url(#r)" d="M330.02 480L305 436.36h50.03L330.02 480"/>
			<path fill="url(#s)" d="M380.01 480L355 436.36h50.03L380.01 480"/>
			<path fill="url(#t)" d="M430.01 480l-25.02-43.64h50.03L430.01 480"/>
			<path fill="url(#u)" d="M480 480l-25.01-43.64h50.03L480 480"/>
			<path fill="url(#b)" d="M-19.98 436.36l-25.01-43.63H5.04l-25.02 43.63"/>
			<path fill="url(#l)" d="M30.05 436.36L5.04 392.73h50.03l-25.02 43.63"/>
			<path fill="url(#m)" d="M80.05 436.36l-25.02-43.63h50.03l-25.01 43.63"/>
			<path fill="url(#n)" d="M130.04 436.36l-25.01-43.63h50.03l-25.02 43.63"/>
			<path fill="url(#o)" d="M180.04 436.36l-25.02-43.63h50.03l-25.01 43.63"/>
			<path fill="url(#p)" d="M230.03 436.36l-25.01-43.63h50.02l-25.01 43.63"/>
			<path fill="url(#q)" d="M280.02 436.36l-25.01-43.63h50.03l-25.02 43.63"/>
			<path fill="url(#r)" d="M330.02 436.36L305 392.73h50.03l-25.01 43.63"/>
			<path fill="url(#s)" d="M380.01 436.36L355 392.73h50.03l-25.02 43.63"/>
			<path fill="url(#t)" d="M430.01 436.36l-25.02-43.63h50.03l-25.01 43.63"/>
			<path fill="url(#u)" d="M480 436.36l-25.01-43.63h50.03L480 436.36"/>
			<path fill="url(#b)" d="M-19.98 392.73l-25.01-43.64H5.04l-25.02 43.64"/>
			<path fill="url(#l)" d="M30.05 392.73L5.04 349.09h50.03l-25.02 43.64"/>
			<path fill="url(#m)" d="M80.05 392.73l-25.02-43.64h50.03l-25.01 43.64"/>
			<path fill="url(#n)" d="M130.04 392.73l-25.01-43.64h50.03l-25.02 43.64"/>
			<path fill="url(#o)" d="M180.04 392.73l-25.02-43.64h50.03l-25.01 43.64"/>
			<path fill="url(#p)" d="M230.03 392.73l-25.01-43.64h50.02l-25.01 43.64"/>
			<path fill="url(#q)" d="M280.02 392.73l-25.01-43.64h50.03l-25.02 43.64"/>
			<path fill="url(#r)" d="M330.02 392.73L305 349.09h50.03l-25.01 43.64"/>
			<path fill="url(#s)" d="M380.01 392.73L355 349.09h50.03l-25.02 43.64"/>
			<path fill="url(#t)" d="M430.01 392.73l-25.02-43.64h50.03l-25.01 43.64"/>
			<path fill="url(#u)" d="M480 392.73l-25.01-43.64h50.03L480 392.73"/>
			<path fill="url(#b)" d="M-19.98 349.09l-25.01-43.64H5.04l-25.02 43.64"/>
			<path fill="url(#l)" d="M30.05 349.09L5.04 305.45h50.03l-25.02 43.64"/>
			<path fill="url(#m)" d="M80.05 349.09l-25.02-43.64h50.03l-25.01 43.64"/>
			<path fill="url(#n)" d="M130.04 349.09l-25.01-43.64h50.03l-25.02 43.64"/>
			<path fill="url(#o)" d="M180.04 349.09l-25.02-43.64h50.03l-25.01 43.64"/>
			<path fill="url(#p)" d="M230.03 349.09l-25.01-43.64h50.02l-25.01 43.64"/>
			<path fill="url(#q)" d="M280.02 349.09l-25.01-43.64h50.03l-25.02 43.64"/>
			<path fill="url(#r)" d="M330.02 349.09L305 305.45h50.03l-25.01 43.64"/>
			<path fill="url(#s)" d="M380.01 349.09L355 305.45h50.03l-25.02 43.64"/>
			<path fill="url(#t)" d="M430.01 349.09l-25.02-43.64h50.03l-25.01 43.64"/>
			<path fill="url(#u)" d="M480 349.09l-25.01-43.64h50.03L480 349.09"/>
			<path fill="url(#b)" d="M-19.98 305.45l-25.01-43.63H5.04l-25.02 43.63"/>
			<path fill="url(#l)" d="M30.05 305.45L5.04 261.82h50.03l-25.02 43.63"/>
			<path fill="url(#m)" d="M80.05 305.45l-25.02-43.63h50.03l-25.01 43.63"/>
			<path fill="url(#n)" d="M130.04 305.45l-25.01-43.63h50.03l-25.02 43.63"/>
			<path fill="url(#o)" d="M180.04 305.45l-25.02-43.63h50.03l-25.01 43.63"/>
			<path fill="url(#p)" d="M230.03 305.45l-25.01-43.63h50.02l-25.01 43.63"/>
			<path fill="url(#q)" d="M280.02 305.45l-25.01-43.63h50.03l-25.02 43.63"/>
			<path fill="url(#r)" d="M330.02 305.45L305 261.82h50.03l-25.01 43.63"/>
			<path fill="url(#s)" d="M380.01 305.45L355 261.82h50.03l-25.02 43.63"/>
			<path fill="url(#t)" d="M430.01 305.45l-25.02-43.63h50.03l-25.01 43.63"/>
			<path fill="url(#u)" d="M480 305.45l-25.01-43.63h50.03L480 305.45"/>
			<path fill="url(#b)" d="M-19.98 261.82l-25.01-43.64H5.04l-25.02 43.64"/>
			<path fill="url(#l)" d="M30.05 261.82L5.04 218.18h50.03l-25.02 43.64"/>
			<path fill="url(#m)" d="M80.05 261.82l-25.02-43.64h50.03l-25.01 43.64"/>
			<path fill="url(#n)" d="M130.04 261.82l-25.01-43.64h50.03l-25.02 43.64"/>
			<path fill="url(#o)" d="M180.04 261.82l-25.02-43.64h50.03l-25.01 43.64"/>
			<path fill="url(#p)" d="M230.03 261.82l-25.01-43.64h50.02l-25.01 43.64"/>
			<path fill="url(#q)" d="M280.02 261.82l-25.01-43.64h50.03l-25.02 43.64"/>
			<path fill="url(#r)" d="M330.02 261.82L305 218.18h50.03l-25.01 43.64"/>
			<path fill="url(#s)" d="M380.01 261.82L355 218.18h50.03l-25.02 43.64"/>
			<path fill="url(#t)" d="M430.01 261.82l-25.02-43.64h50.03l-25.01 43.64"/>
			<path fill="url(#u)" d="M480 261.82l-25.01-43.64h50.03L480 261.82"/>
			<path fill="url(#b)" d="M-19.98 218.18l-25.01-43.64H5.04l-25.02 43.64"/>
			<path fill="url(#l)" d="M30.05 218.18L5.04 174.54h50.03l-25.02 43.64"/>
			<path fill="url(#m)" d="M80.05 218.18l-25.02-43.64h50.03l-25.01 43.64"/>
			<path fill="url(#n)" d="M130.04 218.18l-25.01-43.64h50.03l-25.02 43.64"/>
			<path fill="url(#o)" d="M180.04 218.18l-25.02-43.64h50.03l-25.01 43.64"/>
			<path fill="url(#p)" d="M230.03 218.18l-25.01-43.64h50.02l-25.01 43.64"/>
			<path fill="url(#q)" d="M280.02 218.18l-25.01-43.64h50.03l-25.02 43.64"/>
			<path fill="url(#r)" d="M330.02 218.18L305 174.54h50.03l-25.01 43.64"/>
			<path fill="url(#s)" d="M380.01 218.18L355 174.54h50.03l-25.02 43.64"/>
			<path fill="url(#t)" d="M430.01 218.18l-25.02-43.64h50.03l-25.01 43.64"/>
			<path fill="url(#u)" d="M480 218.18l-25.01-43.64h50.03L480 218.18"/>
			<path fill="url(#b)" d="M-19.98 174.54l-25.01-43.63H5.04l-25.02 43.63"/>
			<path fill="url(#l)" d="M30.05 174.54L5.04 130.91h50.03l-25.02 43.63"/>
			<path fill="url(#m)" d="M80.05 174.54l-25.02-43.63h50.03l-25.01 43.63"/>
			<path fill="url(#n)" d="M130.04 174.54l-25.01-43.63h50.03l-25.02 43.63"/>
			<path fill="url(#o)" d="M180.04 174.54l-25.02-43.63h50.03l-25.01 43.63"/>
			<path fill="url(#p)" d="M230.03 174.54l-25.01-43.63h50.02l-25.01 43.63"/>
			<path fill="url(#q)" d="M280.02 174.54l-25.01-43.63h50.03l-25.02 43.63"/>
			<path fill="url(#r)" d="M330.02 174.54L305 130.91h50.03l-25.01 43.63"/>
			<path fill="url(#s)" d="M380.01 174.54L355 130.91h50.03l-25.02 43.63"/>
			<path fill="url(#t)" d="M430.01 174.54l-25.02-43.63h50.03l-25.01 43.63"/>
			<path fill="url(#u)" d="M480 174.54l-25.01-43.63h50.03L480 174.54"/>
			<path fill="url(#b)" d="M-19.98 130.91l-25.01-43.64H5.04l-25.02 43.64"/>
			<path fill="url(#l)" d="M30.05 130.91L5.04 87.27h50.03l-25.02 43.64"/>
			<path fill="url(#m)" d="M80.05 130.91L55.03 87.27h50.03l-25.01 43.64"/>
			<path fill="url(#n)" d="M130.04 130.91l-25.01-43.64h50.03l-25.02 43.64"/>
			<path fill="url(#o)" d="M180.04 130.91l-25.02-43.64h50.03l-25.01 43.64"/>
			<path fill="url(#p)" d="M230.03 130.91l-25.01-43.64h50.02l-25.01 43.64"/>
			<path fill="url(#q)" d="M280.02 130.91l-25.01-43.64h50.03l-25.02 43.64"/>
			<path fill="url(#r)" d="M330.02 130.91L305 87.27h50.03l-25.01 43.64"/>
			<path fill="url(#s)" d="M380.01 130.91L355 87.27h50.03l-25.02 43.64"/>
			<path fill="url(#t)" d="M430.01 130.91l-25.02-43.64h50.03l-25.01 43.64"/>
			<path fill="url(#u)" d="M480 130.91l-25.01-43.64h50.03L480 130.91"/>
			<path fill="url(#b)" d="M-19.98 87.27l-25.01-43.63H5.04l-25.02 43.63"/>
			<path fill="url(#l)" d="M30.05 87.27L5.04 43.64h50.03L30.05 87.27"/>
			<path fill="url(#m)" d="M80.05 87.27L55.03 43.64h50.03L80.05 87.27"/>
			<path fill="url(#n)" d="M130.04 87.27l-25.01-43.63h50.03l-25.02 43.63"/>
			<path fill="url(#o)" d="M180.04 87.27l-25.02-43.63h50.03l-25.01 43.63"/>
			<path fill="url(#p)" d="M230.03 87.27l-25.01-43.63h50.02l-25.01 43.63"/>
			<path fill="url(#q)" d="M280.02 87.27l-25.01-43.63h50.03l-25.02 43.63"/>
			<path fill="url(#r)" d="M330.02 87.27L305 43.64h50.03l-25.01 43.63"/>
			<path fill="url(#s)" d="M380.01 87.27L355 43.64h50.03l-25.02 43.63"/>
			<path fill="url(#t)" d="M430.01 87.27l-25.02-43.63h50.03l-25.01 43.63"/>
			<path fill="url(#u)" d="M480 87.27l-25.01-43.63h50.03L480 87.27"/>
			<path fill="url(#b)" d="M-19.98 43.64L-44.99 0H5.04l-25.02 43.64"/>
			<path fill="url(#l)" d="M30.05 43.64L5.04 0h50.03L30.05 43.64"/>
			<path fill="url(#m)" d="M80.05 43.64L55.03 0h50.03L80.05 43.64"/>
			<path fill="url(#n)" d="M130.04 43.64L105.03 0h50.03l-25.02 43.64"/>
			<path fill="url(#o)" d="M180.04 43.64L155.02 0h50.03l-25.01 43.64"/>
			<path fill="url(#p)" d="M230.03 43.64L205.02 0h50.02l-25.01 43.64"/>
			<path fill="url(#q)" d="M280.02 43.64L255.01 0h50.03l-25.02 43.64"/>
			<path fill="url(#r)" d="M330.02 43.64L305 0h50.03l-25.01 43.64"/>
			<path fill="url(#s)" d="M380.01 43.64L355 0h50.03l-25.02 43.64"/>
			<path fill="url(#t)" d="M430.01 43.64L404.99 0h50.03l-25.01 43.64"/>
			<path fill="url(#u)" d="M480 43.64L454.99 0h50.03L480 43.64"/>
		</g>
		<g id="drawing">
			<path fill="#67a8c5" d="M216.32 351.75L174.25 322l1.79-37.82-120.63 32.51L33 480h211.34V351.5l-28.02.25"/>
			<path fill="#326787" d="M477 480l-47.41-163.31-106.68-30.94-1.56 34.31-41.85 30.69-35.16.75V480H477"/>
			<path fill="#86d4ee" d="M187.86 280.44l-11.82 3.74-1.79 37.82 42.07 29.75 28.02-.25v-81.48l-56.48 10.42"/>
			<path fill="#4b86a5" d="M321.35 320.06l1.56-34.31-16.77-5.31L247 270l-2.66.02v81.48l35.16-.75 41.85-30.69"/>
			<path fill="#b2606a" d="M319 199.33l-.53-13.61.2-33.72 11.33-8 6.84 2.46 3.36 9.82-7.53 35.05-8.5 8.67-5.17-.67"/>
			<path fill="#dc9a90" d="M171.42 198.83l.54-13.61-.21-33.72-11.33-8-6.83 2.46-3.37 9.82 7.53 35.05 8.5 8.67 5.17-.67"/>
			<path fill="#eab09e" d="M224.93 268.67l-30.15-39.31v78.43l28.45 18.73h21.15v-57.85h-19.45"/>
			<path fill="#ce8683" d="M265.02 268.67h-20.64v57.85h29.23l28.45-28.73v-77.41l-37.04 48.29M224.78 268.07l-30.15-39.3.16 8.3 28.44 38.68h21.15v-7.39l-19.6-.29"/>
			<path fill="#b2606a" d="M265.02 268.67l-20.64-.31v7.39h26.53l31.15-46.06-37.04 38.98"/>
			<path fill="#dc9a90" d="M268.81 275.75h-24.43v50.82h11.89l12.54-50.82"/>
			<path fill="#fccaae" d="M224.75 275.75l12.54 50.82h7.09v-50.82h-19.63"/>
			<path fill="#dc9a90" d="M224.78 268.07l-.94-1.22.04 6.06.87 2.84h19.63v-7.39l-19.6-.29"/>
			<path fill="#c07276" d="M269.57 262.74l-4.55 5.93-20.64-.31v7.39h24.43l.87-2.84.06-10.17h-.17"/>
			<path fill="#fccaae" d="M212.5 56.67l-41.37 25.61v128.1l51.56 58.16h21.65V56.67H212.5"/>
			<path fill="#dc9a90" d="M278.5 56.67h-34.16v211.87h22.98l51.55-58.16V82.28L278.5 56.67"/>
			<path fill="#eab09e" d="M186 74l13.67 26-28.54 54V82.28L186 74"/>
			<path fill="#ce8683" d="M236.76 186.83l-.32-.13v13.49l7.88 7.63.02-.02v-20.97h-7.58"/>
			<path fill="#eab09e" d="M252.21 186.68l-.37.15h-7.5v20.97l7.87-7.61v-13.51"/>
			<path fill="#b2606a" d="M308.34 82.67L292 103l26.67 50.67.2-71.39-10.53.39"/>
			<path fill="#ce8683" d="M271.68 263.62l-13.41-2.95h-13.93v7.87l22.98.1 4.36-5.02"/>
			<path fill="#eab09e" d="M232.55 260.67l-14.56 2.57 4.7 5.3 21.65.04v-7.91h-11.79M203.72 247.14l-32.59-36.76-.05-45.38 38 34.67-5.36 47.47"/>
			<path fill="#ce8683" d="M318.84 164.33l-37.5 35.5 2.38 50.2 35.45-39.53-.33-46.17"/>
			<path fill="#fff" d="M293.45 144.73v-4.03l-9.3-6.66H271l-9.3 6.66v4.03h31.75"/>
			<path fill="#001f3f" d="M275.48 144.74l-3.12-3.13v-4.42l3.12-3.12h4.42l3.13 3.12v4.42l-3.13 3.13h-4.42"/>
			<path fill="#ce8683" d="M293.45 144.72v.79l-9.3 3.96H271l-9.3-3.96v-.79h31.75"/>
			<path fill="#b2606a" d="M284.15 130.99H271l-9.3 8.19v1.52l9.3-6.66h13.15l9.3 6.66v-1.52l-9.3-8.19"/>
			<path fill="#fff" d="M225.45 144.73v-4.03l-9.3-6.66H203l-9.3 6.66v4.03h31.75"/>
			<path fill="#001f3f" d="M207.48 144.74l-3.12-3.13v-4.42l3.12-3.12h4.42l3.13 3.12v4.42l-3.13 3.13h-4.42"/>
			<path fill="#eab09e" d="M225.45 144.72v.79l-9.3 3.96H203l-9.3-3.96v-.79h31.75"/>
			<path fill="#ce8683" d="M216.15 130.99H203l-9.3 8.19v1.52l9.3-6.66h13.15l9.3 6.66v-1.52l-9.3-8.19"/>
			<path fill="#174d6c" d="M429.59 316.69L397 480H267h210l-47.41-163.31"/>
			<path fill="#4b86a5" d="M55.41 316.69L3 480h84L55.41 316.69"/>
			<path fill="#eab09e" d="M244.34 61.83l-4.42 5.25-2.85-4.78-6.73 3.87-1.08-6.05-5.26.71-.91-4.25-5.34 6.17 3.53-1.3-2.03 9.38 7.12-4.91-3.7 12.16 11.07-7.58.1 7.17 6.25-2 1 4.5 3.25-1.57V61.83"/>
			<path fill="#ce8683" d="M262 54.33l-2.64 2.34h2.7l-.06-2.34M249.95 55.16l-3.08 1.51h2.97l.11-1.51M292.59 62.67l-2.18 1.55-11.91-7.55h-31.63l-2.03 1-.5.91V78.6l4-1.93-2.5 13 20-10 .5 8 15-11-1 9.5 18.82-16.4 1.84-1.6-8.41-5.5"/>
			<path d="M330 144l-1.67-69 3.67-7-8.24.66 7-4.53-8.15 1.74L284 25.33l-65.66.67-30.76 17.87S162 95.33 163.34 95.33s-2 48.81-2 48.81l9.8 6.92 1.75-33.91L184 106.67l-5.62-12.18L187.67 78 219 59.67l-.79 1.92 3.5-1.42-2.42 6.67 7.08-4.92-3.67 12.17 11.08-7.58.08 7.17 11.81-14.12 2.69 3.5 24 9.88 14.06-.75 5-2.5L314 86.33l-6.67 15.33 10.33 12 1 38.33z" fill="#001f3f"/>
			<path fill="#003555" d="M249.17 61.67L262 50.33l.34 14.17 14.66-7-3.83 13.5 16.23-10.05-2.56 10.72 14.16-7.5-20.66 18 1-9.5-15 11-.5-8-20 10 2.5-13-7.25 3.5-1-4.5-6.25 2-.1-7.17-11.07 7.58 3.7-12.16-7.12 4.91 2.44-6.55-3.52 1.3 5.33-6.16.92 4.25 4.84-3.55 1.08 6.05 6.73-3.87 2.85 4.78 10.03-11.92-.78 10.51"/>
			<path fill="#dc9a90" d="M244.34 160.92v9.93l3.71.07 2.14.75-.83-10.17-1.46-.58h-3.56"/>
			<path fill="url(#v)" d="M262.5 166.74v-.15l-7.55-4.86-5.11-26.74h-2.65l2.17 26.51 13.14 5.24"/>
			<path fill="url(#w)" d="M244.34 160.92h3.56l1.46.58-2.17-26.51h-2.85v25.93"/>
			<path fill="#b2606a" d="M244.34 170.92v15.91h7.5l2.75-1.13-3.64-6.33 4.43-2.55 3.98 6.92 3.14-1.29v-5.71l-14.6-5.82h-3.56"/>
			<path fill="#a54e5e" d="M250.95 179.37l3.64 6.33 4.77-1.96-3.98-6.92-4.43 2.55"/>
			<path fill="#c07276" d="M249.36 161.5l.83 10.17-2.14-.75-3.71-.07v.07h3.56l14.6 5.82v-10l-13.14-5.24"/>
			<path fill="#fccaae" d="M244.5 160.92v9.93l-3.71.07-2.14.75.83-10.17 1.46-.58h3.56"/>
			<path fill="url(#x)" d="M226.34 166.74v-.15l7.55-4.86 5.11-26.74h2.64l-2.16 26.51-13.14 5.24"/>
			<path fill="url(#y)" d="M244.5 160.92h-3.56l-1.46.58 2.16-26.51h2.86v25.93"/>
			<path fill="#c07276" d="M244.5 170.92v15.91H237l-2.76-1.13 3.64-6.33-4.43-2.55-3.98 6.92-3.13-1.29v-5.71l14.6-5.82h3.56"/>
			<path fill="#a54e5e" d="M237.88 179.37l-3.64 6.33-4.77-1.96 3.98-6.92 4.43 2.55"/>
			<path fill="#eab09e" d="M239.48 161.5l-.83 10.17 2.14-.75 3.71-.07v.07h-3.56l-14.6 5.82v-10l13.14-5.24"/>
			<path d="M225.5 114.83l-1.88 9.83-26.89-3.83s-17.39 7.17-17.39 7.42 8.33-14.25 8.33-14.25l15.33-3.92z" fill="#174d6c"/>
			<path fill="#003555" d="M267.88 114.92L258.42 126l44.56.58 10.36 6.25-11.83-18.08-33.63.17"/>
			<path fill="#ce8683" d="M231.99 215.54l-11.67-.62 15.67-8.87-17.34 9.75 13.34 9.74h12.35v-10h-12.35"/>
			<path fill="#c07276" d="M271.15 209.5l-19.08 6.04h-7.73v10h12.31l14.5-16.04M244.32 210.51l-5.4-4.46h-2.93l-15.67 8.87 11.67.62h12.35v-5.04l-.02.01"/>
			<path fill="#b2606a" d="M271.15 209.5l-18.5-3.45h-2.93l-5.38 4.45v5.04h7.73l19.08-6.04"/>
			<path d="M179.36 128.23zM187.67 114s-7.8 13.56-8.31 14.23c.25-.2 3.51-1.61 7.14-3.14l6.5-12.46zM267.88 114.92L258.42 126l44.56.58 2.1 1.27-6.88-13.08-30.32.15" fill="#003555"/>
			<path fill="#001f3f" d="M301.51 114.75l-3.31.02 6.88 13.08 8.26 4.98-11.83-18.08"/>
		</g>
	</g>
</svg>