<svg style="position: absolute; width: 0; height: 0; overflow: hidden;" version="1.1" xmlns="http://www.w3.org/2000/svg" xmlns:xlink="http://www.w3.org/1999/xlink">
<defs>
<symbol id="geometric" viewBox="0 0 480 480">
<title>geometric</title>
	<defs>
    <style>
      .cls-1{fill:url(#linear-gradient);}.cls-2{fill:url(#linear-gradient-2);}.cls-3{fill:url(#linear-gradient-3);}.cls-4{fill:url(#linear-gradient-4);}.cls-5{fill:url(#linear-gradient-5);}.cls-6{fill:url(#linear-gradient-6);}.cls-7{fill:url(#linear-gradient-7);}.cls-8{fill:url(#linear-gradient-8);}.cls-9{fill:url(#linear-gradient-9);}.cls-10{fill:url(#linear-gradient-10);}.cls-11{fill:url(#linear-gradient-111);}.cls-12{fill:url(#linear-gradient-112);}.cls-13{fill:url(#linear-gradient-113);}.cls-14{fill:url(#linear-gradient-114);}.cls-15{fill:url(#linear-gradient-115);}.cls-16{fill:url(#linear-gradient-116);}.cls-17{fill:url(#linear-gradient-117);}.cls-18{fill:url(#linear-gradient-118);}.cls-19{fill:url(#linear-gradient-119);}.cls-20{fill:url(#linear-gradient-120);}.cls-21{fill:url(#linear-gradient-121);}.cls-22{fill:#67a8c5;}.cls-23{fill:#326787;}.cls-24{fill:#86d4ee;}.cls-25{fill:#4b86a5;}.cls-26{fill:#b2606a;}.cls-27{fill:#dc9a90;}.cls-28{fill:#eab09e;}.cls-29{fill:#ce8683;}.cls-30{fill:#fccaae;}.cls-31{fill:#c07276;}.cls-32{fill:#fff;}.cls-33{fill:#001f3f;}.cls-34{fill:#174d6c;}.cls-35{fill:#003555;}.cls-36{fill:url(#linear-gradient-232);}.cls-37{fill:url(#linear-gradient-233);}.cls-38{fill:#a54e5e;}.cls-39{fill:url(#linear-gradient-234);}.cls-40{fill:url(#linear-gradient-235);}
    </style>
    <linearGradient id="linear-gradient" x1="454.99" x2="454.99" y1="1.6" y2="480.14" gradientUnits="userSpaceOnUse">
      <stop offset="0" stop-color="#9e978e"/>
      <stop offset="1" stop-color="#7298ad"/>
    </linearGradient>
    <linearGradient id="linear-gradient-2" x1="404.99" x2="404.99" y1="1.6" y2="480.14" xlink:href="#linear-gradient"/>
    <linearGradient id="linear-gradient-3" x1="355" x2="355" y1="1.6" y2="480.14" xlink:href="#linear-gradient"/>
    <linearGradient id="linear-gradient-4" x1="305.01" x2="305.01" y1="1.6" y2="480.14" xlink:href="#linear-gradient"/>
    <linearGradient id="linear-gradient-5" x1="255.01" x2="255.01" y1="1.6" y2="480.14" xlink:href="#linear-gradient"/>
    <linearGradient id="linear-gradient-6" x1="205.02" x2="205.02" y1="1.6" y2="480.14" xlink:href="#linear-gradient"/>
    <linearGradient id="linear-gradient-7" x1="155.02" x2="155.02" y1="1.6" y2="480.14" xlink:href="#linear-gradient"/>
    <linearGradient id="linear-gradient-8" x1="105.03" x2="105.03" y1="1.6" y2="480.14" xlink:href="#linear-gradient"/>
    <linearGradient id="linear-gradient-9" x1="55.03" x2="55.03" y1="1.6" y2="480.14" xlink:href="#linear-gradient"/>
    <linearGradient id="linear-gradient-10" x1="5.04" x2="5.04" y1="1.6" y2="480.14" xlink:href="#linear-gradient"/>
    <linearGradient id="linear-gradient-111" x1="-19.98" x2="-19.98" y1="1.6" y2="483.09" gradientUnits="userSpaceOnUse">
      <stop offset="0" stop-color="#908981"/>
      <stop offset="1" stop-color="#5f8b9e"/>
    </linearGradient>
    <linearGradient id="linear-gradient-112" x1="30.05" x2="30.05" y1="1.6" y2="483.09" xlink:href="#linear-gradient-111"/>
    <linearGradient id="linear-gradient-113" x1="80.05" x2="80.05" y1="1.6" y2="483.09" xlink:href="#linear-gradient-111"/>
    <linearGradient id="linear-gradient-114" x1="130.04" x2="130.04" y1="1.6" y2="483.09" xlink:href="#linear-gradient-111"/>
    <linearGradient id="linear-gradient-115" x1="180.04" x2="180.04" y1="1.6" y2="483.09" xlink:href="#linear-gradient-111"/>
    <linearGradient id="linear-gradient-116" x1="230.03" x2="230.03" y1="1.6" y2="483.09" xlink:href="#linear-gradient-111"/>
    <linearGradient id="linear-gradient-117" x1="280.02" x2="280.02" y1="1.6" y2="483.09" xlink:href="#linear-gradient-111"/>
    <linearGradient id="linear-gradient-118" x1="330.02" x2="330.02" y1="1.6" y2="483.09" xlink:href="#linear-gradient-111"/>
    <linearGradient id="linear-gradient-119" x1="380.01" x2="380.01" y1="1.6" y2="483.09" xlink:href="#linear-gradient-111"/>
    <linearGradient id="linear-gradient-120" x1="430.01" x2="430.01" y1="1.6" y2="483.09" xlink:href="#linear-gradient-111"/>
    <linearGradient id="linear-gradient-121" x1="480" x2="480" y1="1.6" y2="483.09" xlink:href="#linear-gradient-111"/>
    <linearGradient id="linear-gradient-232" x1="252.99" x2="255.24" y1="137.31" y2="157.81" gradientUnits="userSpaceOnUse">
      <stop offset="0" stop-color="#dc9a90"/>
      <stop offset="1" stop-color="#b2606a"/>
    </linearGradient>
    <linearGradient id="linear-gradient-233" x1="246.85" x2="246.85" y1="138.33" y2="153.33" gradientUnits="userSpaceOnUse">
      <stop offset="0" stop-color="#dc9a90"/>
      <stop offset="1" stop-color="#ce8683"/>
    </linearGradient>
    <linearGradient id="linear-gradient-234" x1="237.13" x2="233.63" y1="135.08" y2="159.08" gradientUnits="userSpaceOnUse">
      <stop offset="0" stop-color="#fccaae"/>
      <stop offset="1" stop-color="#dc9a90"/>
    </linearGradient>
    <linearGradient id="linear-gradient-235" x1="241.99" x2="241.99" y1="139.67" y2="149.67" gradientUnits="userSpaceOnUse">
      <stop offset="0" stop-color="#fccaae"/>
      <stop offset="1" stop-color="#eab09e"/>
    </linearGradient>
  </defs>
  <g id="bg">
    <path d="M454.99 0L480 43.64h-50.03L454.99 0z" class="cls-1"/>
    <path d="M404.99 0l25.02 43.64h-50.03L404.99 0z" class="cls-2"/>
    <path d="M355 0l25.01 43.64h-50.02L355 0z" class="cls-3"/>
    <path d="M305 0l25.02 43.64h-50.03L305 0z" class="cls-4"/>
    <path d="M255.01 0l25.02 43.64H230L255.01 0z" class="cls-5"/>
    <path d="M205.02 0l25.01 43.64H180L205.02 0z" class="cls-6"/>
    <path d="M155.02 0l25.02 43.64h-50.03L155.02 0z" class="cls-7"/>
    <path d="M105.03 0l25.01 43.64H80.01L105.03 0z" class="cls-8"/>
    <path d="M55.03 0l25.02 43.64H30.02L55.03 0z" class="cls-9"/>
    <path d="M5.04 0l25.01 43.64h-50.02L5.04 0z" class="cls-10"/>
    <path d="M454.99 43.64L480 87.27h-50.03l25.02-43.63z" class="cls-1"/>
    <path d="M404.99 43.64l25.02 43.63h-50.03l25.01-43.63z" class="cls-2"/>
    <path d="M355 43.64l25.01 43.63h-50.02L355 43.64z" class="cls-3"/>
    <path d="M305 43.64l25.02 43.63h-50.03L305 43.64z" class="cls-4"/>
    <path d="M255.01 43.64l25.02 43.63H230l25.01-43.63z" class="cls-5"/>
    <path d="M205.02 43.64l25.01 43.63H180l25.02-43.63z" class="cls-6"/>
    <path d="M155.02 43.64l25.02 43.63h-50.03l25.01-43.63z" class="cls-7"/>
    <path d="M105.03 43.64l25.01 43.63H80.01l25.02-43.63z" class="cls-8"/>
    <path d="M55.03 43.64l25.02 43.63H30.02l25.01-43.63z" class="cls-9"/>
    <path d="M5.04 43.64l25.01 43.63h-50.02L5.04 43.64z" class="cls-10"/>
    <path d="M454.99 87.27L480 130.91h-50.03l25.02-43.64z" class="cls-1"/>
    <path d="M404.99 87.27l25.02 43.64h-50.03l25.01-43.64z" class="cls-2"/>
    <path d="M355 87.27l25.01 43.64h-50.02L355 87.27z" class="cls-3"/>
    <path d="M305 87.27l25.02 43.64h-50.03L305 87.27z" class="cls-4"/>
    <path d="M255.01 87.27l25.02 43.64H230l25.01-43.64z" class="cls-5"/>
    <path d="M205.02 87.27l25.01 43.64H180l25.02-43.64z" class="cls-6"/>
    <path d="M155.02 87.27l25.02 43.64h-50.03l25.01-43.64z" class="cls-7"/>
    <path d="M105.03 87.27l25.01 43.64H80.01l25.02-43.64z" class="cls-8"/>
    <path d="M55.03 87.27l25.02 43.64H30.02l25.01-43.64z" class="cls-9"/>
    <path d="M5.04 87.27l25.01 43.64h-50.02L5.04 87.27z" class="cls-10"/>
    <path d="M454.99 130.91L480 174.54h-50.03l25.02-43.63z" class="cls-1"/>
    <path d="M404.99 130.91l25.02 43.63h-50.03l25.01-43.63z" class="cls-2"/>
    <path d="M355 130.91l25.01 43.63h-50.02L355 130.91z" class="cls-3"/>
    <path d="M305 130.91l25.02 43.63h-50.03L305 130.91z" class="cls-4"/>
    <path d="M255.01 130.91l25.02 43.63H230l25.01-43.63z" class="cls-5"/>
    <path d="M205.02 130.91l25.01 43.63H180l25.02-43.63z" class="cls-6"/>
    <path d="M155.02 130.91l25.02 43.63h-50.03l25.01-43.63z" class="cls-7"/>
    <path d="M105.03 130.91l25.01 43.63H80.01l25.02-43.63z" class="cls-8"/>
    <path d="M55.03 130.91l25.02 43.63H30.02l25.01-43.63z" class="cls-9"/>
    <path d="M5.04 130.91l25.01 43.63h-50.02l25.01-43.63z" class="cls-10"/>
    <path d="M454.99 174.54L480 218.18h-50.03l25.02-43.64z" class="cls-1"/>
    <path d="M404.99 174.54l25.02 43.64h-50.03l25.01-43.64z" class="cls-2"/>
    <path d="M355 174.54l25.01 43.64h-50.02L355 174.54z" class="cls-3"/>
    <path d="M305 174.54l25.02 43.64h-50.03L305 174.54z" class="cls-4"/>
    <path d="M255.01 174.54l25.02 43.64H230l25.01-43.64z" class="cls-5"/>
    <path d="M205.02 174.54l25.01 43.64H180l25.02-43.64z" class="cls-6"/>
    <path d="M155.02 174.54l25.02 43.64h-50.03l25.01-43.64z" class="cls-7"/>
    <path d="M105.03 174.54l25.01 43.64H80.01l25.02-43.64z" class="cls-8"/>
    <path d="M55.03 174.54l25.02 43.64H30.02l25.01-43.64z" class="cls-9"/>
    <path d="M5.04 174.54l25.01 43.64h-50.02l25.01-43.64z" class="cls-10"/>
    <path d="M454.99 218.18L480 261.82h-50.03l25.02-43.64z" class="cls-1"/>
    <path d="M404.99 218.18l25.02 43.64h-50.03l25.01-43.64z" class="cls-2"/>
    <path d="M355 218.18l25.01 43.64h-50.02L355 218.18z" class="cls-3"/>
    <path d="M305 218.18l25.02 43.64h-50.03L305 218.18z" class="cls-4"/>
    <path d="M255.01 218.18l25.02 43.64H230l25.01-43.64z" class="cls-5"/>
    <path d="M205.02 218.18l25.01 43.64H180l25.02-43.64z" class="cls-6"/>
    <path d="M155.02 218.18l25.02 43.64h-50.03l25.01-43.64z" class="cls-7"/>
    <path d="M105.03 218.18l25.01 43.64H80.01l25.02-43.64z" class="cls-8"/>
    <path d="M55.03 218.18l25.02 43.64H30.02l25.01-43.64z" class="cls-9"/>
    <path d="M5.04 218.18l25.01 43.64h-50.02l25.01-43.64z" class="cls-10"/>
    <path d="M454.99 261.82L480 305.45h-50.03l25.02-43.63z" class="cls-1"/>
    <path d="M404.99 261.82l25.02 43.63h-50.03l25.01-43.63z" class="cls-2"/>
    <path d="M355 261.82l25.01 43.63h-50.02L355 261.82z" class="cls-3"/>
    <path d="M305 261.82l25.02 43.63h-50.03L305 261.82z" class="cls-4"/>
    <path d="M255.01 261.82l25.02 43.63H230l25.01-43.63z" class="cls-5"/>
    <path d="M205.02 261.82l25.01 43.63H180l25.02-43.63z" class="cls-6"/>
    <path d="M155.02 261.82l25.02 43.63h-50.03l25.01-43.63z" class="cls-7"/>
    <path d="M105.03 261.82l25.01 43.63H80.01l25.02-43.63z" class="cls-8"/>
    <path d="M55.03 261.82l25.02 43.63H30.02l25.01-43.63z" class="cls-9"/>
    <path d="M5.04 261.82l25.01 43.63h-50.02l25.01-43.63z" class="cls-10"/>
    <path d="M454.99 305.45L480 349.09h-50.03l25.02-43.64z" class="cls-1"/>
    <path d="M404.99 305.45l25.02 43.64h-50.03l25.01-43.64z" class="cls-2"/>
    <path d="M355 305.45l25.01 43.64h-50.02L355 305.45z" class="cls-3"/>
    <path d="M305 305.45l25.02 43.64h-50.03L305 305.45z" class="cls-4"/>
    <path d="M255.01 305.45l25.02 43.64H230l25.01-43.64z" class="cls-5"/>
    <path d="M205.02 305.45l25.01 43.64H180l25.02-43.64z" class="cls-6"/>
    <path d="M155.02 305.45l25.02 43.64h-50.03l25.01-43.64z" class="cls-7"/>
    <path d="M105.03 305.45l25.01 43.64H80.01l25.02-43.64z" class="cls-8"/>
    <path d="M55.03 305.45l25.02 43.64H30.02l25.01-43.64z" class="cls-9"/>
    <path d="M5.04 305.45l25.01 43.64h-50.02l25.01-43.64z" class="cls-10"/>
    <path d="M454.99 349.09L480 392.73h-50.03l25.02-43.64z" class="cls-1"/>
    <path d="M404.99 349.09l25.02 43.64h-50.03l25.01-43.64z" class="cls-2"/>
    <path d="M355 349.09l25.01 43.64h-50.02L355 349.09z" class="cls-3"/>
    <path d="M305 349.09l25.02 43.64h-50.03L305 349.09z" class="cls-4"/>
    <path d="M255.01 349.09l25.02 43.64H230l25.01-43.64z" class="cls-5"/>
    <path d="M205.02 349.09l25.01 43.64H180l25.02-43.64z" class="cls-6"/>
    <path d="M155.02 349.09l25.02 43.64h-50.03l25.01-43.64z" class="cls-7"/>
    <path d="M105.03 349.09l25.01 43.64H80.01l25.02-43.64z" class="cls-8"/>
    <path d="M55.03 349.09l25.02 43.64H30.02l25.01-43.64z" class="cls-9"/>
    <path d="M5.04 349.09l25.01 43.64h-50.02l25.01-43.64z" class="cls-10"/>
    <path d="M454.99 392.73L480 436.36h-50.03l25.02-43.63z" class="cls-1"/>
    <path d="M404.99 392.73l25.02 43.63h-50.03l25.01-43.63z" class="cls-2"/>
    <path d="M355 392.73l25.01 43.63h-50.02L355 392.73z" class="cls-3"/>
    <path d="M305 392.73l25.02 43.63h-50.03L305 392.73z" class="cls-4"/>
    <path d="M255.01 392.73l25.02 43.63H230l25.01-43.63z" class="cls-5"/>
    <path d="M205.02 392.73l25.01 43.63H180l25.02-43.63z" class="cls-6"/>
    <path d="M155.02 392.73l25.02 43.63h-50.03l25.01-43.63z" class="cls-7"/>
    <path d="M105.03 392.73l25.01 43.63H80.01l25.02-43.63z" class="cls-8"/>
    <path d="M55.03 392.73l25.02 43.63H30.02l25.01-43.63z" class="cls-9"/>
    <path d="M5.04 392.73l25.01 43.63h-50.02l25.01-43.63z" class="cls-10"/>
    <path d="M454.99 436.36L480 480h-50.03l25.02-43.64z" class="cls-1"/>
    <path d="M404.99 436.36L430.01 480h-50.03l25.01-43.64z" class="cls-2"/>
    <path d="M355 436.36L380.01 480h-50.02L355 436.36z" class="cls-3"/>
    <path d="M305 436.36L330.02 480h-50.03L305 436.36z" class="cls-4"/>
    <path d="M255.01 436.36L280.03 480H230l25.01-43.64z" class="cls-5"/>
    <path d="M205.02 436.36L230.03 480H180l25.02-43.64z" class="cls-6"/>
    <path d="M155.02 436.36L180.04 480h-50.03l25.01-43.64z" class="cls-7"/>
    <path d="M105.03 436.36L130.04 480H80.01l25.02-43.64z" class="cls-8"/>
    <path d="M55.03 436.36L80.05 480H30.02l25.01-43.64z" class="cls-9"/>
    <path d="M5.04 436.36L30.05 480h-50.02l25.01-43.64z" class="cls-10"/>
    <path d="M-19.98 480l-25.01-43.64H5.04L-19.98 480z" class="cls-11"/>
    <path d="M30.05 480L5.04 436.36h50.03L30.05 480z" class="cls-12"/>
    <path d="M80.05 480l-25.02-43.64h50.03L80.05 480z" class="cls-13"/>
    <path d="M130.04 480l-25.01-43.64h50.03L130.04 480z" class="cls-14"/>
    <path d="M180.04 480l-25.02-43.64h50.03L180.04 480z" class="cls-15"/>
    <path d="M230.03 480l-25.01-43.64h50.02L230.03 480z" class="cls-16"/>
    <path d="M280.02 480l-25.01-43.64h50.03L280.02 480z" class="cls-17"/>
    <path d="M330.02 480L305 436.36h50.03L330.02 480z" class="cls-18"/>
    <path d="M380.01 480L355 436.36h50.03L380.01 480z" class="cls-19"/>
    <path d="M430.01 480l-25.02-43.64h50.03L430.01 480z" class="cls-20"/>
    <path d="M480 480l-25.01-43.64h50.03L480 480z" class="cls-21"/>
    <path d="M-19.98 436.36l-25.01-43.63H5.04l-25.02 43.63z" class="cls-11"/>
    <path d="M30.05 436.36L5.04 392.73h50.03l-25.02 43.63z" class="cls-12"/>
    <path d="M80.05 436.36l-25.02-43.63h50.03l-25.01 43.63z" class="cls-13"/>
    <path d="M130.04 436.36l-25.01-43.63h50.03l-25.02 43.63z" class="cls-14"/>
    <path d="M180.04 436.36l-25.02-43.63h50.03l-25.01 43.63z" class="cls-15"/>
    <path d="M230.03 436.36l-25.01-43.63h50.02l-25.01 43.63z" class="cls-16"/>
    <path d="M280.02 436.36l-25.01-43.63h50.03l-25.02 43.63z" class="cls-17"/>
    <path d="M330.02 436.36L305 392.73h50.03l-25.01 43.63z" class="cls-18"/>
    <path d="M380.01 436.36L355 392.73h50.03l-25.02 43.63z" class="cls-19"/>
    <path d="M430.01 436.36l-25.02-43.63h50.03l-25.01 43.63z" class="cls-20"/>
    <path d="M480 436.36l-25.01-43.63h50.03L480 436.36z" class="cls-21"/>
    <path d="M-19.98 392.73l-25.01-43.64H5.04l-25.02 43.64z" class="cls-11"/>
    <path d="M30.05 392.73L5.04 349.09h50.03l-25.02 43.64z" class="cls-12"/>
    <path d="M80.05 392.73l-25.02-43.64h50.03l-25.01 43.64z" class="cls-13"/>
    <path d="M130.04 392.73l-25.01-43.64h50.03l-25.02 43.64z" class="cls-14"/>
    <path d="M180.04 392.73l-25.02-43.64h50.03l-25.01 43.64z" class="cls-15"/>
    <path d="M230.03 392.73l-25.01-43.64h50.02l-25.01 43.64z" class="cls-16"/>
    <path d="M280.02 392.73l-25.01-43.64h50.03l-25.02 43.64z" class="cls-17"/>
    <path d="M330.02 392.73L305 349.09h50.03l-25.01 43.64z" class="cls-18"/>
    <path d="M380.01 392.73L355 349.09h50.03l-25.02 43.64z" class="cls-19"/>
    <path d="M430.01 392.73l-25.02-43.64h50.03l-25.01 43.64z" class="cls-20"/>
    <path d="M480 392.73l-25.01-43.64h50.03L480 392.73z" class="cls-21"/>
    <path d="M-19.98 349.09l-25.01-43.64H5.04l-25.02 43.64z" class="cls-11"/>
    <path d="M30.05 349.09L5.04 305.45h50.03l-25.02 43.64z" class="cls-12"/>
    <path d="M80.05 349.09l-25.02-43.64h50.03l-25.01 43.64z" class="cls-13"/>
    <path d="M130.04 349.09l-25.01-43.64h50.03l-25.02 43.64z" class="cls-14"/>
    <path d="M180.04 349.09l-25.02-43.64h50.03l-25.01 43.64z" class="cls-15"/>
    <path d="M230.03 349.09l-25.01-43.64h50.02l-25.01 43.64z" class="cls-16"/>
    <path d="M280.02 349.09l-25.01-43.64h50.03l-25.02 43.64z" class="cls-17"/>
    <path d="M330.02 349.09L305 305.45h50.03l-25.01 43.64z" class="cls-18"/>
    <path d="M380.01 349.09L355 305.45h50.03l-25.02 43.64z" class="cls-19"/>
    <path d="M430.01 349.09l-25.02-43.64h50.03l-25.01 43.64z" class="cls-20"/>
    <path d="M480 349.09l-25.01-43.64h50.03L480 349.09z" class="cls-21"/>
    <path d="M-19.98 305.45l-25.01-43.63H5.04l-25.02 43.63z" class="cls-11"/>
    <path d="M30.05 305.45L5.04 261.82h50.03l-25.02 43.63z" class="cls-12"/>
    <path d="M80.05 305.45l-25.02-43.63h50.03l-25.01 43.63z" class="cls-13"/>
    <path d="M130.04 305.45l-25.01-43.63h50.03l-25.02 43.63z" class="cls-14"/>
    <path d="M180.04 305.45l-25.02-43.63h50.03l-25.01 43.63z" class="cls-15"/>
    <path d="M230.03 305.45l-25.01-43.63h50.02l-25.01 43.63z" class="cls-16"/>
    <path d="M280.02 305.45l-25.01-43.63h50.03l-25.02 43.63z" class="cls-17"/>
    <path d="M330.02 305.45L305 261.82h50.03l-25.01 43.63z" class="cls-18"/>
    <path d="M380.01 305.45L355 261.82h50.03l-25.02 43.63z" class="cls-19"/>
    <path d="M430.01 305.45l-25.02-43.63h50.03l-25.01 43.63z" class="cls-20"/>
    <path d="M480 305.45l-25.01-43.63h50.03L480 305.45z" class="cls-21"/>
    <path d="M-19.98 261.82l-25.01-43.64H5.04l-25.02 43.64z" class="cls-11"/>
    <path d="M30.05 261.82L5.04 218.18h50.03l-25.02 43.64z" class="cls-12"/>
    <path d="M80.05 261.82l-25.02-43.64h50.03l-25.01 43.64z" class="cls-13"/>
    <path d="M130.04 261.82l-25.01-43.64h50.03l-25.02 43.64z" class="cls-14"/>
    <path d="M180.04 261.82l-25.02-43.64h50.03l-25.01 43.64z" class="cls-15"/>
    <path d="M230.03 261.82l-25.01-43.64h50.02l-25.01 43.64z" class="cls-16"/>
    <path d="M280.02 261.82l-25.01-43.64h50.03l-25.02 43.64z" class="cls-17"/>
    <path d="M330.02 261.82L305 218.18h50.03l-25.01 43.64z" class="cls-18"/>
    <path d="M380.01 261.82L355 218.18h50.03l-25.02 43.64z" class="cls-19"/>
    <path d="M430.01 261.82l-25.02-43.64h50.03l-25.01 43.64z" class="cls-20"/>
    <path d="M480 261.82l-25.01-43.64h50.03L480 261.82z" class="cls-21"/>
    <path d="M-19.98 218.18l-25.01-43.64H5.04l-25.02 43.64z" class="cls-11"/>
    <path d="M30.05 218.18L5.04 174.54h50.03l-25.02 43.64z" class="cls-12"/>
    <path d="M80.05 218.18l-25.02-43.64h50.03l-25.01 43.64z" class="cls-13"/>
    <path d="M130.04 218.18l-25.01-43.64h50.03l-25.02 43.64z" class="cls-14"/>
    <path d="M180.04 218.18l-25.02-43.64h50.03l-25.01 43.64z" class="cls-15"/>
    <path d="M230.03 218.18l-25.01-43.64h50.02l-25.01 43.64z" class="cls-16"/>
    <path d="M280.02 218.18l-25.01-43.64h50.03l-25.02 43.64z" class="cls-17"/>
    <path d="M330.02 218.18L305 174.54h50.03l-25.01 43.64z" class="cls-18"/>
    <path d="M380.01 218.18L355 174.54h50.03l-25.02 43.64z" class="cls-19"/>
    <path d="M430.01 218.18l-25.02-43.64h50.03l-25.01 43.64z" class="cls-20"/>
    <path d="M480 218.18l-25.01-43.64h50.03L480 218.18z" class="cls-21"/>
    <path d="M-19.98 174.54l-25.01-43.63H5.04l-25.02 43.63z" class="cls-11"/>
    <path d="M30.05 174.54L5.04 130.91h50.03l-25.02 43.63z" class="cls-12"/>
    <path d="M80.05 174.54l-25.02-43.63h50.03l-25.01 43.63z" class="cls-13"/>
    <path d="M130.04 174.54l-25.01-43.63h50.03l-25.02 43.63z" class="cls-14"/>
    <path d="M180.04 174.54l-25.02-43.63h50.03l-25.01 43.63z" class="cls-15"/>
    <path d="M230.03 174.54l-25.01-43.63h50.02l-25.01 43.63z" class="cls-16"/>
    <path d="M280.02 174.54l-25.01-43.63h50.03l-25.02 43.63z" class="cls-17"/>
    <path d="M330.02 174.54L305 130.91h50.03l-25.01 43.63z" class="cls-18"/>
    <path d="M380.01 174.54L355 130.91h50.03l-25.02 43.63z" class="cls-19"/>
    <path d="M430.01 174.54l-25.02-43.63h50.03l-25.01 43.63z" class="cls-20"/>
    <path d="M480 174.54l-25.01-43.63h50.03L480 174.54z" class="cls-21"/>
    <path d="M-19.98 130.91l-25.01-43.64H5.04l-25.02 43.64z" class="cls-11"/>
    <path d="M30.05 130.91L5.04 87.27h50.03l-25.02 43.64z" class="cls-12"/>
    <path d="M80.05 130.91L55.03 87.27h50.03l-25.01 43.64z" class="cls-13"/>
    <path d="M130.04 130.91l-25.01-43.64h50.03l-25.02 43.64z" class="cls-14"/>
    <path d="M180.04 130.91l-25.02-43.64h50.03l-25.01 43.64z" class="cls-15"/>
    <path d="M230.03 130.91l-25.01-43.64h50.02l-25.01 43.64z" class="cls-16"/>
    <path d="M280.02 130.91l-25.01-43.64h50.03l-25.02 43.64z" class="cls-17"/>
    <path d="M330.02 130.91L305 87.27h50.03l-25.01 43.64z" class="cls-18"/>
    <path d="M380.01 130.91L355 87.27h50.03l-25.02 43.64z" class="cls-19"/>
    <path d="M430.01 130.91l-25.02-43.64h50.03l-25.01 43.64z" class="cls-20"/>
    <path d="M480 130.91l-25.01-43.64h50.03L480 130.91z" class="cls-21"/>
    <path d="M-19.98 87.27l-25.01-43.63H5.04l-25.02 43.63z" class="cls-11"/>
    <path d="M30.05 87.27L5.04 43.64h50.03L30.05 87.27z" class="cls-12"/>
    <path d="M80.05 87.27L55.03 43.64h50.03L80.05 87.27z" class="cls-13"/>
    <path d="M130.04 87.27l-25.01-43.63h50.03l-25.02 43.63z" class="cls-14"/>
    <path d="M180.04 87.27l-25.02-43.63h50.03l-25.01 43.63z" class="cls-15"/>
    <path d="M230.03 87.27l-25.01-43.63h50.02l-25.01 43.63z" class="cls-16"/>
    <path d="M280.02 87.27l-25.01-43.63h50.03l-25.02 43.63z" class="cls-17"/>
    <path d="M330.02 87.27L305 43.64h50.03l-25.01 43.63z" class="cls-18"/>
    <path d="M380.01 87.27L355 43.64h50.03l-25.02 43.63z" class="cls-19"/>
    <path d="M430.01 87.27l-25.02-43.63h50.03l-25.01 43.63z" class="cls-20"/>
    <path d="M480 87.27l-25.01-43.63h50.03L480 87.27z" class="cls-21"/>
    <path d="M-19.98 43.64L-44.99 0H5.04l-25.02 43.64z" class="cls-11"/>
    <path d="M30.05 43.64L5.04 0h50.03L30.05 43.64z" class="cls-12"/>
    <path d="M80.05 43.64L55.03 0h50.03L80.05 43.64z" class="cls-13"/>
    <path d="M130.04 43.64L105.03 0h50.03l-25.02 43.64z" class="cls-14"/>
    <path d="M180.04 43.64L155.02 0h50.03l-25.01 43.64z" class="cls-15"/>
    <path d="M230.03 43.64L205.02 0h50.02l-25.01 43.64z" class="cls-16"/>
    <path d="M280.02 43.64L255.01 0h50.03l-25.02 43.64z" class="cls-17"/>
    <path d="M330.02 43.64L305 0h50.03l-25.01 43.64z" class="cls-18"/>
    <path d="M380.01 43.64L355 0h50.03l-25.02 43.64z" class="cls-19"/>
    <path d="M430.01 43.64L404.99 0h50.03l-25.01 43.64z" class="cls-20"/>
    <path d="M480 43.64L454.99 0h50.03L480 43.64z" class="cls-21"/>
  </g>
  <g id="drawing">
    <path d="M216.32 351.75L174.25 322l1.79-37.82-120.63 32.51L33 480h211.34V351.5l-28.02.25z" class="cls-22"/>
    <path d="M477 480l-47.41-163.31-106.68-30.94-1.56 34.31-41.85 30.69-35.16.75V480H477z" class="cls-23"/>
    <path d="M187.86 280.44l-11.82 3.74-1.79 37.82 42.07 29.75 28.02-.25v-81.48l-56.48 10.42z" class="cls-24"/>
    <path d="M321.35 320.06l1.56-34.31-16.77-5.31L247 270l-2.66.02v81.48l35.16-.75 41.85-30.69z" class="cls-25"/>
    <path d="M319 199.33l-.53-13.61.2-33.72 11.33-8 6.84 2.46 3.36 9.82-7.53 35.05-8.5 8.67-5.17-.67z" class="cls-26"/>
    <path d="M171.42 198.83l.54-13.61-.21-33.72-11.33-8-6.83 2.46-3.37 9.82 7.53 35.05 8.5 8.67 5.17-.67z" class="cls-27"/>
    <path d="M224.93 268.67l-30.15-39.31v78.43l28.45 18.73h21.15v-57.85h-19.45z" class="cls-28"/>
    <path d="M265.02 268.67h-20.64v57.85h29.23l28.45-28.73v-77.41l-37.04 48.29zM224.78 268.07l-30.15-39.3.16 8.3 28.44 38.68h21.15v-7.39l-19.6-.29z" class="cls-29"/>
    <path d="M265.02 268.67l-20.64-.31v7.39h26.53l31.15-46.06-37.04 38.98z" class="cls-26"/>
    <path d="M268.81 275.75h-24.43v50.82h11.89l12.54-50.82z" class="cls-27"/>
    <path d="M224.75 275.75l12.54 50.82h7.09v-50.82h-19.63z" class="cls-30"/>
    <path d="M224.78 268.07l-.94-1.22.04 6.06.87 2.84h19.63v-7.39l-19.6-.29z" class="cls-27"/>
    <path d="M269.57 262.74l-4.55 5.93-20.64-.31v7.39h24.43l.87-2.84.06-10.17h-.17z" class="cls-31"/>
    <path d="M212.5 56.67l-41.37 25.61v128.1l51.56 58.16h21.65V56.67H212.5z" class="cls-30"/>
    <path d="M278.5 56.67h-34.16v211.87h22.98l51.55-58.16V82.28L278.5 56.67z" class="cls-27"/>
    <path d="M186 74l13.67 26-28.54 54V82.28L186 74z" class="cls-28"/>
    <path d="M236.76 186.83l-.32-.13v13.49l7.88 7.63.02-.02v-20.97h-7.58z" class="cls-29"/>
    <path d="M252.21 186.68l-.37.15h-7.5v20.97l7.87-7.61v-13.51z" class="cls-28"/>
    <path d="M308.34 82.67L292 103l26.67 50.67.2-71.39-10.53.39" class="cls-26"/>
    <path d="M271.68 263.62l-13.41-2.95h-13.93v7.87l22.98.1 4.36-5.02z" class="cls-29"/>
    <path d="M232.55 260.67l-14.56 2.57 4.7 5.3 21.65.04v-7.91h-11.79zM203.72 247.14l-32.59-36.76-.05-45.38 38 34.67-5.36 47.47z" class="cls-28"/>
    <path d="M318.84 164.33l-37.5 35.5 2.38 50.2 35.45-39.53-.33-46.17z" class="cls-29"/>
    <path d="M293.45 144.73v-4.03l-9.3-6.66H271l-9.3 6.66v4.03h31.75z" class="cls-32"/>
    <path d="M275.48 144.74l-3.12-3.13v-4.42l3.12-3.12h4.42l3.13 3.12v4.42l-3.13 3.13h-4.42z" class="cls-33"/>
    <path d="M293.45 144.72v.79l-9.3 3.96H271l-9.3-3.96v-.79h31.75z" class="cls-29"/>
    <path d="M284.15 130.99H271l-9.3 8.19v1.52l9.3-6.66h13.15l9.3 6.66v-1.52l-9.3-8.19z" class="cls-26"/>
    <path d="M225.45 144.73v-4.03l-9.3-6.66H203l-9.3 6.66v4.03h31.75z" class="cls-32"/>
    <path d="M207.48 144.74l-3.12-3.13v-4.42l3.12-3.12h4.42l3.13 3.12v4.42l-3.13 3.13h-4.42z" class="cls-33"/>
    <path d="M225.45 144.72v.79l-9.3 3.96H203l-9.3-3.96v-.79h31.75z" class="cls-28"/>
    <path d="M216.15 130.99H203l-9.3 8.19v1.52l9.3-6.66h13.15l9.3 6.66v-1.52l-9.3-8.19z" class="cls-29"/>
    <path d="M429.59 316.69L397 480H267h210l-47.41-163.31z" class="cls-34"/>
    <path d="M55.41 316.69L3 480h84L55.41 316.69z" class="cls-25"/>
    <path d="M244.34 61.83l-4.42 5.25-2.85-4.78-6.73 3.87-1.08-6.05-5.26.71-.91-4.25-5.34 6.17 3.53-1.3-2.03 9.38 7.12-4.91-3.7 12.16 11.07-7.58.1 7.17 6.25-2 1 4.5 3.25-1.57V61.83z" class="cls-28"/>
    <path d="M262 54.33l-2.64 2.34h2.7l-.06-2.34zM249.95 55.16l-3.08 1.51h2.97l.11-1.51zM292.59 62.67l-2.18 1.55-11.91-7.55h-31.63l-2.03 1-.5.91V78.6l4-1.93-2.5 13 20-10 .5 8 15-11-1 9.5 18.82-16.4 1.84-1.6-8.41-5.5z" class="cls-29"/>
    <path d="M330 144l-1.67-69 3.67-7-8.24.66 7-4.53-8.15 1.74L284 25.33l-65.66.67-30.76 17.87S162 95.33 163.34 95.33s-2 48.81-2 48.81l9.8 6.92 1.75-33.91L184 106.67l-5.62-12.18L187.67 78 219 59.67l-.79 1.92 3.5-1.42-2.42 6.67 7.08-4.92-3.67 12.17 11.08-7.58.08 7.17 11.81-14.12 2.69 3.5 24 9.88 14.06-.75 5-2.5L314 86.33l-6.67 15.33 10.33 12 1 38.33z" class="cls-33"/>
    <path d="M249.17 61.67L262 50.33l.34 14.17 14.66-7-3.83 13.5 16.23-10.05-2.56 10.72 14.16-7.5-20.66 18 1-9.5-15 11-.5-8-20 10 2.5-13-7.25 3.5-1-4.5-6.25 2-.1-7.17-11.07 7.58 3.7-12.16-7.12 4.91 2.44-6.55-3.52 1.3 5.33-6.16.92 4.25 4.84-3.55 1.08 6.05 6.73-3.87 2.85 4.78 10.03-11.92-.78 10.51z" class="cls-35"/>
    <path d="M244.34 160.92v9.93l3.71.07 2.14.75-.83-10.17-1.46-.58h-3.56z" class="cls-27"/>
    <path d="M262.5 166.74v-.15l-7.55-4.86-5.11-26.74h-2.65l2.17 26.51 13.14 5.24z" class="cls-36"/>
    <path d="M244.34 160.92h3.56l1.46.58-2.17-26.51h-2.85v25.93z" class="cls-37"/>
    <path d="M244.34 170.92v15.91h7.5l2.75-1.13-3.64-6.33 4.43-2.55 3.98 6.92 3.14-1.29v-5.71l-14.6-5.82h-3.56z" class="cls-26"/>
    <path d="M250.95 179.37l3.64 6.33 4.77-1.96-3.98-6.92-4.43 2.55z" class="cls-38"/>
    <path d="M249.36 161.5l.83 10.17-2.14-.75-3.71-.07v.07h3.56l14.6 5.82v-10l-13.14-5.24z" class="cls-31"/>
    <path d="M244.5 160.92v9.93l-3.71.07-2.14.75.83-10.17 1.46-.58h3.56z" class="cls-30"/>
    <path d="M226.34 166.74v-.15l7.55-4.86 5.11-26.74h2.64l-2.16 26.51-13.14 5.24z" class="cls-39"/>
    <path d="M244.5 160.92h-3.56l-1.46.58 2.16-26.51h2.86v25.93z" class="cls-40"/>
    <path d="M244.5 170.92v15.91H237l-2.76-1.13 3.64-6.33-4.43-2.55-3.98 6.92-3.13-1.29v-5.71l14.6-5.82h3.56z" class="cls-31"/>
    <path d="M237.88 179.37l-3.64 6.33-4.77-1.96 3.98-6.92 4.43 2.55z" class="cls-38"/>
    <path d="M239.48 161.5l-.83 10.17 2.14-.75 3.71-.07v.07h-3.56l-14.6 5.82v-10l13.14-5.24z" class="cls-28"/>
    <path d="M225.5 114.83l-1.88 9.83-26.89-3.83s-17.39 7.17-17.39 7.42 8.33-14.25 8.33-14.25l15.33-3.92z" class="cls-34"/>
    <path d="M267.88 114.92L258.42 126l44.56.58 10.36 6.25-11.83-18.08-33.63.17z" class="cls-35"/>
    <path d="M231.99 215.54l-11.67-.62 15.67-8.87-17.34 9.75 13.34 9.74h12.35v-10h-12.35z" class="cls-29"/>
    <path d="M271.15 209.5l-19.08 6.04h-7.73v10h12.31l14.5-16.04zM244.32 210.51l-5.4-4.46h-2.93l-15.67 8.87 11.67.62h12.35v-5.04l-.02.01z" class="cls-31"/>
    <path d="M271.15 209.5l-18.5-3.45h-2.93l-5.38 4.45v5.04h7.73l19.08-6.04z" class="cls-26"/>
    <path d="M179.36 128.23zM187.67 114s-7.8 13.56-8.31 14.23c.25-.2 3.51-1.61 7.14-3.14l6.5-12.46zM267.88 114.92L258.42 126l44.56.58 2.1 1.27-6.88-13.08-30.32.15z" class="cls-35"/>
    <path d="M301.51 114.75l-3.31.02 6.88 13.08 8.26 4.98-11.83-18.08z" class="cls-33"/>
  </g>
</symbol>
<symbol id="icon-branding" viewBox="0 0 58 64">
<title>branding</title>
<path class="path1" d="M2.745 57.116c2.133 3.001 5.803 4.167 8.846 2.233 3.1-1.764 4.537-5.66 7.879-7.111 2.204-0.953 4.693-0.825 6.841 0.242 0.91 0.441 2.005 1.849 0.882 2.802-1.308 1.081-3.243 0.896-4.722 1.863-0.939 0.711-1.806 1.493-2.603 2.361-1.707 1.877-4.409 3.954-7.097 4.366-3.826 0.711-9.657-1.749-10.027-6.756v0zM54.926 57.116c-2.133 3.001-5.803 4.167-8.846 2.233-3.1-1.764-4.537-5.66-7.879-7.111-2.204-0.953-4.693-0.825-6.841 0.242-0.91 0.441-2.005 1.849-0.882 2.802 1.308 1.081 3.243 0.896 4.722 1.863 0.939 0.711 1.806 1.493 2.603 2.361 1.707 1.877 4.409 3.954 7.097 4.366 3.826 0.711 9.657-1.749 10.027-6.756v0zM28.843 34.162c6.969 0 13.582 0.341 18.844 0.967l2.062-31.346c-13.952-5.063-27.861-5.049-41.828 0l2.062 31.346c5.276-0.626 11.89-0.967 18.859-0.967zM28.843 35.94c-15.929 0-28.843 1.82-28.843 4.053 0 1.365 4.864 2.588 12.316 3.314l-0.37-2.802h0.043c0-1.195 7.552-2.176 16.853-2.176s16.853 0.967 16.853 2.176c0 0.043-0.014 0.085-0.028 0.128l-0.356 2.688c7.467-0.725 12.359-1.948 12.359-3.328 0-2.233-12.9-4.053-28.828-4.053v0z"></path>
<path class="path2" d="M36.082 50.844c-2.56 0-4.636-2.076-4.636-4.636s2.076-4.636 4.636-4.636 4.636 2.076 4.636 4.636v0c0 2.56-2.076 4.636-4.636 4.636zM36.082 42.852c-1.863 0-3.356 1.508-3.356 3.356s1.508 3.356 3.356 3.356 3.356-1.508 3.356-3.356c0-1.849-1.508-3.356-3.356-3.356v0z"></path>
<path class="path3" d="M36.793 43.961l-3.271 3.271zM38.827 45.739l-3.271 3.271zM38.571 44.217l-4.537 4.537z"></path>
</symbol>
<symbol id="icon-brochure" viewBox="0 0 55 64">
<title>brochure</title>
<path class="path1" d="M18.754 5.58l-18.754-5.58v58.031l18.754 5.58 17.431-5.178 18.74 5.566v-58.031l-18.754-5.58-17.417 5.192zM17.129 59.844l-13.965-4.415v-51.286l13.965 4.415v51.286zM34.56 55.443l-14.195 4.401v-51.286l14.195-4.401v51.286zM37.796 4.156l13.965 4.415v51.286l-13.965-4.415v-51.286z"></path>
</symbol>
<symbol id="icon-card" viewBox="0 0 99 64">
<title>card</title>
<path class="path1" d="M0 0v64h98.558v-64h-98.558zM92.937 53.396h-87.317v-47.775h87.317v47.775z"></path>
<path class="path2" d="M14.381 21.143h18.135v3.557h-18.135v-3.557zM14.381 30.452h22.592v3.579h-22.592v-3.579zM14.381 39.761h27.444v3.557h-27.444v-3.557zM56.755 30.452h27.444v3.579h-27.444v-3.579zM56.755 39.761h27.444v3.557h-27.444v-3.557zM47.665 20.682h3.249v22.658h-3.249v-22.658z"></path>
</symbol>
<symbol id="icon-desktop" viewBox="0 0 77 64">
<title>desktop</title>
<path class="path1" d="M74.898 0h-72.749c-1.178 0-2.148 1.040-2.148 2.339v45.826c0 1.299 0.97 2.339 2.148 2.339h28.76v6.497l-6.74 7.017h28.708l-6.74-7.017v-6.48h28.76c1.195 0 2.148-1.039 2.148-2.339v-45.843c-0.017-1.282-0.97-2.339-2.148-2.339zM72.957 46.259h-68.886v-42.014h68.886v42.014z"></path>
</symbol>
<symbol id="icon-letter" viewBox="0 0 50 64">
<title>letter</title>
<path class="path1" d="M47.191 0h-47.191v64h39.14c0.303 0 0.607-0.014 0.911-0.058 2.616-0.289 5.044-1.691 6.837-3.96 1.836-2.327 2.847-5.362 2.847-8.542v-51.44h-2.544zM39.819 60.069v-9.467h7.371v0.781c0 4.538-3.223 8.267-7.371 8.687v0zM39.819 47.494h-2.529v13.398h-34.746v-57.785h44.647v44.372l-7.371 0.014z"></path>
<path class="path2" d="M41.438 31.176h-14.352v-18.067h14.352v18.067zM28.719 29.182h11.086v-14.078h-11.1l0.014 14.078zM10.262 13.702h14.612v1.706h-14.612v-1.706zM10.262 18.139h14.612v1.706h-14.612v-1.706zM10.262 22.591h14.612v1.706h-14.612v-1.706zM10.262 27.042h14.612v1.706h-14.612v-1.706zM6.62 33.706h35.021v1.706h-35.021v-1.706zM6.62 9.25h35.021v1.706h-35.021v-1.706zM6.62 38.157h35.021v1.706h-35.021v-1.706zM6.62 42.594h35.021v1.706h-35.021v-1.706z"></path>
</symbol>
<symbol id="icon-mobile" viewBox="0 0 35 64">
<title>mobile</title>
<path class="path1" d="M32.701 0h-30.012c-1.488 0-2.689 1.345-2.689 3.004v57.992c0 1.659 1.202 3.004 2.689 3.004h30.012c1.488 0 2.689-1.345 2.689-3.004v-57.992c0-1.659-1.202-3.004-2.689-3.004zM10.958 61.525h-3.376v-3.376h3.376v3.376zM19.383 61.525h-3.376v-3.376h3.376v3.376zM27.809 61.525h-3.376v-3.376h3.376v3.376zM33.202 56.49h-31.013v-49.194h30.999l0.014 49.194z"></path>
</symbol>
<symbol id="icon-tablet" viewBox="0 0 48 64">
<title>tablet</title>
<path class="path1" d="M45.526 0h-42.767c-1.53 0-2.76 1.23-2.76 2.76v58.481c0 1.53 1.23 2.76 2.76 2.76v0h42.767c1.53 0 2.76-1.23 2.76-2.76v0-58.481c0-1.53-1.23-2.76-2.76-2.76v0 0zM24.15 61.555c-1.301 0-2.345-1.044-2.345-2.345s1.044-2.345 2.345-2.345c1.301 0 2.345 1.044 2.345 2.345v0c0 1.301-1.058 2.345-2.345 2.345zM44.84 54.749h-41.38v-51.003h41.38v51.003z"></path>
</symbol>
<symbol id="icon-logo" viewBox="0 0 59 64">
<title>logo</title>
<path class="path1" fill="#2a2b2a" d="M53.364 18.488c-0.023-0.038-0.047-0.071-0.073-0.102l-0.008-0.007c-0.027-0.030-0.054-0.058-0.083-0.084l-0.021-0.019c-0.032-0.027-0.068-0.053-0.105-0.078l-0.027-0.017q-0.053-0.035-0.114-0.070l-0.031-0.018-0.141-0.079-0.068-0.035-0.096-0.048c-0.25-0.125-0.562-0.281-0.942-0.492l-20.529-11.64c-0.228-0.131-0.491-0.243-0.768-0.322-0.15-0.043-0.305-0.076-0.462-0.099l-0.029-0.002c-0.069-0.010-0.141-0.017-0.209-0.022h-0.029q-0.122-0.008-0.24-0.008c-0.427 0.001-0.837 0.077-1.215 0.217q-0.105 0.038-0.232 0.096l-0.034 0.015c-0.086 0.039-0.172 0.082-0.253 0.129l-20.529 11.634c-0.074 0.042-0.141 0.087-0.218 0.141h-0.007q-0.104 0.069-0.201 0.141c-0.155 0.122-0.293 0.25-0.42 0.388l-0.021 0.022c-0.035 0.038-0.069 0.079-0.101 0.118l-0.037 0.045c-0.029 0.038-0.059 0.076-0.087 0.115l-0.041 0.056c-0.027 0.038-0.052 0.076-0.077 0.114l-0.039 0.063c-0.024 0.038-0.046 0.076-0.069 0.115l-0.038 0.070c-0.021 0.038-0.042 0.077-0.060 0.115s-0.022 0.049-0.034 0.073q-0.046 0.098-0.086 0.201c-0.014 0.035-0.028 0.072-0.041 0.108s-0.021 0.063-0.031 0.094-0.024 0.075-0.035 0.114-0.017 0.062-0.025 0.094-0.020 0.080-0.028 0.119-0.013 0.060-0.018 0.091-0.015 0.086-0.021 0.128-0.008 0.058-0.013 0.087-0.011 0.097-0.014 0.141v0.073c0 0.073-0.007 0.141-0.007 0.221v24.685c0.010 0.028 0.021 0.055 0.034 0.082l0.013 0.025 0.028 0.053 0.017 0.028 0.032 0.049 0.018 0.027q0.022 0.031 0.049 0.062l0.020 0.024 0.051 0.055 0.031 0.029 0.042 0.039 0.037 0.032 0.045 0.038 0.041 0.032 0.055 0.042 0.077 0.056 0.052 0.037 0.059 0.039 0.049 0.032 0.067 0.042 0.125 0.077 0.017 0.010 0.229 0.141c0.176 0.103 0.373 0.214 0.595 0.339l20.529 11.64c0.228 0.131 0.492 0.243 0.77 0.322 0.15 0.043 0.305 0.076 0.462 0.099l0.028 0.002c0.070 0.010 0.141 0.017 0.209 0.023h0.028q0.118 0.008 0.236 0.008c0.637-0 1.235-0.17 1.751-0.466l-0.017 0.023 20.529-11.64c1.063-0.621 1.766-1.756 1.767-3.055v-24.889c-0.017-0.046-0.036-0.085-0.057-0.122z"></path>
<path class="path2" fill="#f1f2f2" d="M36.693 26.442c0.035-0.011 0.075-0.017 0.117-0.017 0.027 0 0.054 0.003 0.079 0.008 0.045-0 0.31 0.106 0.343 0.035 0.071-0.151 0.113-0.329 0.113-0.516 0-0.245-0.071-0.474-0.194-0.666-0.249-0.417-0.68-0.558-1.153-0.573-0.035-0.002-0.075-0.003-0.116-0.003-0.603 0-1.154 0.223-1.574 0.591-0.496 0.452-0.304 1.13 0.022 1.605 0.353 0.515 0.831 0.897 1.292 1.308 0.268 0.23 0.508 0.473 0.727 0.736 0.246 0.307 0.481 0.64 0.696 0.987 0.791 1.291 1.475 2.946 1.15 4.435-0.099 0.457-0.262 0.861-0.481 1.228-0.349 0.538-0.853 0.973-1.449 1.239-0.471 0.219-0.998 0.342-1.554 0.342-0.186 0-0.369-0.014-0.547-0.040-0.711-0.108-1.352-0.434-1.852-0.906-0.542-0.531-0.88-1.273-0.88-2.094 0-0.438 0.096-0.854 0.269-1.228 0.133-0.314 0.302-0.6 0.505-0.859 0.529-0.645 1.338-1.032 2.135-1.257 1.251-0.353 2.573-0.347 3.861-0.402 0.38-0.017 0.761-0.037 1.14-0.070 0.301-0.024 0.57-0.061 0.835-0.112-0.038 0.148-0.232 0.473-0.222 0.609-0.443-0.086-0.717-0.191-1.159-0.141-0.562 0.069-1.116 0.113-1.673 0.193-0.699 0.080-1.329 0.21-1.937 0.391-0.582 0.194-1.269 0.431-1.749 0.964-0.405 0.454-0.661 1.090-0.525 1.7 0.176 0.79 0.703 1.333 1.524 1.406 0.88 0.080 2.002-0.304 2.364-1.178 0.319-0.772 0.014-1.767-0.207-2.531-0.282-1.032-0.796-1.921-1.484-2.642-0.363-0.372-0.76-0.713-1.103-1.108-0.164-0.19-0.325-0.398-0.474-0.616-0.224-0.329-0.447-0.599-0.539-0.965-0.039-0.146-0.063-0.315-0.067-0.489-0-0.009-0-0.016-0-0.024 0-0.348 0.087-0.676 0.24-0.963 0.509-1.006 1.651-1.657 2.767-1.735 0.080-0.008 0.174-0.012 0.268-0.012 0.475 0 0.924 0.108 1.325 0.301 0.767 0.362 1.3 1.147 1.3 2.056 0 0.365-0.086 0.71-0.239 1.016-0.201 0.423-0.556 0.839-1.046 0.947-0.069 0.016-0.148 0.026-0.228 0.026-0.209 0-0.404-0.062-0.567-0.169-0.224-0.154-0.452-0.485-0.189-0.737 0.037-0.031 0.082-0.054 0.131-0.067z"></path>
<path class="path3" fill="#f1f2f2" d="M40.090 30.363c-1.333 4.5 0.399 3.771 1.343 1.249 0.044-0.117 0.212 0.159 0.221 0.163 0.131 0.052-0.458 1.535-0.495 1.614-0.176 0.381-0.449 0.853-0.814 1.074-0.155 0.089-0.341 0.142-0.54 0.142-0.105 0-0.207-0.015-0.303-0.042-0.645-0.181-0.836-0.854-0.794-1.473 0.034-0.546 0.562-2.156 0.61-2.7 0.178-0.019 0.384-0.029 0.593-0.029 0.063 0 0.125 0.001 0.188 0.003zM39.563 29.219s0.035 0 0.097-0.014c0.028-0.003 0.054-0.013 0.075-0.028 0.018 0 0.049-0.033 0.075-0.046s0.027-0.024 0.039-0.034c0.015-0.012 0.028-0.025 0.039-0.039 0.027-0.024 0.055-0.064 0.085-0.098s0.060-0.080 0.093-0.128 0.065-0.097 0.098-0.141 0.069-0.103 0.104-0.157 0.073-0.105 0.108-0.157c0.073-0.104 0.148-0.201 0.217-0.281l0.097-0.113c0.013-0.017 0.027-0.032 0.044-0.043 0.016-0.007 0.034-0.011 0.053-0.011 0.005 0 0.011 0 0.016 0.001 0.060 0.009 0.115 0.029 0.165 0.057 0.030 0.014 0.057 0.029 0.082 0.046l0.194 0.195s0.025 0.037 0.048 0.080c0.028 0.044 0.051 0.096 0.068 0.15 0.004 0.013 0.005 0.023 0.005 0.034s-0.001 0.021-0.004 0.030c-0.009 0.015-0.020 0.028-0.032 0.040l-0.084 0.093c-0.031 0.037-0.066 0.073-0.103 0.114s-0.075 0.086-0.118 0.131-0.086 0.094-0.141 0.141-0.098 0.1-0.152 0.149-0.108 0.1-0.173 0.141c-0.056 0.044-0.12 0.088-0.186 0.128-0.071 0.041-0.143 0.074-0.219 0.1-0.074 0.025-0.149 0.041-0.228 0.047-0.014 0.001-0.027 0.001-0.040 0.001-0.057 0-0.112-0.006-0.165-0.017-0.047-0.006-0.095-0.021-0.138-0.044-0.051-0.030-0.082-0.050-0.082-0.050z"></path>
<path class="path4" fill="#f1f2f2" d="M41.82 30.076c0.581 0.011 0.392 1.056 0.363 1.426-0.051 0.846-0.215 1.637-0.477 2.381-0.191-0.137-0.441-0.141-0.303-0.438s0.249-0.562 0.385-0.844c0.191-0.392 0.316-0.799 0.494-1.191 0.25-0.55 0.775-1.052 1.429-0.844 0.801 0.25 1.125 1.23 1.215 1.978 0.023 0.193 0 0.44 0.073 0.288 0.281-0.562 0.44-1.202 0.797-1.731 0.267-0.395 0.83-0.994 1.334-0.562 0.689 0.582 0.122 2.143 0.281 2.891 0.014 0.123 0.065 0.233 0.141 0.32 0.352 0.281 1.11-0.947 1.283-1.155s0.322-0.405 0.501-0.612c0.113-0.116 0.218-0.241 0.314-0.373 0.053-0.010-0.079 0.651-0.348 1.073-0.387 0.605-1.088 2.25-2.002 1.853-0.478-0.209-0.638-1.043-0.703-1.52s0.090-1.012 0.025-1.503c-0.027-0.208-0.208-0.458-0.361-0.235-0.662 0.963-0.703 2.206-1.195 2.967-0.093 0.156-0.254 0.264-0.441 0.281-0.424 0-0.548-1.547-0.613-1.849-0.075-0.361-0.19-1.469-0.703-1.386-1.036 0.165-1.173 2.299-1.212 2.772-0.017 0.2-0.032 0.391-0.236 0.481-0.075 0.031-0.162 0.049-0.254 0.049-0.132 0-0.255-0.038-0.359-0.103-0.163-0.139-0.084-0.323-0.023-0.493 0.129-0.356 0.141-1.232 0.141-1.603v-0.464c0-0.335 0-0.671-0.018-1.005-0.014-0.295-0.021-0.748 0.35-0.825 0.035-0.011 0.077-0.020 0.12-0.024z"></path>
<path class="path5" fill="#f1f2f2" d="M49.011 32.375c0.408-0.502 0.908-1.073 1.413-1.711 0.703-0.887 0.024-1.247-0.217-1.17-0.674 0.219-0.72 1.336-0.679 1.908 0.076 1.057 0.853 1.949 1.208 2.922 0.273 0.747 0.404 1.547 0.204 2.33-0.219 0.812-0.624 1.51-1.168 2.074-0.6 0.63-1.381 1.174-2.275 1.237-0.844 0.059-1.697-0.291-2.158-1.019-0.689-1.090-0.616-2.479-0.052-3.605 0.145-0.334 0.346-0.617 0.595-0.851 0.23-0.187 0.758-0.37 0.865 0.042 0.024 0.093-0.167 0.401-0.207 0.496-0.066 0.16-0.131 0.322-0.193 0.484-0.096 0.233-0.196 0.527-0.278 0.828-0.109 0.431-0.206 0.914 0.002 1.271 0.281 0.485 1.001 0.422 1.441 0.295 0.564-0.162 1.047-0.454 1.433-0.843 0.31-0.323 0.564-0.703 0.742-1.123 0.147-0.378 0.226-0.788 0.226-1.216 0-0.294-0.038-0.58-0.108-0.852-0.139-0.517-0.317-0.984-0.537-1.428-0.112-0.257-0.211-0.607-0.259-0.973-0.119-0.903-0.002-2.39 1.055-2.655 0.080-0.022 0.172-0.035 0.266-0.035 0.574 0 1.039 0.465 1.039 1.039 0 0.212-0.064 0.41-0.173 0.574-0.584 0.907-1.395 1.647-1.885 2.28 0.001-0.014-0.203-0.307-0.301-0.3zM9.501 28.726c0.045 0.053 0.055 0.141 0 0.281-0.156 0.46-0.652 0.721-1.112 0.773-0.053 0.007-0.115 0.011-0.178 0.011-0.146 0-0.287-0.023-0.42-0.065-0.117-0.039-0.228-0.096-0.327-0.168-0.105-0.077-0.198-0.17-0.275-0.275-0.038-0.053-0.073-0.109-0.104-0.167-0.028-0.055-0.054-0.113-0.076-0.174l-0.032-0.1v-0.023l-0.008-0.035v-0.028c-0.009-0.044-0.017-0.097-0.021-0.151-0.001-0.023-0.002-0.046-0.002-0.068s0.001-0.045 0.002-0.067c0.009-0.158 0.045-0.309 0.104-0.447 0.046-0.119 0.103-0.228 0.17-0.33 0.124-0.179 0.262-0.341 0.416-0.487 0.298-0.274 0.624-0.524 0.974-0.74 0.386-0.245 0.77-0.459 1.169-0.673 0.88-0.468 1.761-1.001 2.738-1.242 0.189-0.052 0.405-0.082 0.629-0.082 0.117 0 0.233 0.008 0.346 0.024 0.195 0.032 0.381 0.105 0.544 0.21 0.768 0.496 0.755 1.535 0.642 2.338-0.111 0.683-0.241 1.262-0.401 1.828-0.122 0.45-0.274 1.012-0.444 1.575-0.281 0.945-0.63 1.862-0.973 2.786-0.076 0.204-0.141 0.408-0.221 0.612-0.107 0.281-0.222 0.579-0.36 0.872-0.154 0.333-0.318 0.617-0.506 0.884-0.095 0.139-0.199 0.275-0.311 0.404-0.115 0.125-0.239 0.246-0.369 0.361-0.197 0.177-0.414 0.328-0.647 0.452-0.392 0.208-0.836 0.325-1.307 0.325-0.075 0-0.149-0.003-0.222-0.009-0.439-0.044-0.841-0.212-1.171-0.469-0.308-0.245-0.554-0.564-0.712-0.931-0.135-0.317-0.211-0.668-0.211-1.036 0-0.024 0-0.048 0.001-0.073 0.008-0.36 0.082-0.705 0.211-1.021 0.326-0.825 1.081-1.4 1.8-1.896 0.734-0.506 1.573-0.982 2.453-1.381 0.514-0.229 0.916-0.386 1.3-0.531s0.755-0.266 1.111-0.36c0.146-0.048 0.322-0.090 0.503-0.117 0.11-0.013 0.215-0.019 0.322-0.019 0.346 0 0.677 0.064 0.981 0.182 0.415 0.165 0.825 0.37 1.073 0.776 0.063 0.104-0.526 0.349-0.911 0.974 0.038-0.063-0.541-0.228-0.494-0.281 0.191-0.205 0.477-0.617 0.271-0.893-0.163-0.221-0.508-0.301-0.765-0.333-0.103-0.017-0.222-0.027-0.343-0.027-0.193 0-0.381 0.025-0.559 0.073-0.418 0.14-0.766 0.279-1.105 0.435-0.297 0.134-0.67 0.329-1.058 0.542-0.876 0.494-1.631 1.015-2.334 1.596-0.16 0.138-0.343 0.306-0.513 0.482-0.454 0.468-0.811 1.080-0.703 1.756 0.052 0.368 0.262 0.678 0.557 0.865 0.364 0.2 0.761 0.115 1.11-0.063l-0.039 0.021c0.355-0.201 0.657-0.448 0.914-0.736 0.343-0.391 0.648-0.825 0.904-1.29 0.257-0.46 0.475-0.891 0.695-1.323 0.244-0.502 0.495-1.123 0.707-1.762 0.224-0.658 0.402-1.202 0.562-1.742 0.212-0.726 0.436-1.478 0.47-2.237 0.002-0.029 0.003-0.062 0.003-0.096 0-0.276-0.084-0.532-0.229-0.744-0.23-0.295-0.683-0.227-1.008-0.147-0.9 0.226-1.718 0.719-2.469 1.253-0.359 0.255-0.683 0.522-0.984 0.778-0.141 0.128-0.281 0.256-0.411 0.382-0.228 0.225-0.55 0.495-0.645 0.811v-0.059s0 0.035 0.008 0.035c-0-0.003-0.001-0.005-0.001-0.008s0-0.006 0.001-0.009c0.028 0.228 0.34 0.213 0.508 0.201 0.104-0.007 0.208-0.025 0.312-0.037 0.183-0.021 0.391-0.044 0.471 0.055z"></path>
<path class="path6" fill="#f1f2f2" d="M16.366 30.341c-0.136 0.12-0.255 0.252-0.358 0.398-0.119 0.162-0.227 0.323-0.33 0.489-0.282 0.439-0.528 0.943-0.712 1.476-0.063 0.2-0.155 0.419-0.101 0.577v-0.014c0.101 0.544 0.74 0.132 0.97-0.072 0.319-0.281 0.612-0.844 0.78-1.225 0.076-0.169 0.974 0.114 0.921 0.457-0.387 2.509 1.797 1.35 2.329 0.281 0.072-0.141 0.233 0.173 0.15 0.343-0.166 0.34-0.141 0.481-0.45 0.747-0.167 0.118-0.359 0.222-0.562 0.303-0.237 0.112-0.337 0.275-0.56 0.365s-1.897 0.308-1.956-1.337c-0.003-0.056-0.005-0.123-0.005-0.189 0-0.147 0.008-0.293 0.025-0.436 0.027-0.2 0.065-0.39 0.115-0.576 0.041-0.147 0.096-0.32 0.157-0.489 0.101-0.301 0.211-0.555 0.34-0.798 0.079-0.137 0.564-0.472 0.48 0.518l-0.015 0.613c-0.008 0.209-0.021 0.422-0.048 0.644-0.089 0.735-0.422 1.568-1.095 1.957-0.631 0.368-1.561 0.519-2.143-0.021-0.278-0.249-0.453-0.609-0.453-1.010 0-0.078 0.007-0.154 0.019-0.229 0.116-0.474 0.314-0.897 0.58-1.269 0.111-0.168 0.236-0.336 0.365-0.501s0.264-0.325 0.405-0.48 0.281-0.307 0.443-0.449c0.075-0.070 0.156-0.137 0.241-0.201 0.094-0.073 0.191-0.132 0.296-0.179z"></path>
<path class="path7" fill="#f1f2f2" d="M19.113 33.63c-0.141-0.562-1.313-3.375 0.388-4.116 0.197-0.095 0.425-0.167 0.664-0.204 0.046-0.006 0.082-0.008 0.12-0.008 0.2 0 0.384 0.066 0.531 0.178 1.327 0.983-0.764 3.983-1.084 4.304-0.212 0.214-0.64-0.073-0.461-0.359 0.323-0.517 1.367-2.435 1.257-3.001-0.062-0.312-0.347-0.679-0.695-0.422-0.394 0.295-0.446 0.966-0.456 1.406 0 0.007-0 0.014-0 0.022 0 0.601 0.103 1.179 0.292 1.715 0.068 0.207 0.27 0.45 0.411 0.667 0.212 0.356 1.85 2.492-0.472 5.062-0.499 0.553-1.236 1.074-1.997 1.185-0.617 0.090-1.368 0.021-1.845-0.402-0.403-0.353-0.656-0.869-0.656-1.444 0-0.033 0.001-0.067 0.003-0.1 0.055-1.347 1.016-2.342 2.154-3.028 0.413-0.249 0.844-0.471 1.249-0.735 0.33-0.218 0.641-0.454 0.973-0.672 1.599-1.050 2.109-1.36 2.877-2.289-0.1 0.281-0.173 0.612-0.269 0.894l-0.056 0.066c-0.035 0.045-0.093 0.105-0.169 0.184-0.216 0.216-0.448 0.414-0.696 0.593-0.336 0.253-0.741 0.52-1.21 0.813-0.703 0.437-1.419 0.861-2.109 1.32-0.578 0.385-1.142 0.821-1.509 1.406s-0.589 1.86 0.524 1.87c3.711 0.051 2.994-3.375 2.489-4.218-0.118-0.198-0.205-0.43-0.247-0.677z"></path>
<path class="path8" fill="#f1f2f2" d="M22.807 31.281c-0.013 0.022-0.026 0.047-0.037 0.074-0.028 0.065-0.055 0.14-0.076 0.218-0.030 0.109-0.056 0.233-0.075 0.36-0.025 0.16-0.040 0.326-0.050 0.5-0.003 0.063-0.005 0.137-0.005 0.212 0 0.119 0.005 0.238 0.015 0.354 0.011 0.173 0.055 0.349 0.127 0.509 0.023 0.046 0.060 0.092 0.104 0.13 0.030 0.026 0.067 0.044 0.108 0.051 0.029 0.005 0.062 0.008 0.095 0.008s0.065-0.003 0.097-0.009l0.059-0.009h0.076c0.013-0.006 0.023-0.011 0.034-0.018 0.142-0.098 0.258-0.224 0.342-0.372 0.106-0.172 0.197-0.363 0.268-0.564 0.069-0.189 0.124-0.39 0.163-0.598 0.033-0.173 0.050-0.345 0.050-0.521 0-0.017-0-0.033-0-0.050-0-0.149-0.028-0.294-0.079-0.428-0.034-0.090-0.096-0.171-0.174-0.231-0.058-0.041-0.124-0.072-0.195-0.090-0.056-0.014-0.087-0.019-0.087-0.019l-0.013-0.165h0.025c0.021-0.006 0.047-0.011 0.073-0.015 0.041-0.007 0.084-0.011 0.129-0.011 0.066 0 0.13 0.009 0.19 0.024 0.168 0.049 0.315 0.147 0.422 0.279 0.128 0.16 0.225 0.348 0.28 0.553 0.066 0.247 0.103 0.519 0.103 0.799 0 0.24-0.027 0.473-0.078 0.698-0.058 0.282-0.151 0.551-0.273 0.802-0.137 0.297-0.358 0.557-0.632 0.748-0.045 0.029-0.091 0.054-0.139 0.075l-0.044 0.020-0.046 0.018-0.048 0.017h-0.052l-0.031 0.008h-0.015l-0.062 0.014c-0.041 0.008-0.084 0.015-0.128 0.021-0.057 0.008-0.123 0.012-0.19 0.012-0.136 0-0.267-0.018-0.391-0.053-0.201-0.061-0.381-0.174-0.522-0.325-0.121-0.133-0.217-0.289-0.279-0.462-0.050-0.14-0.084-0.292-0.099-0.449-0.009-0.083-0.014-0.171-0.014-0.26 0-0.053 0.002-0.105 0.005-0.157 0.016-0.244 0.061-0.478 0.133-0.701 0.098-0.329 0.266-0.632 0.486-0.889 0.063-0.072 0.137-0.138 0.218-0.194 0.031-0.022 0.061-0.040 0.094-0.053z"></path>
<path class="path9" fill="#f1f2f2" d="M23.748 30.579s0.598 0.044 0.657 0.058c0.235 0.056 0.498 0.162 0.742 0.141 0.212-0.018 0.266-0.159 0.366-0.326 0.077 0.010 0.167 0.016 0.258 0.016 0.008 0 0.016-0 0.025-0 0.132 0 0.114 2.953 0.082 3.205-0.037 0.288-0.113 0.879-0.443 1.007s-0.35-0.375-0.34-0.575c0.031-0.61 0.281-1.222 0.54-1.767 0.38-0.799 0.817-1.711 1.687-2.071 0.765-0.316 1.111 0.382 1.125 1.032 0.015 0.496-0.167 0.967-0.262 1.447-0.067 0.344-0.077 0.778 0.316 0.921 0.529 0.193 0.887-0.609 1.088-0.962 0.152-0.269 0.378-0.516 0.719-0.478 0.584 0.068 0.468 0.73 0.302 1.087-0.253 0.546-0.626 1.077-1.191 1.334-0.294 0.141-0.863 0.059-1.156-0.044-0.345-0.12-0.621-0.362-0.781-0.674-0.317-0.646 0.085-1.22 0.321-1.803 0.124-0.304 0.269-0.71 0.257-1.043-0.013-0.363-0.29-0.591-0.636-0.447-0.312 0.129-0.551 0.482-0.713 0.766-0.263 0.487-0.492 1.053-0.658 1.646-0.051 0.18-0.087 0.303-0.114 0.426s-0.044 0.249-0.072 0.371c-0.030 0.136-0.069 0.255-0.117 0.369-0.024 0.051-0.059 0.106-0.1 0.156-0.099 0.12-0.321 0.232-0.452 0.087-0.155-0.17-0.084-0.703-0.063-0.913 0.035-0.328 0.076-0.655 0.113-0.984s0.075-0.661 0.115-0.984c0.017-0.129 0.031-0.259 0.048-0.388 0.025-0.198 0.051-0.398 0.080-0.596l0.020-0.122c0.076 0.010 0.163 0.016 0.252 0.016 0.010 0 0.020-0 0.031-0 0.014 0.235 0.015 0.484-0.165 0.662-0.242 0.239-0.578 0.222-0.879 0.121-0.263-0.089-0.626-0.225-0.832-0.422-0.069-0.076-0.126-0.163-0.168-0.26z"></path>
<path class="path10" fill="#d1d3d4" d="M12.98 30.076c0.31-0.167 0.67-0.294 1.051-0.361l-0.17 0.658c-0.022-0.001-0.047-0.002-0.073-0.002-0.39 0-0.749 0.13-1.038 0.348zM21.774 32.632c0.205-0.151 0.381-0.325 0.531-0.52 0.057-0.084-0.565 1.143-0.565 1.143-0.001-0.037-0.002-0.080-0.002-0.123 0-0.176 0.013-0.349 0.038-0.519zM19.364 34.31l0.738-0.456c0.069 0.098 0.181 0.291 0.181 0.291l-0.816 0.371c-0.015-0.024-0.104-0.207-0.104-0.207zM36.385 30.99c0.321-0.069 0.714-0.128 1.114-0.162 0.114 0.13 0.187 0.286 0.247 0.448-0.134 0.003-0.837 0.15-1.166 0.278zM49.709 32.2s-0.329 0.368-0.366 0.429l0.203 0.474s0.328-0.512 0.323-0.522c-0.025-0.063-0.16-0.381-0.16-0.381z"></path>
<path class="path11" fill="#3e403f" d="M54.286 45.038l-2.209 1.253c-0.123 0.096-0.261 0.189-0.405 0.272l-20.551 11.65c-0.153 0.088-0.332 0.172-0.518 0.24l-2.329 1.316c-1.254 0.724-2.759 1.152-4.363 1.152-1.378 0-2.683-0.315-3.845-0.878l4.952 2.811c1.256 0.725 2.763 1.153 4.37 1.153s3.113-0.428 4.413-1.175l20.486-11.617c2.7-1.552 4.49-4.42 4.49-7.706 0-0.002 0-0.004 0-0.007v-6.17c0 0 0 0 0 0.001 0 3.286-1.789 6.154-4.447 7.684z"></path>
<path class="path12" fill="#2dc0e4" d="M4.49 18.983l2.209-1.253q0.097-0.076 0.201-0.141h0.007c0.070-0.048 0.141-0.093 0.218-0.141l20.529-11.64c0.083-0.046 0.167-0.089 0.253-0.129l0.034-0.015q0.127-0.056 0.256-0.104l2.305-1.308c1.256-0.725 2.763-1.152 4.369-1.152 1.44 0 2.8 0.344 4.002 0.953l-5.113-2.895c-1.256-0.725-2.763-1.153-4.37-1.153s-3.113 0.428-4.413 1.175l-20.488 11.614c-2.699 1.551-4.488 4.418-4.49 7.703v6.187c0.001-3.285 1.79-6.151 4.447-7.68z"></path>
<path class="path13" fill="#186e80" d="M38.823 4.024c-1.151-0.586-2.511-0.93-3.951-0.93-1.606 0-3.113 0.428-4.412 1.175l-2.262 1.285c0.355-0.133 0.766-0.21 1.194-0.21 0.636 0 1.233 0.17 1.748 0.466l20.513 11.631c1.1 0.623 1.606 0.703 1.782 1.19v-4.303c-0.001-1.112-0.517-2.103-1.323-2.746z"></path>
<path class="path14" fill="#215d69" d="M53.433 18.63v-4.301c-0.001-1.112-0.517-2.103-1.323-2.746l-1.011-0.576s1.246 0.882 1.211 2.337 0 4.445 0 4.446c0.652 0.329 0.983 0.461 1.123 0.841zM38.823 4.024c-1.151-0.586-2.511-0.93-3.951-0.93-1.606 0-3.113 0.428-4.412 1.175l-2.262 1.285c0.354-0.133 0.763-0.21 1.19-0.21 0.335 0 0.659 0.047 0.966 0.136 0.8-0.605 1.752-1.099 2.774-1.442 3.816-1.031 6.661 0.541 6.664 0.541z"></path>
<path class="path15" fill="#ffcb38" d="M5.343 49.688v-29.19c0-0.075 0-0.141 0.007-0.221v-0.073c0-0.049 0.008-0.097 0.014-0.141s0.008-0.058 0.013-0.087 0.014-0.086 0.021-0.128 0.013-0.062 0.018-0.091 0.018-0.080 0.028-0.119 0.015-0.063 0.025-0.094 0.022-0.076 0.035-0.114 0.020-0.063 0.031-0.094 0.027-0.072 0.041-0.108q0.039-0.101 0.086-0.201c0.011-0.024 0.022-0.049 0.034-0.073s0.041-0.077 0.060-0.115l0.038-0.070c0.022-0.039 0.045-0.077 0.069-0.115l0.039-0.063c0.025-0.038 0.051-0.076 0.077-0.114l0.041-0.056c0.028-0.039 0.058-0.077 0.087-0.115l0.037-0.045c0.034-0.039 0.066-0.080 0.101-0.118l0.018-0.020c0.129-0.141 0.267-0.269 0.414-0.385l-2.189 1.247c-2.699 1.551-4.488 4.418-4.49 7.703v16.816c0 0 0 0 0 0.001 0 3.286 1.789 6.154 4.447 7.684l2.227 1.255c-0.813-0.649-1.33-1.64-1.33-2.752z"></path>
<path class="path16" fill="#ba9430" d="M5.343 20.518v-0.018c0-0.075 0-0.141 0.007-0.221v-0.073c0-0.049 0.008-0.097 0.014-0.141s0.008-0.058 0.013-0.087 0.014-0.086 0.021-0.128 0.013-0.062 0.018-0.091 0.018-0.080 0.028-0.119 0.015-0.063 0.025-0.094 0.022-0.076 0.035-0.114 0.020-0.063 0.031-0.094 0.027-0.072 0.041-0.108q0.039-0.101 0.086-0.201c0.011-0.024 0.022-0.049 0.034-0.073s0.041-0.077 0.060-0.115l0.038-0.070c0.022-0.039 0.045-0.077 0.069-0.115l0.039-0.063c0.025-0.038 0.051-0.076 0.077-0.114l0.041-0.056c0.028-0.039 0.058-0.077 0.087-0.115l0.037-0.045c0.034-0.039 0.066-0.080 0.101-0.118l0.018-0.020c0.129-0.141 0.267-0.269 0.414-0.385l-2.189 1.246c-2.699 1.551-4.488 4.418-4.49 7.703v1.626c0-0.163 0.059-5.315 5.343-7.793z"></path>
<path class="path17" fill="#191919" d="M28.274 59.772l2.305-1.308c0.211-0.076 0.39-0.159 0.56-0.257l-0.017-0.008c-0.499 0.288-1.097 0.458-1.734 0.458s-1.236-0.17-1.752-0.467l-20.512-11.631c-1.1-0.623-1.606-0.897-1.782-1.389v4.518c0.001 1.112 0.517 2.103 1.323 2.746l13.45 7.634c1.11 0.54 2.415 0.855 3.793 0.855 1.604 0 3.109-0.427 4.406-1.175z"></path>
<path class="path18" fill="#131213" d="M6.451 50.664l0.080-4.442c-0.696-0.404-1.048-0.664-1.188-1.052v4.518c0.001 1.112 0.517 2.103 1.323 2.746l0.92 0.523c-1.211-1.223-1.135-2.293-1.135-2.293zM20.117 60.068c1.11 0.54 2.415 0.855 3.793 0.855 1.604 0 3.109-0.427 4.406-1.175l2.262-1.285c0.211-0.076 0.39-0.159 0.56-0.257l-0.017-0.008c-0.497 0.287-1.094 0.457-1.73 0.457-0.335 0-0.66-0.047-0.967-0.135-4.607 3.334-9.16 1.061-9.16 1.061z"></path>
<path class="path19" fill="#e76fa7" d="M54.286 12.808l-2.184-1.232c0.813 0.649 1.33 1.64 1.33 2.752v29.189c-0.001 1.123-0.528 2.123-1.348 2.767l2.201-1.247c2.7-1.552 4.489-4.42 4.49-7.706v-16.816c0-0 0-0 0-0.001 0-3.286-1.789-6.154-4.447-7.684z"></path>
<path class="path20" fill="#d35e9b" d="M58.776 37.331v-0.903s-0.335 4.993-5.343 7.010v0.077c-0.001 1.123-0.528 2.123-1.348 2.767l2.201-1.247c2.7-1.552 4.489-4.419 4.49-7.704z"></path>
</symbol>
</defs>
</svg>
