<?xml version="1.0" encoding="utf-8"?>
<!-- Generator: Adobe Illustrator 17.1.0, SVG Export Plug-In . SVG Version: 6.00 Build 0)  -->
<!DOCTYPE svg PUBLIC "-//W3C//DTD SVG 1.1//EN" "http://www.w3.org/Graphics/SVG/1.1/DTD/svg11.dtd">
<svg version="1.1" id="Layer_1" xmlns="http://www.w3.org/2000/svg" xmlns:xlink="http://www.w3.org/1999/xlink" x="0px" y="0px"
	 viewBox="-13.978 0 871.2 252.22" enable-background="new -13.978 0 871.2 252.22" xml:space="preserve">
<rect x="235.162" y="-0.001" fill="#3F1A30" width="57.986" height="252.22"/>
<rect x="288.141" y="-0.001" fill="#803560" width="14.044" height="252.22"/>
<rect x="301.511" y="-0.001" fill="#C04F90" width="8.489" height="252.22"/>
<rect x="309" y="-0.001" fill="#E061A4" width="52.571" height="252.22"/>
<rect x="360.571" y="-0.001" fill="#EB6FAA" width="74.543" height="252.22"/>
<rect x="-24.585" y="-0.001" fill="#083640" width="53.578" height="252.22"/>
<rect x="28.993" y="-0.001" fill="#116D80" width="57.986" height="252.22"/>
<rect x="86.141" y="-0.001" fill="#13A3BF" width="39.785" height="252.22"/>
<rect x="125.927" y="-0.001" fill="#24C2E4" width="32.372" height="252.22"/>
<rect x="155.299" y="-0.001" fill="#52C9EE" width="83.601" height="252.22"/>
<rect x="434.115" y="-0.001" fill="#3F3316" width="14.548" height="252.22"/>
<rect x="446.662" y="-0.001" fill="#7F6628" width="103.992" height="252.22"/>
<rect x="549.653" y="-0.001" fill="#BE972E" width="35.548" height="252.22"/>
<rect x="585.202" y="-0.001" fill="#E5B630" width="23.707" height="252.22"/>
<rect x="605.759" y="-0.001" fill="#FFCB37" width="45.233" height="252.22"/>
<rect x="648.992" y="-0.001" width="82.769" height="252.22"/>
<rect x="728.761" y="-0.001" fill="#1B1C1C" width="31.304" height="252.22"/>
<rect x="759.534" y="-0.001" fill="#292929" width="13.969" height="252.22"/>
<rect x="772.973" y="-0.001" fill="#3C3D3D" width="58.719" height="252.22"/>
<rect x="829.162" y="-0.001" fill="#5C5E5E" width="36.669" height="252.22"/>
</svg>
